Nemoy-Light.ufo
<glyph name="exclam" format="2">
  <advance width="489"/>
  <unicode hex="0021"/>
  <outline>
    <contour>
      <point x="229" y="316" type="curve" smooth="yes"/>
      <point x="246" y="316"/>
      <point x="259" y="329"/>
      <point x="259" y="346" type="curve" smooth="yes"/>
      <point x="259" y="1537" type="line" smooth="yes"/>
      <point x="259" y="1554"/>
      <point x="246" y="1567"/>
      <point x="229" y="1567" type="curve" smooth="yes"/>
      <point x="212" y="1567"/>
      <point x="199" y="1554"/>
      <point x="199" y="1537" type="curve" smooth="yes"/>
      <point x="199" y="346" type="line" smooth="yes"/>
      <point x="199" y="329"/>
      <point x="212" y="316"/>
    </contour>
    <component base="period"/>
  </outline>
</glyph>
<glyph name="numbersign" format="2">
  <advance width="1449"/>
  <unicode hex="0023"/>
  <outline>
    <contour>
      <point x="806" y="-34" type="curve" smooth="yes"/>
      <point x="820" y="-34"/>
      <point x="831" y="-25"/>
      <point x="835" y="-12" type="curve" smooth="yes"/>
      <point x="1247" y="1411" type="line" smooth="yes"/>
      <point x="1252" y="1430"/>
      <point x="1238" y="1449"/>
      <point x="1218" y="1449" type="curve" smooth="yes"/>
      <point x="1204" y="1449"/>
      <point x="1193" y="1440"/>
      <point x="1189" y="1427" type="curve" smooth="yes"/>
      <point x="777" y="4" type="line" smooth="yes"/>
      <point x="772" y="-15"/>
      <point x="786" y="-34"/>
    </contour>
    <contour>
      <point x="239" y="-34" type="curve" smooth="yes"/>
      <point x="253" y="-34"/>
      <point x="264" y="-25"/>
      <point x="268" y="-12" type="curve" smooth="yes"/>
      <point x="680" y="1411" type="line" smooth="yes"/>
      <point x="685" y="1430"/>
      <point x="671" y="1449"/>
      <point x="651" y="1449" type="curve" smooth="yes"/>
      <point x="637" y="1449"/>
      <point x="626" y="1440"/>
      <point x="622" y="1427" type="curve" smooth="yes"/>
      <point x="210" y="4" type="line" smooth="yes"/>
      <point x="205" y="-15"/>
      <point x="219" y="-34"/>
    </contour>
    <contour>
      <point x="80" y="448" type="curve" smooth="yes"/>
      <point x="1280" y="448" type="line" smooth="yes"/>
      <point x="1297" y="448"/>
      <point x="1310" y="461"/>
      <point x="1310" y="478" type="curve" smooth="yes"/>
      <point x="1310" y="495"/>
      <point x="1297" y="508"/>
      <point x="1280" y="508" type="curve" smooth="yes"/>
      <point x="80" y="508" type="line" smooth="yes"/>
      <point x="63" y="508"/>
      <point x="50" y="495"/>
      <point x="50" y="478" type="curve" smooth="yes"/>
      <point x="50" y="461"/>
      <point x="63" y="448"/>
    </contour>
    <contour>
      <point x="169" y="923" type="curve" smooth="yes"/>
      <point x="1369" y="923" type="line" smooth="yes"/>
      <point x="1386" y="923"/>
      <point x="1399" y="936"/>
      <point x="1399" y="953" type="curve" smooth="yes"/>
      <point x="1399" y="970"/>
      <point x="1386" y="983"/>
      <point x="1369" y="983" type="curve" smooth="yes"/>
      <point x="169" y="983" type="line" smooth="yes"/>
      <point x="152" y="983"/>
      <point x="139" y="970"/>
      <point x="139" y="953" type="curve" smooth="yes"/>
      <point x="139" y="936"/>
      <point x="152" y="923"/>
    </contour>
  </outline>
</glyph>
<glyph name="dollar" format="2">
  <advance width="1193"/>
  <unicode hex="0024"/>
  <anchor x="622" y="0" name="bottom"/>
  <anchor x="622" y="1538" name="top"/>
  <outline>
    <contour>
      <point x="662" y="1508" type="curve" smooth="yes"/>
      <point x="679" y="1508"/>
      <point x="692" y="1521"/>
      <point x="692" y="1538" type="curve" smooth="yes"/>
      <point x="692" y="1828" type="line" smooth="yes"/>
      <point x="692" y="1845"/>
      <point x="679" y="1858"/>
      <point x="662" y="1858" type="curve" smooth="yes"/>
      <point x="645" y="1858"/>
      <point x="632" y="1845"/>
      <point x="632" y="1828" type="curve" smooth="yes"/>
      <point x="632" y="1538" type="line" smooth="yes"/>
      <point x="632" y="1521"/>
      <point x="645" y="1508"/>
    </contour>
    <contour>
      <point x="662" y="-291" type="curve" smooth="yes"/>
      <point x="679" y="-291"/>
      <point x="692" y="-278"/>
      <point x="692" y="-261" type="curve" smooth="yes"/>
      <point x="695" y="1" type="line" smooth="yes"/>
      <point x="695" y="18"/>
      <point x="682" y="31"/>
      <point x="665" y="31" type="curve" smooth="yes"/>
      <point x="648" y="31"/>
      <point x="635" y="18"/>
      <point x="635" y="1" type="curve" smooth="yes"/>
      <point x="632" y="-261" type="line" smooth="yes"/>
      <point x="632" y="-278"/>
      <point x="645" y="-291"/>
    </contour>
    <component base="S"/>
  </outline>
</glyph>
<glyph name="percent" format="2">
  <advance width="1786"/>
  <unicode hex="0025"/>
  <outline>
    <contour>
      <point x="1181" y="1374" type="curve" smooth="yes"/>
      <point x="606" y="8" type="line" smooth="yes"/>
      <point x="605" y="6"/>
      <point x="605" y="4"/>
      <point x="605" y="2" type="curve" smooth="yes"/>
      <point x="605" y="-7"/>
      <point x="611" y="-17"/>
      <point x="623" y="-17" type="curve" smooth="yes"/>
      <point x="630" y="-17"/>
      <point x="637" y="-12"/>
      <point x="640" y="-6" type="curve" smooth="yes"/>
      <point x="1215" y="1360" type="line" smooth="yes"/>
      <point x="1216" y="1362"/>
      <point x="1216" y="1365"/>
      <point x="1216" y="1367" type="curve" smooth="yes"/>
      <point x="1216" y="1376"/>
      <point x="1209" y="1385"/>
      <point x="1198" y="1385" type="curve" smooth="yes"/>
      <point x="1191" y="1385"/>
      <point x="1184" y="1380"/>
    </contour>
    <component base="zero.numr" xOffset="-1"/>
    <component base="zero.dnom" xOffset="908"/>
  </outline>
</glyph>
<glyph name="ampersand" format="2">
  <advance width="1643"/>
  <unicode hex="0026"/>
  <outline>
    <contour>
      <point x="1563" y="-14" type="curve" smooth="yes"/>
      <point x="1579" y="-14"/>
      <point x="1593" y="-1"/>
      <point x="1593" y="16" type="curve" smooth="yes"/>
      <point x="1593" y="24"/>
      <point x="1589" y="32"/>
      <point x="1584" y="37" type="curve" smooth="yes"/>
      <point x="624" y="988" type="line" smooth="yes"/>
      <point x="525" y="1086"/>
      <point x="381" y="1212"/>
      <point x="381" y="1339" type="curve" smooth="yes"/>
      <point x="381" y="1466"/>
      <point x="479" y="1564"/>
      <point x="607" y="1564" type="curve" smooth="yes"/>
      <point x="734" y="1564"/>
      <point x="832" y="1466"/>
      <point x="832" y="1339" type="curve" smooth="yes"/>
      <point x="832" y="1213"/>
      <point x="691" y="1114"/>
      <point x="562" y="985" type="curve" smooth="yes"/>
      <point x="163" y="589" type="line"/>
      <point x="15" y="450"/>
      <point x="13" y="213"/>
      <point x="155" y="67" type="curve" smooth="yes"/>
      <point x="290" y="-69"/>
      <point x="521" y="-88"/>
      <point x="682" y="71" type="curve" smooth="yes"/>
      <point x="1409" y="781" type="line" smooth="yes"/>
      <point x="1414" y="786"/>
      <point x="1418" y="794"/>
      <point x="1418" y="802" type="curve" smooth="yes"/>
      <point x="1418" y="819"/>
      <point x="1404" y="832"/>
      <point x="1388" y="832" type="curve" smooth="yes"/>
      <point x="1380" y="832"/>
      <point x="1372" y="829"/>
      <point x="1367" y="824" type="curve" smooth="yes"/>
      <point x="640" y="114" type="line" smooth="yes"/>
      <point x="500" y="-24"/>
      <point x="315" y="-9"/>
      <point x="198" y="109" type="curve" smooth="yes"/>
      <point x="75" y="235"/>
      <point x="77" y="427"/>
      <point x="205" y="546" type="curve"/>
      <point x="604" y="942" type="line" smooth="yes"/>
      <point x="730" y="1068"/>
      <point x="892" y="1182"/>
      <point x="892" y="1339" type="curve" smooth="yes"/>
      <point x="892" y="1496"/>
      <point x="764" y="1624"/>
      <point x="607" y="1624" type="curve" smooth="yes"/>
      <point x="449" y="1624"/>
      <point x="321" y="1496"/>
      <point x="321" y="1339" type="curve" smooth="yes"/>
      <point x="321" y="1184"/>
      <point x="484" y="1042"/>
      <point x="582" y="945" type="curve" smooth="yes"/>
      <point x="1542" y="-6" type="line" smooth="yes"/>
      <point x="1547" y="-11"/>
      <point x="1555" y="-14"/>
    </contour>
  </outline>
</glyph>
<glyph name="quotesingle" format="2">
  <advance width="280"/>
  <unicode hex="0027"/>
  <outline>
    <contour>
      <point x="140" y="1081" type="curve" smooth="yes"/>
      <point x="157" y="1081"/>
      <point x="170" y="1094"/>
      <point x="170" y="1111" type="curve" smooth="yes"/>
      <point x="170" y="1568" type="line" smooth="yes"/>
      <point x="170" y="1585"/>
      <point x="157" y="1598"/>
      <point x="140" y="1598" type="curve" smooth="yes"/>
      <point x="123" y="1598"/>
      <point x="110" y="1585"/>
      <point x="110" y="1568" type="curve" smooth="yes"/>
      <point x="110" y="1111" type="line" smooth="yes"/>
      <point x="110" y="1094"/>
      <point x="123" y="1081"/>
    </contour>
  </outline>
</glyph>
<glyph name="parenleft" format="2">
  <advance width="631"/>
  <unicode hex="0028"/>
  <outline>
    <contour>
      <point x="431" y="-94" type="curve" smooth="yes"/>
      <point x="447" y="-94"/>
      <point x="461" y="-81"/>
      <point x="461" y="-64" type="curve" smooth="yes"/>
      <point x="461" y="-59"/>
      <point x="459" y="-54"/>
      <point x="457" y="-50" type="curve" smooth="yes"/>
      <point x="328" y="201"/>
      <point x="260" y="465"/>
      <point x="260" y="740" type="curve" smooth="yes"/>
      <point x="260" y="1015"/>
      <point x="328" y="1279"/>
      <point x="457" y="1530" type="curve" smooth="yes"/>
      <point x="459" y="1534"/>
      <point x="461" y="1539"/>
      <point x="461" y="1544" type="curve" smooth="yes"/>
      <point x="461" y="1561"/>
      <point x="447" y="1574"/>
      <point x="431" y="1574" type="curve" smooth="yes"/>
      <point x="419" y="1574"/>
      <point x="409" y="1567"/>
      <point x="404" y="1558" type="curve" smooth="yes"/>
      <point x="271" y="1299"/>
      <point x="200" y="1024"/>
      <point x="200" y="740" type="curve" smooth="yes"/>
      <point x="200" y="456"/>
      <point x="271" y="181"/>
      <point x="404" y="-78" type="curve" smooth="yes"/>
      <point x="409" y="-87"/>
      <point x="419" y="-94"/>
    </contour>
  </outline>
</glyph>
<glyph name="asterisk" format="2">
  <advance width="792"/>
  <unicode hex="002A"/>
  <outline>
    <contour>
      <point x="178" y="1265" type="curve" smooth="yes"/>
      <point x="186" y="1265"/>
      <point x="194" y="1268"/>
      <point x="199" y="1274" type="curve"/>
      <point x="634" y="1708" type="line" smooth="yes"/>
      <point x="640" y="1713"/>
      <point x="643" y="1721"/>
      <point x="643" y="1729" type="curve" smooth="yes"/>
      <point x="643" y="1746"/>
      <point x="630" y="1759"/>
      <point x="613" y="1759" type="curve" smooth="yes"/>
      <point x="605" y="1759"/>
      <point x="597" y="1756"/>
      <point x="592" y="1750" type="curve"/>
      <point x="157" y="1316" type="line" smooth="yes"/>
      <point x="151" y="1311"/>
      <point x="148" y="1303"/>
      <point x="148" y="1295" type="curve" smooth="yes"/>
      <point x="148" y="1278"/>
      <point x="161" y="1265"/>
    </contour>
    <contour>
      <point x="612" y="1265" type="curve" smooth="yes"/>
      <point x="629" y="1265"/>
      <point x="642" y="1278"/>
      <point x="642" y="1295" type="curve" smooth="yes"/>
      <point x="642" y="1303"/>
      <point x="639" y="1311"/>
      <point x="633" y="1316" type="curve"/>
      <point x="201" y="1750" type="line" smooth="yes"/>
      <point x="196" y="1756"/>
      <point x="188" y="1759"/>
      <point x="180" y="1759" type="curve" smooth="yes"/>
      <point x="163" y="1759"/>
      <point x="150" y="1746"/>
      <point x="150" y="1729" type="curve" smooth="yes"/>
      <point x="150" y="1721"/>
      <point x="153" y="1713"/>
      <point x="159" y="1708" type="curve"/>
      <point x="591" y="1274" type="line" smooth="yes"/>
      <point x="596" y="1268"/>
      <point x="604" y="1265"/>
    </contour>
    <contour>
      <point x="395" y="1176" type="curve" smooth="yes"/>
      <point x="412" y="1176"/>
      <point x="425" y="1189"/>
      <point x="425" y="1206" type="curve" smooth="yes"/>
      <point x="426" y="1818" type="line" smooth="yes"/>
      <point x="426" y="1835"/>
      <point x="413" y="1848"/>
      <point x="396" y="1848" type="curve" smooth="yes"/>
      <point x="379" y="1848"/>
      <point x="366" y="1835"/>
      <point x="366" y="1818" type="curve" smooth="yes"/>
      <point x="365" y="1206" type="line" smooth="yes"/>
      <point x="365" y="1189"/>
      <point x="378" y="1176"/>
    </contour>
    <contour>
      <point x="90" y="1482" type="curve" smooth="yes"/>
      <point x="702" y="1482" type="line" smooth="yes"/>
      <point x="719" y="1482"/>
      <point x="732" y="1495"/>
      <point x="732" y="1512" type="curve" smooth="yes"/>
      <point x="732" y="1529"/>
      <point x="719" y="1542"/>
      <point x="702" y="1542" type="curve" smooth="yes"/>
      <point x="90" y="1542" type="line" smooth="yes"/>
      <point x="73" y="1542"/>
      <point x="60" y="1529"/>
      <point x="60" y="1512" type="curve" smooth="yes"/>
      <point x="60" y="1495"/>
      <point x="73" y="1482"/>
    </contour>
  </outline>
</glyph>
<glyph name="plus" format="2">
  <advance width="1250"/>
  <unicode hex="002B"/>
  <outline>
    <contour>
      <point x="100" y="548" type="curve" smooth="yes"/>
      <point x="1146" y="548" type="line" smooth="yes"/>
      <point x="1163" y="548"/>
      <point x="1176" y="561"/>
      <point x="1176" y="578" type="curve" smooth="yes"/>
      <point x="1176" y="595"/>
      <point x="1163" y="608"/>
      <point x="1146" y="608" type="curve" smooth="yes"/>
      <point x="100" y="608" type="line" smooth="yes"/>
      <point x="83" y="608"/>
      <point x="70" y="595"/>
      <point x="70" y="578" type="curve" smooth="yes"/>
      <point x="70" y="561"/>
      <point x="83" y="548"/>
    </contour>
    <contour>
      <point x="623" y="25" type="curve" smooth="yes"/>
      <point x="640" y="25"/>
      <point x="653" y="38"/>
      <point x="653" y="55" type="curve" smooth="yes"/>
      <point x="653" y="1101" type="line" smooth="yes"/>
      <point x="653" y="1118"/>
      <point x="640" y="1131"/>
      <point x="623" y="1131" type="curve" smooth="yes"/>
      <point x="606" y="1131"/>
      <point x="593" y="1118"/>
      <point x="593" y="1101" type="curve" smooth="yes"/>
      <point x="593" y="55" type="line" smooth="yes"/>
      <point x="593" y="38"/>
      <point x="606" y="25"/>
    </contour>
  </outline>
</glyph>
<glyph name="comma" format="2">
  <advance width="583"/>
  <unicode hex="002C"/>
  <outline>
    <contour>
      <point x="161" y="-143" type="curve" smooth="yes"/>
      <point x="170" y="-143"/>
      <point x="178" y="-139"/>
      <point x="184" y="-133" type="curve" smooth="yes"/>
      <point x="451" y="175" type="line" smooth="yes"/>
      <point x="477" y="205"/>
      <point x="459" y="246"/>
      <point x="419" y="246" type="curve" smooth="yes"/>
      <point x="96" y="246" type="line" smooth="yes"/>
      <point x="55" y="246"/>
      <point x="36" y="205"/>
      <point x="63" y="174" type="curve" smooth="yes"/>
      <point x="237" y="-20" type="line" smooth="yes"/>
      <point x="242" y="-26"/>
      <point x="250" y="-30"/>
      <point x="259" y="-30" type="curve" smooth="yes"/>
      <point x="276" y="-30"/>
      <point x="289" y="-17"/>
      <point x="289" y="0" type="curve" smooth="yes"/>
      <point x="289" y="8"/>
      <point x="286" y="15"/>
      <point x="281" y="20" type="curve" smooth="yes"/>
      <point x="133" y="186" type="line"/>
      <point x="381" y="186" type="line"/>
      <point x="138" y="-93" type="line"/>
      <point x="134" y="-99"/>
      <point x="131" y="-105"/>
      <point x="131" y="-113" type="curve" smooth="yes"/>
      <point x="131" y="-130"/>
      <point x="144" y="-143"/>
    </contour>
  </outline>
</glyph>
<glyph name="hyphen" format="2">
  <advance width="657"/>
  <unicode hex="002D"/>
  <outline>
    <contour>
      <point x="50" y="567" type="curve" smooth="yes"/>
      <point x="607" y="567" type="line" smooth="yes"/>
      <point x="624" y="567"/>
      <point x="637" y="580"/>
      <point x="637" y="597" type="curve" smooth="yes"/>
      <point x="637" y="614"/>
      <point x="624" y="627"/>
      <point x="607" y="627" type="curve" smooth="yes"/>
      <point x="50" y="627" type="line" smooth="yes"/>
      <point x="33" y="627"/>
      <point x="20" y="614"/>
      <point x="20" y="597" type="curve" smooth="yes"/>
      <point x="20" y="580"/>
      <point x="33" y="567"/>
    </contour>
  </outline>
</glyph>
<glyph name="period" format="2">
  <advance width="489"/>
  <unicode hex="002E"/>
  <outline>
    <contour>
      <point x="339" y="-30" type="curve" smooth="yes"/>
      <point x="331" y="-30"/>
      <point x="324" y="-27"/>
      <point x="318" y="-21" type="curve" smooth="yes"/>
      <point x="99" y="197" type="line" smooth="yes"/>
      <point x="93" y="202"/>
      <point x="90" y="210"/>
      <point x="90" y="218" type="curve" smooth="yes"/>
      <point x="90" y="235"/>
      <point x="103" y="248"/>
      <point x="120" y="248" type="curve" smooth="yes"/>
      <point x="128" y="248"/>
      <point x="135" y="245"/>
      <point x="141" y="239" type="curve" smooth="yes"/>
      <point x="360" y="21" type="line" smooth="yes"/>
      <point x="366" y="16"/>
      <point x="369" y="8"/>
      <point x="369" y="0" type="curve" smooth="yes"/>
      <point x="369" y="-17"/>
      <point x="356" y="-30"/>
    </contour>
    <contour>
      <point x="120" y="-30" type="curve" smooth="yes"/>
      <point x="103" y="-30"/>
      <point x="90" y="-17"/>
      <point x="90" y="0" type="curve" smooth="yes"/>
      <point x="90" y="8"/>
      <point x="93" y="16"/>
      <point x="99" y="21" type="curve" smooth="yes"/>
      <point x="318" y="239" type="line" smooth="yes"/>
      <point x="324" y="245"/>
      <point x="331" y="248"/>
      <point x="339" y="248" type="curve" smooth="yes"/>
      <point x="356" y="248"/>
      <point x="369" y="235"/>
      <point x="369" y="218" type="curve" smooth="yes"/>
      <point x="369" y="210"/>
      <point x="366" y="202"/>
      <point x="360" y="197" type="curve" smooth="yes"/>
      <point x="141" y="-21" type="line" smooth="yes"/>
      <point x="135" y="-27"/>
      <point x="128" y="-30"/>
    </contour>
  </outline>
</glyph>
<glyph name="slash" format="2">
  <advance width="888"/>
  <unicode hex="002F"/>
  <outline>
    <contour>
      <point x="158" y="-358" type="curve" smooth="yes"/>
      <point x="171" y="-358"/>
      <point x="183" y="-349"/>
      <point x="187" y="-337" type="curve" smooth="yes"/>
      <point x="755" y="1446" type="line" smooth="yes"/>
      <point x="761" y="1465"/>
      <point x="746" y="1485"/>
      <point x="726" y="1485" type="curve" smooth="yes"/>
      <point x="713" y="1485"/>
      <point x="701" y="1476"/>
      <point x="697" y="1464" type="curve" smooth="yes"/>
      <point x="129" y="-319" type="line" smooth="yes"/>
      <point x="123" y="-338"/>
      <point x="138" y="-358"/>
    </contour>
  </outline>
</glyph>
<glyph name="zero" format="2">
  <advance width="1450"/>
  <unicode hex="0030"/>
  <outline>
    <contour>
      <point x="727" y="-30" type="curve" smooth="yes"/>
      <point x="1089" y="-30"/>
      <point x="1350" y="328"/>
      <point x="1350" y="769" type="curve" smooth="yes"/>
      <point x="1350" y="1210"/>
      <point x="1089" y="1568"/>
      <point x="727" y="1568" type="curve" smooth="yes"/>
      <point x="361" y="1568"/>
      <point x="100" y="1210"/>
      <point x="100" y="769" type="curve" smooth="yes"/>
      <point x="100" y="328"/>
      <point x="361" y="-30"/>
    </contour>
    <contour>
      <point x="727" y="30" type="curve" smooth="yes"/>
      <point x="392" y="30"/>
      <point x="160" y="348"/>
      <point x="160" y="769" type="curve" smooth="yes"/>
      <point x="160" y="1190"/>
      <point x="392" y="1508"/>
      <point x="727" y="1508" type="curve" smooth="yes"/>
      <point x="1058" y="1508"/>
      <point x="1290" y="1190"/>
      <point x="1290" y="769" type="curve" smooth="yes"/>
      <point x="1290" y="348"/>
      <point x="1058" y="30"/>
    </contour>
  </outline>
</glyph>
<glyph name="one" format="2">
  <advance width="815"/>
  <unicode hex="0031"/>
  <outline>
    <contour>
      <point x="431" y="1061" type="line"/>
      <point x="431" y="60" type="line"/>
      <point x="218" y="60" type="line" smooth="yes"/>
      <point x="201" y="60"/>
      <point x="188" y="47"/>
      <point x="188" y="30" type="curve" smooth="yes"/>
      <point x="188" y="13"/>
      <point x="201" y="0"/>
      <point x="218" y="0" type="curve" smooth="yes"/>
      <point x="705" y="0" type="line" smooth="yes"/>
      <point x="722" y="0"/>
      <point x="735" y="13"/>
      <point x="735" y="30" type="curve" smooth="yes"/>
      <point x="735" y="47"/>
      <point x="722" y="60"/>
      <point x="705" y="60" type="curve" smooth="yes"/>
      <point x="491" y="60" type="line"/>
      <point x="491" y="1514" type="line" smooth="yes"/>
      <point x="491" y="1565"/>
      <point x="432" y="1585"/>
      <point x="402" y="1544" type="curve" smooth="yes"/>
      <point x="90" y="1127" type="line" smooth="yes"/>
      <point x="68" y="1097"/>
      <point x="86" y="1061"/>
      <point x="123" y="1061" type="curve" smooth="yes"/>
    </contour>
    <contour>
      <point x="431" y="1121" type="line"/>
      <point x="161" y="1121" type="line"/>
      <point x="431" y="1483" type="line"/>
    </contour>
  </outline>
</glyph>
<glyph name="two" format="2">
  <advance width="1219"/>
  <unicode hex="0032"/>
  <outline>
    <contour>
      <point x="197" y="0" type="curve" smooth="yes"/>
      <point x="1089" y="0" type="line" smooth="yes"/>
      <point x="1106" y="0"/>
      <point x="1119" y="13"/>
      <point x="1119" y="30" type="curve" smooth="yes"/>
      <point x="1119" y="47"/>
      <point x="1106" y="60"/>
      <point x="1089" y="60" type="curve" smooth="yes"/>
      <point x="233" y="60" type="line"/>
      <point x="813" y="600" type="line" smooth="yes"/>
      <point x="985" y="760"/>
      <point x="1074" y="903"/>
      <point x="1074" y="1081" type="curve" smooth="yes"/>
      <point x="1074" y="1360"/>
      <point x="873" y="1568"/>
      <point x="598" y="1568" type="curve" smooth="yes"/>
      <point x="322" y="1568"/>
      <point x="100" y="1340"/>
      <point x="100" y="1061" type="curve" smooth="yes"/>
      <point x="100" y="1056"/>
      <point x="100" y="1050"/>
      <point x="101" y="1037" type="curve" smooth="yes"/>
      <point x="103" y="1020"/>
      <point x="116" y="1009"/>
      <point x="132" y="1009" type="curve" smooth="yes"/>
      <point x="1042" y="1009" type="line" smooth="yes"/>
      <point x="1059" y="1009"/>
      <point x="1072" y="1022"/>
      <point x="1072" y="1039" type="curve" smooth="yes"/>
      <point x="1072" y="1056"/>
      <point x="1059" y="1069"/>
      <point x="1042" y="1069" type="curve" smooth="yes"/>
      <point x="150" y="1069" type="line"/>
      <point x="160" y="1061" type="line"/>
      <point x="160" y="1312"/>
      <point x="352" y="1508"/>
      <point x="598" y="1508" type="curve" smooth="yes"/>
      <point x="843" y="1508"/>
      <point x="1014" y="1332"/>
      <point x="1014" y="1081" type="curve" smooth="yes"/>
      <point x="1014" y="921"/>
      <point x="938" y="797"/>
      <point x="773" y="644" type="curve" smooth="yes"/>
      <point x="166" y="79" type="line" smooth="yes"/>
      <point x="133" y="48"/>
      <point x="152" y="0"/>
    </contour>
  </outline>
</glyph>
<glyph name="three" format="2">
  <advance width="1216"/>
  <unicode hex="0033"/>
  <outline>
    <contour>
      <point x="608" y="-30" type="curve" smooth="yes"/>
      <point x="904" y="-30"/>
      <point x="1146" y="196"/>
      <point x="1146" y="475" type="curve" smooth="yes"/>
      <point x="1146" y="752"/>
      <point x="904" y="978"/>
      <point x="608" y="978" type="curve" smooth="yes"/>
      <point x="483" y="978"/>
      <point x="367" y="938"/>
      <point x="276" y="871" type="curve" smooth="yes"/>
      <point x="268" y="865"/>
      <point x="265" y="857"/>
      <point x="265" y="847" type="curve" smooth="yes"/>
      <point x="265" y="831"/>
      <point x="279" y="817"/>
      <point x="295" y="817" type="curve" smooth="yes"/>
      <point x="302" y="817"/>
      <point x="306" y="819"/>
      <point x="311" y="822" type="curve" smooth="yes"/>
      <point x="394" y="884"/>
      <point x="492" y="918"/>
      <point x="608" y="918" type="curve" smooth="yes"/>
      <point x="880" y="918"/>
      <point x="1086" y="726"/>
      <point x="1086" y="475" type="curve" smooth="yes"/>
      <point x="1086" y="222"/>
      <point x="880" y="30"/>
      <point x="608" y="30" type="curve" smooth="yes"/>
      <point x="344" y="30"/>
      <point x="143" y="209"/>
      <point x="130" y="450" type="curve" smooth="yes"/>
      <point x="129" y="465"/>
      <point x="116" y="478"/>
      <point x="100" y="478" type="curve" smooth="yes"/>
      <point x="83" y="478"/>
      <point x="69" y="463"/>
      <point x="70" y="446" type="curve" smooth="yes"/>
      <point x="86" y="181"/>
      <point x="321" y="-30"/>
    </contour>
    <contour>
      <point x="622" y="663" type="curve" smooth="yes"/>
      <point x="871" y="663"/>
      <point x="1074" y="866"/>
      <point x="1074" y="1116" type="curve" smooth="yes"/>
      <point x="1074" y="1365"/>
      <point x="871" y="1568"/>
      <point x="622" y="1568" type="curve" smooth="yes"/>
      <point x="382" y="1568"/>
      <point x="185" y="1380"/>
      <point x="170" y="1145" type="curve" smooth="yes"/>
      <point x="169" y="1128"/>
      <point x="183" y="1113"/>
      <point x="200" y="1113" type="curve" smooth="yes"/>
      <point x="216" y="1113"/>
      <point x="229" y="1125"/>
      <point x="230" y="1141" type="curve" smooth="yes"/>
      <point x="242" y="1353"/>
      <point x="405" y="1508"/>
      <point x="622" y="1508" type="curve" smooth="yes"/>
      <point x="846" y="1508"/>
      <point x="1014" y="1340"/>
      <point x="1014" y="1116" type="curve" smooth="yes"/>
      <point x="1014" y="891"/>
      <point x="846" y="723"/>
      <point x="622" y="723" type="curve" smooth="yes"/>
      <point x="494" y="723"/>
      <point x="391" y="775"/>
      <point x="317" y="867" type="curve" smooth="yes"/>
      <point x="312" y="874"/>
      <point x="304" y="878"/>
      <point x="295" y="878" type="curve" smooth="yes"/>
      <point x="278" y="878"/>
      <point x="264" y="864"/>
      <point x="264" y="848" type="curve" smooth="yes"/>
      <point x="264" y="841"/>
      <point x="266" y="835"/>
      <point x="270" y="830" type="curve" smooth="yes"/>
      <point x="353" y="727"/>
      <point x="480" y="663"/>
    </contour>
  </outline>
</glyph>
<glyph name="four" format="2">
  <advance width="1195"/>
  <unicode hex="0034"/>
  <outline>
    <contour>
      <point x="841" y="-3" type="curve" smooth="yes"/>
      <point x="858" y="-3"/>
      <point x="871" y="10"/>
      <point x="871" y="27" type="curve" smooth="yes"/>
      <point x="871" y="1514" type="line" smooth="yes"/>
      <point x="871" y="1565"/>
      <point x="812" y="1585"/>
      <point x="782" y="1544" type="curve" smooth="yes"/>
      <point x="50" y="564" type="line" smooth="yes"/>
      <point x="28" y="534"/>
      <point x="46" y="498"/>
      <point x="83" y="498" type="curve" smooth="yes"/>
      <point x="814" y="498" type="line" smooth="yes"/>
      <point x="831" y="498"/>
      <point x="844" y="511"/>
      <point x="844" y="528" type="curve" smooth="yes"/>
      <point x="844" y="545"/>
      <point x="831" y="558"/>
      <point x="814" y="558" type="curve" smooth="yes"/>
      <point x="121" y="558" type="line"/>
      <point x="811" y="1483" type="line"/>
      <point x="811" y="27" type="line" smooth="yes"/>
      <point x="811" y="10"/>
      <point x="824" y="-3"/>
    </contour>
    <contour>
      <point x="598" y="-30" type="curve" smooth="yes"/>
      <point x="1085" y="-30" type="line" smooth="yes"/>
      <point x="1102" y="-30"/>
      <point x="1115" y="-17"/>
      <point x="1115" y="0" type="curve" smooth="yes"/>
      <point x="1115" y="17"/>
      <point x="1102" y="30"/>
      <point x="1085" y="30" type="curve" smooth="yes"/>
      <point x="598" y="30" type="line" smooth="yes"/>
      <point x="581" y="30"/>
      <point x="568" y="17"/>
      <point x="568" y="0" type="curve" smooth="yes"/>
      <point x="568" y="-17"/>
      <point x="581" y="-30"/>
    </contour>
  </outline>
</glyph>
<glyph name="five" format="2">
  <advance width="1190"/>
  <unicode hex="0035"/>
  <outline>
    <contour>
      <point x="583" y="-31" type="curve" smooth="yes"/>
      <point x="879" y="-31"/>
      <point x="1120" y="191"/>
      <point x="1120" y="466" type="curve" smooth="yes"/>
      <point x="1120" y="740"/>
      <point x="879" y="963"/>
      <point x="583" y="963" type="curve" smooth="yes"/>
      <point x="433" y="963"/>
      <point x="296" y="906"/>
      <point x="199" y="813" type="curve"/>
      <point x="199" y="1478" type="line"/>
      <point x="860" y="1478" type="line"/>
      <point x="152" y="946" type="line" smooth="yes"/>
      <point x="145" y="941"/>
      <point x="141" y="932"/>
      <point x="141" y="922" type="curve" smooth="yes"/>
      <point x="141" y="906"/>
      <point x="154" y="892"/>
      <point x="171" y="892" type="curve" smooth="yes"/>
      <point x="177" y="892"/>
      <point x="184" y="894"/>
      <point x="189" y="898" type="curve" smooth="yes"/>
      <point x="921" y="1449" type="line" smooth="yes"/>
      <point x="961" y="1479"/>
      <point x="943" y="1538"/>
      <point x="892" y="1538" type="curve" smooth="yes"/>
      <point x="171" y="1538" type="line" smooth="yes"/>
      <point x="153" y="1538"/>
      <point x="139" y="1524"/>
      <point x="139" y="1506" type="curve" smooth="yes"/>
      <point x="139" y="802" type="line" smooth="yes"/>
      <point x="139" y="748"/>
      <point x="200" y="731"/>
      <point x="239" y="769" type="curve" smooth="yes"/>
      <point x="326" y="853"/>
      <point x="446" y="903"/>
      <point x="583" y="903" type="curve" smooth="yes"/>
      <point x="851" y="903"/>
      <point x="1060" y="710"/>
      <point x="1060" y="466" type="curve" smooth="yes"/>
      <point x="1060" y="221"/>
      <point x="851" y="29"/>
      <point x="583" y="29" type="curve" smooth="yes"/>
      <point x="393" y="29"/>
      <point x="236" y="125"/>
      <point x="157" y="269" type="curve" smooth="yes"/>
      <point x="152" y="279"/>
      <point x="142" y="285"/>
      <point x="130" y="285" type="curve" smooth="yes"/>
      <point x="114" y="285"/>
      <point x="100" y="272"/>
      <point x="100" y="255" type="curve" smooth="yes"/>
      <point x="100" y="250"/>
      <point x="102" y="245"/>
      <point x="104" y="240" type="curve"/>
      <point x="193" y="79"/>
      <point x="374" y="-31"/>
    </contour>
  </outline>
</glyph>
<glyph name="six" format="2">
  <advance width="1181"/>
  <unicode hex="0036"/>
  <outline>
    <contour>
      <point x="100" y="487" type="curve" smooth="yes"/>
      <point x="117" y="487"/>
      <point x="130" y="500"/>
      <point x="130" y="517" type="curve" smooth="yes"/>
      <point x="141" y="1084"/>
      <point x="499" y="1384"/>
      <point x="905" y="1474" type="curve" smooth="yes"/>
      <point x="918" y="1477"/>
      <point x="928" y="1489"/>
      <point x="928" y="1503" type="curve" smooth="yes"/>
      <point x="928" y="1522"/>
      <point x="911" y="1536"/>
      <point x="892" y="1532" type="curve" smooth="yes"/>
      <point x="472" y="1438"/>
      <point x="82" y="1112"/>
      <point x="70" y="517" type="curve" smooth="yes"/>
      <point x="70" y="500"/>
      <point x="84" y="487"/>
    </contour>
    <contour>
      <point x="591" y="-31" type="curve" smooth="yes"/>
      <point x="878" y="-31"/>
      <point x="1111" y="202"/>
      <point x="1111" y="490" type="curve" smooth="yes"/>
      <point x="1111" y="777"/>
      <point x="878" y="1010"/>
      <point x="591" y="1010" type="curve" smooth="yes"/>
      <point x="303" y="1010"/>
      <point x="70" y="777"/>
      <point x="70" y="490" type="curve" smooth="yes"/>
      <point x="70" y="202"/>
      <point x="303" y="-31"/>
    </contour>
    <contour>
      <point x="591" y="29" type="curve" smooth="yes"/>
      <point x="328" y="29"/>
      <point x="130" y="227"/>
      <point x="130" y="490" type="curve" smooth="yes"/>
      <point x="130" y="752"/>
      <point x="328" y="950"/>
      <point x="591" y="950" type="curve" smooth="yes"/>
      <point x="853" y="950"/>
      <point x="1051" y="752"/>
      <point x="1051" y="490" type="curve" smooth="yes"/>
      <point x="1051" y="227"/>
      <point x="853" y="29"/>
    </contour>
  </outline>
</glyph>
<glyph name="seven" format="2">
  <advance width="1125"/>
  <unicode hex="0037"/>
  <outline>
    <contour>
      <point x="315" y="0" type="curve" smooth="yes"/>
      <point x="327" y="0"/>
      <point x="337" y="7"/>
      <point x="342" y="16" type="curve" smooth="yes"/>
      <point x="1080" y="1483" type="line" smooth="yes"/>
      <point x="1094" y="1511"/>
      <point x="1077" y="1538"/>
      <point x="1047" y="1538" type="curve" smooth="yes"/>
      <point x="87" y="1538" type="line" smooth="yes"/>
      <point x="44" y="1538"/>
      <point x="25" y="1493"/>
      <point x="55" y="1462" type="curve" smooth="yes"/>
      <point x="647" y="865" type="line"/>
      <point x="266" y="865" type="line" smooth="yes"/>
      <point x="249" y="865"/>
      <point x="236" y="852"/>
      <point x="236" y="835" type="curve" smooth="yes"/>
      <point x="236" y="818"/>
      <point x="249" y="805"/>
      <point x="266" y="805" type="curve" smooth="yes"/>
      <point x="684" y="805" type="line" smooth="yes"/>
      <point x="727" y="805"/>
      <point x="746" y="850"/>
      <point x="716" y="881" type="curve" smooth="yes"/>
      <point x="124" y="1478" type="line"/>
      <point x="1010" y="1478" type="line"/>
      <point x="288" y="44" type="line" smooth="yes"/>
      <point x="286" y="40"/>
      <point x="285" y="35"/>
      <point x="285" y="30" type="curve" smooth="yes"/>
      <point x="285" y="14"/>
      <point x="299" y="0"/>
    </contour>
  </outline>
</glyph>
<glyph name="eight" format="2">
  <advance width="1183"/>
  <unicode hex="0038"/>
  <outline>
    <contour>
      <point x="592" y="-30" type="curve" smooth="yes"/>
      <point x="874" y="-30"/>
      <point x="1103" y="199"/>
      <point x="1103" y="482" type="curve" smooth="yes"/>
      <point x="1103" y="764"/>
      <point x="874" y="993"/>
      <point x="592" y="993" type="curve" smooth="yes"/>
      <point x="309" y="993"/>
      <point x="80" y="764"/>
      <point x="80" y="482" type="curve" smooth="yes"/>
      <point x="80" y="199"/>
      <point x="309" y="-30"/>
    </contour>
    <contour>
      <point x="592" y="30" type="curve" smooth="yes"/>
      <point x="334" y="30"/>
      <point x="140" y="224"/>
      <point x="140" y="482" type="curve" smooth="yes"/>
      <point x="140" y="739"/>
      <point x="334" y="933"/>
      <point x="592" y="933" type="curve" smooth="yes"/>
      <point x="849" y="933"/>
      <point x="1043" y="739"/>
      <point x="1043" y="482" type="curve" smooth="yes"/>
      <point x="1043" y="224"/>
      <point x="849" y="30"/>
    </contour>
    <contour>
      <point x="592" y="633" type="curve" smooth="yes"/>
      <point x="850" y="633"/>
      <point x="1059" y="842"/>
      <point x="1059" y="1101" type="curve" smooth="yes"/>
      <point x="1059" y="1359"/>
      <point x="850" y="1568"/>
      <point x="592" y="1568" type="curve" smooth="yes"/>
      <point x="333" y="1568"/>
      <point x="124" y="1359"/>
      <point x="124" y="1101" type="curve" smooth="yes"/>
      <point x="124" y="842"/>
      <point x="333" y="633"/>
    </contour>
    <contour>
      <point x="592" y="693" type="curve" smooth="yes"/>
      <point x="358" y="693"/>
      <point x="184" y="867"/>
      <point x="184" y="1101" type="curve" smooth="yes"/>
      <point x="184" y="1334"/>
      <point x="358" y="1508"/>
      <point x="592" y="1508" type="curve" smooth="yes"/>
      <point x="825" y="1508"/>
      <point x="999" y="1334"/>
      <point x="999" y="1101" type="curve" smooth="yes"/>
      <point x="999" y="867"/>
      <point x="825" y="693"/>
    </contour>
  </outline>
</glyph>
<glyph name="equal" format="2">
  <advance width="1250"/>
  <unicode hex="003D"/>
  <outline>
    <contour>
      <point x="102" y="856" type="curve" smooth="yes"/>
      <point x="1148" y="856" type="line" smooth="yes"/>
      <point x="1165" y="856"/>
      <point x="1178" y="869"/>
      <point x="1178" y="886" type="curve" smooth="yes"/>
      <point x="1178" y="903"/>
      <point x="1165" y="916"/>
      <point x="1148" y="916" type="curve" smooth="yes"/>
      <point x="102" y="916" type="line" smooth="yes"/>
      <point x="85" y="916"/>
      <point x="72" y="903"/>
      <point x="72" y="886" type="curve" smooth="yes"/>
      <point x="72" y="869"/>
      <point x="85" y="856"/>
    </contour>
    <contour>
      <point x="102" y="327" type="curve" smooth="yes"/>
      <point x="1148" y="327" type="line" smooth="yes"/>
      <point x="1165" y="327"/>
      <point x="1178" y="340"/>
      <point x="1178" y="357" type="curve" smooth="yes"/>
      <point x="1178" y="374"/>
      <point x="1165" y="387"/>
      <point x="1148" y="387" type="curve" smooth="yes"/>
      <point x="102" y="387" type="line" smooth="yes"/>
      <point x="85" y="387"/>
      <point x="72" y="374"/>
      <point x="72" y="357" type="curve" smooth="yes"/>
      <point x="72" y="340"/>
      <point x="85" y="327"/>
    </contour>
  </outline>
</glyph>
<glyph name="greater" format="2">
  <advance width="1250"/>
  <unicode hex="003E"/>
  <outline>
    <contour>
      <point x="163" y="173" type="curve" smooth="yes"/>
      <point x="167" y="173"/>
      <point x="171" y="174"/>
      <point x="174" y="175" type="curve" smooth="yes"/>
      <point x="1107" y="562" type="line" smooth="yes"/>
      <point x="1147" y="579"/>
      <point x="1147" y="627"/>
      <point x="1107" y="644" type="curve" smooth="yes"/>
      <point x="173" y="1032" type="line" smooth="yes"/>
      <point x="170" y="1033"/>
      <point x="166" y="1034"/>
      <point x="162" y="1034" type="curve" smooth="yes"/>
      <point x="145" y="1034"/>
      <point x="132" y="1021"/>
      <point x="132" y="1004" type="curve" smooth="yes"/>
      <point x="132" y="992"/>
      <point x="140" y="981"/>
      <point x="151" y="976" type="curve" smooth="yes"/>
      <point x="1051" y="603" type="line"/>
      <point x="152" y="231" type="line" smooth="yes"/>
      <point x="141" y="226"/>
      <point x="133" y="216"/>
      <point x="133" y="203" type="curve" smooth="yes"/>
      <point x="133" y="186"/>
      <point x="146" y="173"/>
    </contour>
  </outline>
</glyph>
<glyph name="question" format="2">
  <advance width="990"/>
  <unicode hex="003F"/>
  <outline>
    <contour>
      <point x="480" y="331" type="curve" smooth="yes"/>
      <point x="497" y="331"/>
      <point x="510" y="344"/>
      <point x="510" y="361" type="curve" smooth="yes"/>
      <point x="510" y="643" type="line"/>
      <point x="697" y="818" type="line" smooth="yes"/>
      <point x="828" y="941"/>
      <point x="898" y="1052"/>
      <point x="898" y="1190" type="curve" smooth="yes"/>
      <point x="898" y="1406"/>
      <point x="742" y="1568"/>
      <point x="528" y="1568" type="curve" smooth="yes"/>
      <point x="314" y="1568"/>
      <point x="141" y="1391"/>
      <point x="141" y="1174" type="curve" smooth="yes"/>
      <point x="141" y="1164"/>
      <point x="142" y="1156"/>
      <point x="144" y="1149" type="curve" smooth="yes"/>
      <point x="147" y="1136"/>
      <point x="159" y="1128"/>
      <point x="172" y="1128" type="curve" smooth="yes"/>
      <point x="867" y="1128" type="line" smooth="yes"/>
      <point x="884" y="1128"/>
      <point x="897" y="1141"/>
      <point x="897" y="1158" type="curve" smooth="yes"/>
      <point x="897" y="1175"/>
      <point x="884" y="1188"/>
      <point x="867" y="1188" type="curve" smooth="yes"/>
      <point x="172" y="1188" type="line"/>
      <point x="201" y="1174" type="line"/>
      <point x="201" y="1363"/>
      <point x="344" y="1508"/>
      <point x="528" y="1508" type="curve" smooth="yes"/>
      <point x="712" y="1508"/>
      <point x="838" y="1378"/>
      <point x="838" y="1190" type="curve" smooth="yes"/>
      <point x="838" y="1070"/>
      <point x="781" y="977"/>
      <point x="657" y="862" type="curve" smooth="yes"/>
      <point x="458" y="677" type="line" smooth="yes"/>
      <point x="453" y="672"/>
      <point x="450" y="665"/>
      <point x="450" y="658" type="curve" smooth="yes"/>
      <point x="450" y="361" type="line" smooth="yes"/>
      <point x="450" y="344"/>
      <point x="463" y="331"/>
    </contour>
    <component base="period" xOffset="251"/>
  </outline>
</glyph>
<glyph name="at" format="2">
  <advance width="1807"/>
  <unicode hex="0040"/>
  <outline>
    <contour>
      <point x="904" y="-54" type="curve" smooth="yes"/>
      <point x="1035" y="-54"/>
      <point x="1161" y="-23"/>
      <point x="1271" y="31" type="curve" smooth="yes"/>
      <point x="1281" y="36"/>
      <point x="1287" y="47"/>
      <point x="1287" y="58" type="curve" smooth="yes"/>
      <point x="1287" y="75"/>
      <point x="1274" y="88"/>
      <point x="1257" y="88" type="curve" smooth="yes"/>
      <point x="1253" y="88"/>
      <point x="1248" y="87"/>
      <point x="1244" y="85" type="curve" smooth="yes"/>
      <point x="1141" y="34"/>
      <point x="1028" y="6"/>
      <point x="904" y="6" type="curve" smooth="yes"/>
      <point x="476" y="6"/>
      <point x="140" y="340"/>
      <point x="140" y="767" type="curve" smooth="yes"/>
      <point x="140" y="1194"/>
      <point x="476" y="1532"/>
      <point x="904" y="1532" type="curve" smooth="yes"/>
      <point x="1331" y="1532"/>
      <point x="1667" y="1194"/>
      <point x="1667" y="767" type="curve" smooth="yes"/>
      <point x="1667" y="470"/>
      <point x="1590" y="404"/>
      <point x="1468" y="404" type="curve" smooth="yes"/>
      <point x="1384" y="404"/>
      <point x="1345" y="449"/>
      <point x="1296" y="544" type="curve" smooth="yes"/>
      <point x="939" y="1239" type="line" smooth="yes"/>
      <point x="923" y="1271"/>
      <point x="883" y="1271"/>
      <point x="867" y="1239" type="curve" smooth="yes"/>
      <point x="510" y="544" type="line" smooth="yes"/>
      <point x="508" y="540"/>
      <point x="507" y="536"/>
      <point x="507" y="531" type="curve" smooth="yes"/>
      <point x="507" y="514"/>
      <point x="520" y="501"/>
      <point x="537" y="501" type="curve" smooth="yes"/>
      <point x="548" y="501"/>
      <point x="558" y="507"/>
      <point x="563" y="517" type="curve" smooth="yes"/>
      <point x="903" y="1178" type="line"/>
      <point x="1243" y="517" type="line" smooth="yes"/>
      <point x="1296" y="414"/>
      <point x="1355" y="344"/>
      <point x="1468" y="344" type="curve" smooth="yes"/>
      <point x="1616" y="344"/>
      <point x="1727" y="438"/>
      <point x="1727" y="767" type="curve" smooth="yes"/>
      <point x="1727" y="1222"/>
      <point x="1359" y="1592"/>
      <point x="904" y="1592" type="curve" smooth="yes"/>
      <point x="448" y="1592"/>
      <point x="80" y="1222"/>
      <point x="80" y="767" type="curve" smooth="yes"/>
      <point x="80" y="312"/>
      <point x="448" y="-54"/>
    </contour>
    <contour>
      <point x="873" y="489" type="line" smooth="yes"/>
      <point x="888" y="466"/>
      <point x="918" y="466"/>
      <point x="933" y="489" type="curve" smooth="yes"/>
      <point x="1138" y="792" type="line" smooth="yes"/>
      <point x="1141" y="797"/>
      <point x="1143" y="802"/>
      <point x="1143" y="809" type="curve" smooth="yes"/>
      <point x="1143" y="825"/>
      <point x="1130" y="839"/>
      <point x="1113" y="839" type="curve" smooth="yes"/>
      <point x="1103" y="839"/>
      <point x="1093" y="833"/>
      <point x="1088" y="825" type="curve" smooth="yes"/>
      <point x="903" y="551" type="line"/>
      <point x="719" y="825" type="line" smooth="yes"/>
      <point x="714" y="833"/>
      <point x="704" y="839"/>
      <point x="694" y="839" type="curve" smooth="yes"/>
      <point x="677" y="839"/>
      <point x="664" y="825"/>
      <point x="664" y="809" type="curve" smooth="yes"/>
      <point x="664" y="802"/>
      <point x="666" y="797"/>
      <point x="669" y="792" type="curve" smooth="yes"/>
    </contour>
  </outline>
</glyph>
<glyph name="A" format="2">
  <advance width="1700"/>
  <unicode hex="0041"/>
  <anchor x="852" y="0" name="bottom"/>
  <anchor x="1599" y="15" name="ogonek"/>
  <anchor x="852" y="1538" name="top"/>
  <outline>
    <contour>
      <point x="70" y="0" type="curve" smooth="yes"/>
      <point x="82" y="0"/>
      <point x="92" y="6"/>
      <point x="97" y="16" type="curve" smooth="yes"/>
      <point x="849" y="1482" type="line"/>
      <point x="1603" y="16" type="line" smooth="yes"/>
      <point x="1608" y="6"/>
      <point x="1618" y="0"/>
      <point x="1630" y="0" type="curve" smooth="yes"/>
      <point x="1646" y="0"/>
      <point x="1660" y="13"/>
      <point x="1660" y="30" type="curve" smooth="yes"/>
      <point x="1660" y="35"/>
      <point x="1659" y="40"/>
      <point x="1653" y="51" type="curve" smooth="yes"/>
      <point x="885" y="1544" type="line" smooth="yes"/>
      <point x="869" y="1576"/>
      <point x="829" y="1576"/>
      <point x="813" y="1544" type="curve" smooth="yes"/>
      <point x="44" y="44" type="line" smooth="yes"/>
      <point x="42" y="40"/>
      <point x="40" y="35"/>
      <point x="40" y="30" type="curve" smooth="yes"/>
      <point x="40" y="13"/>
      <point x="54" y="0"/>
    </contour>
    <contour>
      <point x="819" y="17" type="line" smooth="yes"/>
      <point x="834" y="-6"/>
      <point x="864" y="-6"/>
      <point x="879" y="17" type="curve" smooth="yes"/>
      <point x="1314" y="661" type="line" smooth="yes"/>
      <point x="1317" y="665"/>
      <point x="1319" y="671"/>
      <point x="1319" y="678" type="curve" smooth="yes"/>
      <point x="1319" y="694"/>
      <point x="1305" y="708"/>
      <point x="1289" y="708" type="curve" smooth="yes"/>
      <point x="1279" y="708"/>
      <point x="1270" y="703"/>
      <point x="1264" y="695" type="curve" smooth="yes"/>
      <point x="849" y="80" type="line"/>
      <point x="438" y="691" type="line" smooth="yes"/>
      <point x="432" y="699"/>
      <point x="423" y="704"/>
      <point x="413" y="704" type="curve" smooth="yes"/>
      <point x="397" y="704"/>
      <point x="383" y="690"/>
      <point x="383" y="674" type="curve" smooth="yes"/>
      <point x="383" y="667"/>
      <point x="385" y="661"/>
      <point x="388" y="657" type="curve" smooth="yes"/>
    </contour>
  </outline>
</glyph>
<glyph name="B" format="2">
  <advance width="1344"/>
  <unicode hex="0042"/>
  <anchor x="659" y="0" name="bottom"/>
  <anchor x="659" y="769" name="center"/>
  <anchor x="659" y="1538" name="top"/>
  <outline>
    <contour>
      <point x="175" y="0" type="curve" smooth="yes"/>
      <point x="635" y="0" type="line" smooth="yes"/>
      <point x="971" y="0"/>
      <point x="1244" y="272"/>
      <point x="1244" y="609" type="curve" smooth="yes"/>
      <point x="1244" y="945"/>
      <point x="971" y="1218"/>
      <point x="635" y="1218" type="curve" smooth="yes"/>
      <point x="190" y="1218" type="line" smooth="yes"/>
      <point x="173" y="1218"/>
      <point x="160" y="1205"/>
      <point x="160" y="1188" type="curve" smooth="yes"/>
      <point x="160" y="1171"/>
      <point x="173" y="1158"/>
      <point x="190" y="1158" type="curve" smooth="yes"/>
      <point x="635" y="1158" type="line" smooth="yes"/>
      <point x="946" y="1158"/>
      <point x="1184" y="920"/>
      <point x="1184" y="609" type="curve" smooth="yes"/>
      <point x="1184" y="297"/>
      <point x="946" y="60"/>
      <point x="635" y="60" type="curve" smooth="yes"/>
      <point x="203" y="60" type="line"/>
      <point x="203" y="1478" type="line"/>
      <point x="534" y="1478" type="line" smooth="yes"/>
      <point x="788" y="1478"/>
      <point x="979" y="1287"/>
      <point x="979" y="1033" type="curve" smooth="yes"/>
      <point x="979" y="778"/>
      <point x="788" y="587"/>
      <point x="534" y="587" type="curve" smooth="yes"/>
      <point x="190" y="587" type="line" smooth="yes"/>
      <point x="173" y="587"/>
      <point x="160" y="574"/>
      <point x="160" y="557" type="curve" smooth="yes"/>
      <point x="160" y="540"/>
      <point x="173" y="527"/>
      <point x="190" y="527" type="curve" smooth="yes"/>
      <point x="534" y="527" type="line" smooth="yes"/>
      <point x="813" y="527"/>
      <point x="1039" y="753"/>
      <point x="1039" y="1033" type="curve" smooth="yes"/>
      <point x="1039" y="1312"/>
      <point x="813" y="1538"/>
      <point x="534" y="1538" type="curve" smooth="yes"/>
      <point x="175" y="1538" type="line" smooth="yes"/>
      <point x="157" y="1538"/>
      <point x="143" y="1524"/>
      <point x="143" y="1506" type="curve" smooth="yes"/>
      <point x="143" y="32" type="line" smooth="yes"/>
      <point x="143" y="14"/>
      <point x="157" y="0"/>
    </contour>
  </outline>
</glyph>
<glyph name="C" format="2">
  <advance width="1546"/>
  <unicode hex="0043"/>
  <anchor x="825" y="-9" name="bottom"/>
  <anchor x="899" y="1542" name="top"/>
  <outline>
    <contour>
      <point x="900" y="-30" type="curve" smooth="yes"/>
      <point x="1102" y="-30"/>
      <point x="1286" y="44"/>
      <point x="1426" y="167" type="curve" smooth="yes"/>
      <point x="1433" y="173"/>
      <point x="1436" y="181"/>
      <point x="1436" y="190" type="curve" smooth="yes"/>
      <point x="1436" y="206"/>
      <point x="1423" y="220"/>
      <point x="1406" y="220" type="curve" smooth="yes"/>
      <point x="1399" y="220"/>
      <point x="1392" y="217"/>
      <point x="1387" y="212" type="curve" smooth="yes"/>
      <point x="1255" y="96"/>
      <point x="1090" y="30"/>
      <point x="900" y="30" type="curve" smooth="yes"/>
      <point x="482" y="30"/>
      <point x="160" y="350"/>
      <point x="160" y="767" type="curve" smooth="yes"/>
      <point x="160" y="1184"/>
      <point x="482" y="1508"/>
      <point x="900" y="1508" type="curve" smooth="yes"/>
      <point x="1100" y="1508"/>
      <point x="1272" y="1434"/>
      <point x="1406" y="1307" type="curve" smooth="yes"/>
      <point x="1411" y="1302"/>
      <point x="1418" y="1299"/>
      <point x="1426" y="1299" type="curve" smooth="yes"/>
      <point x="1443" y="1299"/>
      <point x="1456" y="1312"/>
      <point x="1456" y="1329" type="curve" smooth="yes"/>
      <point x="1456" y="1337"/>
      <point x="1453" y="1345"/>
      <point x="1447" y="1351" type="curve" smooth="yes"/>
      <point x="1305" y="1485"/>
      <point x="1112" y="1568"/>
      <point x="900" y="1568" type="curve" smooth="yes"/>
      <point x="457" y="1568"/>
      <point x="100" y="1209"/>
      <point x="100" y="767" type="curve" smooth="yes"/>
      <point x="100" y="325"/>
      <point x="457" y="-30"/>
    </contour>
  </outline>
</glyph>
<glyph name="D" format="2">
  <advance width="1347"/>
  <unicode hex="0044"/>
  <anchor x="631" y="0" name="bottom"/>
  <anchor x="631" y="769" name="center"/>
  <anchor x="564" y="1538" name="top"/>
  <outline>
    <contour>
      <point x="172" y="0" type="curve" smooth="yes"/>
      <point x="540" y="0" type="line" smooth="yes"/>
      <point x="960" y="0"/>
      <point x="1247" y="303"/>
      <point x="1247" y="769" type="curve" smooth="yes"/>
      <point x="1247" y="1233"/>
      <point x="960" y="1538"/>
      <point x="540" y="1538" type="curve" smooth="yes"/>
      <point x="172" y="1538" type="line" smooth="yes"/>
      <point x="154" y="1538"/>
      <point x="140" y="1524"/>
      <point x="140" y="1506" type="curve" smooth="yes"/>
      <point x="140" y="32" type="line" smooth="yes"/>
      <point x="140" y="14"/>
      <point x="154" y="0"/>
    </contour>
    <contour>
      <point x="200" y="60" type="line"/>
      <point x="200" y="1478" type="line"/>
      <point x="540" y="1478" type="line" smooth="yes"/>
      <point x="934" y="1478"/>
      <point x="1187" y="1209"/>
      <point x="1187" y="769" type="curve" smooth="yes"/>
      <point x="1187" y="327"/>
      <point x="934" y="60"/>
      <point x="540" y="60" type="curve" smooth="yes"/>
    </contour>
  </outline>
</glyph>
<glyph name="E" format="2">
  <advance width="1283"/>
  <unicode hex="0045"/>
  <anchor x="583" y="0" name="bottom"/>
  <anchor x="1013" y="10" name="ogonek"/>
  <anchor x="662" y="1538" name="top"/>
  <anchor x="20" y="1538" name="topleft"/>
  <outline>
    <contour>
      <point x="172" y="0" type="curve" smooth="yes"/>
      <point x="1133" y="0" type="line" smooth="yes"/>
      <point x="1150" y="0"/>
      <point x="1163" y="13"/>
      <point x="1163" y="30" type="curve" smooth="yes"/>
      <point x="1163" y="47"/>
      <point x="1150" y="60"/>
      <point x="1133" y="60" type="curve" smooth="yes"/>
      <point x="200" y="60" type="line"/>
      <point x="200" y="1478" type="line"/>
      <point x="1048" y="1478" type="line"/>
      <point x="143" y="573" type="line"/>
      <point x="143" y="575" type="line"/>
      <point x="1093" y="575" type="line" smooth="yes"/>
      <point x="1110" y="575"/>
      <point x="1123" y="588"/>
      <point x="1123" y="605" type="curve" smooth="yes"/>
      <point x="1123" y="622"/>
      <point x="1110" y="635"/>
      <point x="1093" y="635" type="curve" smooth="yes"/>
      <point x="289" y="635" type="line"/>
      <point x="1116" y="1462" type="line" smooth="yes"/>
      <point x="1147" y="1493"/>
      <point x="1127" y="1538"/>
      <point x="1084" y="1538" type="curve" smooth="yes"/>
      <point x="172" y="1538" type="line" smooth="yes"/>
      <point x="154" y="1538"/>
      <point x="140" y="1524"/>
      <point x="140" y="1506" type="curve" smooth="yes"/>
      <point x="140" y="32" type="line" smooth="yes"/>
      <point x="140" y="14"/>
      <point x="154" y="0"/>
    </contour>
  </outline>
</glyph>
<glyph name="F" format="2">
  <advance width="1251"/>
  <unicode hex="0046"/>
  <anchor x="616" y="0" name="bottom"/>
  <anchor x="616" y="1538" name="top"/>
  <outline>
    <contour>
      <point x="170" y="-3" type="curve" smooth="yes"/>
      <point x="187" y="-3"/>
      <point x="200" y="10"/>
      <point x="200" y="27" type="curve" smooth="yes"/>
      <point x="200" y="1478" type="line"/>
      <point x="1048" y="1478" type="line"/>
      <point x="144" y="574" type="line"/>
      <point x="144" y="578" type="line"/>
      <point x="1095" y="578" type="line" smooth="yes"/>
      <point x="1112" y="578"/>
      <point x="1125" y="591"/>
      <point x="1125" y="608" type="curve" smooth="yes"/>
      <point x="1125" y="625"/>
      <point x="1112" y="638"/>
      <point x="1095" y="638" type="curve" smooth="yes"/>
      <point x="292" y="638" type="line"/>
      <point x="1116" y="1462" type="line" smooth="yes"/>
      <point x="1147" y="1493"/>
      <point x="1127" y="1538"/>
      <point x="1084" y="1538" type="curve" smooth="yes"/>
      <point x="172" y="1538" type="line" smooth="yes"/>
      <point x="154" y="1538"/>
      <point x="140" y="1524"/>
      <point x="140" y="1506" type="curve" smooth="yes"/>
      <point x="140" y="27" type="line" smooth="yes"/>
      <point x="140" y="10"/>
      <point x="153" y="-3"/>
    </contour>
  </outline>
</glyph>
<glyph name="G" format="2">
  <advance width="1798"/>
  <unicode hex="0047"/>
  <anchor x="899" y="0" name="bottom"/>
  <anchor x="899" y="1538" name="top"/>
  <outline>
    <contour>
      <point x="900" y="-30" type="curve" smooth="yes"/>
      <point x="1329" y="-30"/>
      <point x="1678" y="304"/>
      <point x="1698" y="728" type="curve" smooth="yes"/>
      <point x="1699" y="745"/>
      <point x="1685" y="759"/>
      <point x="1668" y="759" type="curve" smooth="yes"/>
      <point x="1652" y="759"/>
      <point x="1639" y="747"/>
      <point x="1638" y="731" type="curve" smooth="yes"/>
      <point x="1620" y="331"/>
      <point x="1305" y="30"/>
      <point x="900" y="30" type="curve" smooth="yes"/>
      <point x="482" y="30"/>
      <point x="160" y="350"/>
      <point x="160" y="767" type="curve" smooth="yes"/>
      <point x="160" y="1184"/>
      <point x="482" y="1508"/>
      <point x="900" y="1508" type="curve" smooth="yes"/>
      <point x="1100" y="1508"/>
      <point x="1272" y="1434"/>
      <point x="1406" y="1307" type="curve" smooth="yes"/>
      <point x="1411" y="1302"/>
      <point x="1418" y="1299"/>
      <point x="1426" y="1299" type="curve" smooth="yes"/>
      <point x="1443" y="1299"/>
      <point x="1456" y="1312"/>
      <point x="1456" y="1329" type="curve" smooth="yes"/>
      <point x="1456" y="1337"/>
      <point x="1453" y="1345"/>
      <point x="1447" y="1351" type="curve" smooth="yes"/>
      <point x="1305" y="1485"/>
      <point x="1112" y="1568"/>
      <point x="900" y="1568" type="curve" smooth="yes"/>
      <point x="457" y="1568"/>
      <point x="100" y="1209"/>
      <point x="100" y="767" type="curve" smooth="yes"/>
      <point x="100" y="325"/>
      <point x="457" y="-30"/>
    </contour>
    <contour>
      <point x="1581" y="13" type="curve" smooth="yes"/>
      <point x="1598" y="13"/>
      <point x="1611" y="27"/>
      <point x="1611" y="43" type="curve" smooth="yes"/>
      <point x="1611" y="52"/>
      <point x="1608" y="59"/>
      <point x="1602" y="65" type="curve" smooth="yes"/>
      <point x="968" y="699" type="line"/>
      <point x="1667" y="699" type="line" smooth="yes"/>
      <point x="1684" y="699"/>
      <point x="1697" y="712"/>
      <point x="1697" y="729" type="curve" smooth="yes"/>
      <point x="1697" y="746"/>
      <point x="1684" y="759"/>
      <point x="1667" y="759" type="curve" smooth="yes"/>
      <point x="931" y="759" type="line" smooth="yes"/>
      <point x="888" y="759"/>
      <point x="868" y="714"/>
      <point x="899" y="683" type="curve" smooth="yes"/>
      <point x="1560" y="22" type="line" smooth="yes"/>
      <point x="1565" y="17"/>
      <point x="1573" y="13"/>
    </contour>
  </outline>
</glyph>
<glyph name="H" format="2">
  <advance width="1371"/>
  <unicode hex="0048"/>
  <anchor x="686" y="0" name="bottom"/>
  <anchor x="686" y="769" name="center"/>
  <anchor x="686" y="1538" name="top"/>
  <anchor x="20" y="1538" name="topleft"/>
  <outline>
    <contour>
      <point x="160" y="562" type="line"/>
      <point x="1207" y="562" type="line"/>
      <point x="1207" y="628" type="line"/>
      <point x="708" y="1128" type="line" smooth="yes"/>
      <point x="695" y="1141"/>
      <point x="677" y="1141"/>
      <point x="664" y="1128" type="curve" smooth="yes"/>
      <point x="160" y="624" type="line"/>
    </contour>
    <contour>
      <point x="170" y="-3" type="curve" smooth="yes"/>
      <point x="187" y="-3"/>
      <point x="200" y="10"/>
      <point x="200" y="27" type="curve" smooth="yes"/>
      <point x="200" y="1511" type="line" smooth="yes"/>
      <point x="200" y="1528"/>
      <point x="187" y="1541"/>
      <point x="170" y="1541" type="curve" smooth="yes"/>
      <point x="153" y="1541"/>
      <point x="140" y="1528"/>
      <point x="140" y="1511" type="curve" smooth="yes"/>
      <point x="140" y="27" type="line" smooth="yes"/>
      <point x="140" y="10"/>
      <point x="153" y="-3"/>
    </contour>
    <contour>
      <point x="242" y="622" type="line"/>
      <point x="686" y="1066" type="line"/>
      <point x="1129" y="622" type="line"/>
    </contour>
    <contour>
      <point x="1201" y="-3" type="curve" smooth="yes"/>
      <point x="1218" y="-3"/>
      <point x="1231" y="10"/>
      <point x="1231" y="27" type="curve" smooth="yes"/>
      <point x="1231" y="1511" type="line" smooth="yes"/>
      <point x="1231" y="1528"/>
      <point x="1218" y="1541"/>
      <point x="1201" y="1541" type="curve" smooth="yes"/>
      <point x="1184" y="1541"/>
      <point x="1171" y="1528"/>
      <point x="1171" y="1511" type="curve" smooth="yes"/>
      <point x="1171" y="27" type="line" smooth="yes"/>
      <point x="1171" y="10"/>
      <point x="1184" y="-3"/>
    </contour>
  </outline>
</glyph>
<glyph name="I" format="2">
  <advance width="827"/>
  <unicode hex="0049"/>
  <anchor x="413" y="0" name="bottom"/>
  <anchor x="620" y="18" name="ogonek"/>
  <anchor x="413" y="1538" name="top"/>
  <anchor x="27" y="1538" name="topleft"/>
  <outline>
    <contour>
      <point x="413" y="27" type="curve" smooth="yes"/>
      <point x="430" y="27"/>
      <point x="443" y="40"/>
      <point x="443" y="57" type="curve" smooth="yes"/>
      <point x="443" y="1481" type="line" smooth="yes"/>
      <point x="443" y="1498"/>
      <point x="430" y="1511"/>
      <point x="413" y="1511" type="curve" smooth="yes"/>
      <point x="396" y="1511"/>
      <point x="383" y="1498"/>
      <point x="383" y="1481" type="curve" smooth="yes"/>
      <point x="383" y="57" type="line" smooth="yes"/>
      <point x="383" y="40"/>
      <point x="396" y="27"/>
    </contour>
    <contour>
      <point x="170" y="0" type="curve" smooth="yes"/>
      <point x="657" y="0" type="line" smooth="yes"/>
      <point x="674" y="0"/>
      <point x="687" y="13"/>
      <point x="687" y="30" type="curve" smooth="yes"/>
      <point x="687" y="47"/>
      <point x="674" y="60"/>
      <point x="657" y="60" type="curve" smooth="yes"/>
      <point x="170" y="60" type="line" smooth="yes"/>
      <point x="153" y="60"/>
      <point x="140" y="47"/>
      <point x="140" y="30" type="curve" smooth="yes"/>
      <point x="140" y="13"/>
      <point x="153" y="0"/>
    </contour>
    <contour>
      <point x="170" y="1478" type="curve" smooth="yes"/>
      <point x="657" y="1478" type="line" smooth="yes"/>
      <point x="674" y="1478"/>
      <point x="687" y="1491"/>
      <point x="687" y="1508" type="curve" smooth="yes"/>
      <point x="687" y="1525"/>
      <point x="674" y="1538"/>
      <point x="657" y="1538" type="curve" smooth="yes"/>
      <point x="170" y="1538" type="line" smooth="yes"/>
      <point x="153" y="1538"/>
      <point x="140" y="1525"/>
      <point x="140" y="1508" type="curve" smooth="yes"/>
      <point x="140" y="1491"/>
      <point x="153" y="1478"/>
    </contour>
  </outline>
</glyph>
<glyph name="J" format="2">
  <advance width="1083"/>
  <unicode hex="004A"/>
  <anchor x="519" y="0" name="bottom"/>
  <anchor x="559" y="1538" name="top"/>
  <outline>
    <contour>
      <point x="913" y="334" type="curve" smooth="yes"/>
      <point x="930" y="334"/>
      <point x="943" y="347"/>
      <point x="943" y="364" type="curve" smooth="yes"/>
      <point x="943" y="1506" type="line" smooth="yes"/>
      <point x="943" y="1524"/>
      <point x="929" y="1538"/>
      <point x="911" y="1538" type="curve" smooth="yes"/>
      <point x="174" y="1538" type="line" smooth="yes"/>
      <point x="131" y="1538"/>
      <point x="111" y="1493"/>
      <point x="142" y="1462" type="curve" smooth="yes"/>
      <point x="889" y="716" type="line" smooth="yes"/>
      <point x="895" y="710"/>
      <point x="902" y="707"/>
      <point x="910" y="707" type="curve" smooth="yes"/>
      <point x="926" y="707"/>
      <point x="940" y="721"/>
      <point x="940" y="737" type="curve" smooth="yes"/>
      <point x="940" y="745"/>
      <point x="937" y="752"/>
      <point x="931" y="758" type="curve" smooth="yes"/>
      <point x="210" y="1478" type="line"/>
      <point x="883" y="1478" type="line"/>
      <point x="883" y="364" type="line" smooth="yes"/>
      <point x="883" y="345"/>
      <point x="896" y="334"/>
    </contour>
    <contour>
      <point x="521" y="-30" type="curve" smooth="yes"/>
      <point x="744" y="-30"/>
      <point x="928" y="145"/>
      <point x="943" y="364" type="curve" smooth="yes"/>
      <point x="944" y="381"/>
      <point x="930" y="396"/>
      <point x="913" y="396" type="curve" smooth="yes"/>
      <point x="897" y="396"/>
      <point x="884" y="384"/>
      <point x="883" y="368" type="curve" smooth="yes"/>
      <point x="871" y="177"/>
      <point x="716" y="30"/>
      <point x="521" y="30" type="curve" smooth="yes"/>
      <point x="327" y="30"/>
      <point x="172" y="176"/>
      <point x="160" y="367" type="curve" smooth="yes"/>
      <point x="159" y="383"/>
      <point x="146" y="395"/>
      <point x="130" y="395" type="curve" smooth="yes"/>
      <point x="113" y="395"/>
      <point x="99" y="380"/>
      <point x="100" y="363" type="curve" smooth="yes"/>
      <point x="115" y="144"/>
      <point x="299" y="-30"/>
    </contour>
  </outline>
</glyph>
<glyph name="K" format="2">
  <advance width="1503"/>
  <unicode hex="004B"/>
  <anchor x="747" y="0" name="bottom"/>
  <anchor x="747" y="1538" name="top"/>
  <outline>
    <contour>
      <point x="170" y="0" type="curve" smooth="yes"/>
      <point x="187" y="0"/>
      <point x="200" y="13"/>
      <point x="200" y="30" type="curve" smooth="yes"/>
      <point x="200" y="1454" type="line"/>
      <point x="1380" y="11" type="line" smooth="yes"/>
      <point x="1385" y="4"/>
      <point x="1393" y="0"/>
      <point x="1403" y="0" type="curve" smooth="yes"/>
      <point x="1419" y="0"/>
      <point x="1433" y="13"/>
      <point x="1433" y="30" type="curve" smooth="yes"/>
      <point x="1433" y="37"/>
      <point x="1430" y="44"/>
      <point x="1425" y="50" type="curve" smooth="yes"/>
      <point x="225" y="1518" type="line" smooth="yes"/>
      <point x="214" y="1532"/>
      <point x="200" y="1538"/>
      <point x="186" y="1538" type="curve" smooth="yes"/>
      <point x="162" y="1538"/>
      <point x="140" y="1519"/>
      <point x="140" y="1488" type="curve" smooth="yes"/>
      <point x="140" y="30" type="line" smooth="yes"/>
      <point x="140" y="13"/>
      <point x="153" y="0"/>
    </contour>
    <contour>
      <point x="173" y="431" type="curve" smooth="yes"/>
      <point x="181" y="431"/>
      <point x="188" y="434"/>
      <point x="193" y="439" type="curve" smooth="yes"/>
      <point x="1131" y="1488" type="line" smooth="yes"/>
      <point x="1136" y="1493"/>
      <point x="1139" y="1500"/>
      <point x="1139" y="1508" type="curve" smooth="yes"/>
      <point x="1139" y="1524"/>
      <point x="1125" y="1538"/>
      <point x="1109" y="1538" type="curve" smooth="yes"/>
      <point x="1101" y="1538"/>
      <point x="1093" y="1535"/>
      <point x="1088" y="1530" type="curve" smooth="yes"/>
      <point x="150" y="481" type="line" smooth="yes"/>
      <point x="145" y="476"/>
      <point x="143" y="469"/>
      <point x="143" y="461" type="curve" smooth="yes"/>
      <point x="143" y="445"/>
      <point x="156" y="431"/>
    </contour>
  </outline>
</glyph>
<glyph name="L" format="2">
  <advance width="1136"/>
  <unicode hex="004C"/>
  <anchor x="616" y="0" name="bottom"/>
  <anchor x="517" y="769" name="center"/>
  <anchor x="517" y="1538" name="top"/>
  <anchor x="1121" y="1538" name="topright"/>
  <outline>
    <contour>
      <point x="172" y="0" type="curve" smooth="yes"/>
      <point x="1049" y="0" type="line" smooth="yes"/>
      <point x="1092" y="0"/>
      <point x="1112" y="45"/>
      <point x="1081" y="76" type="curve" smooth="yes"/>
      <point x="199" y="954" type="line" smooth="yes"/>
      <point x="193" y="960"/>
      <point x="186" y="963"/>
      <point x="178" y="963" type="curve" smooth="yes"/>
      <point x="162" y="963"/>
      <point x="148" y="949"/>
      <point x="148" y="933" type="curve" smooth="yes"/>
      <point x="148" y="925"/>
      <point x="151" y="918"/>
      <point x="157" y="912" type="curve" smooth="yes"/>
      <point x="1013" y="60" type="line"/>
      <point x="200" y="60" type="line"/>
      <point x="200" y="1508" type="line" smooth="yes"/>
      <point x="200" y="1525"/>
      <point x="187" y="1538"/>
      <point x="170" y="1538" type="curve" smooth="yes"/>
      <point x="153" y="1538"/>
      <point x="140" y="1525"/>
      <point x="140" y="1508" type="curve" smooth="yes"/>
      <point x="140" y="32" type="line" smooth="yes"/>
      <point x="140" y="14"/>
      <point x="154" y="0"/>
    </contour>
  </outline>
</glyph>
<glyph name="M" format="2">
  <advance width="1556"/>
  <unicode hex="004D"/>
  <anchor x="779" y="0" name="bottom"/>
  <anchor x="779" y="1538" name="top"/>
  <outline>
    <contour>
      <point x="1386" y="0" type="curve" smooth="yes"/>
      <point x="1403" y="0"/>
      <point x="1416" y="13"/>
      <point x="1416" y="30" type="curve" smooth="yes"/>
      <point x="1416" y="1493" type="line" smooth="yes"/>
      <point x="1416" y="1520"/>
      <point x="1397" y="1538"/>
      <point x="1376" y="1538" type="curve" smooth="yes"/>
      <point x="1366" y="1538"/>
      <point x="1355" y="1534"/>
      <point x="1346" y="1526" type="curve" smooth="yes"/>
      <point x="158" y="507" type="line" smooth="yes"/>
      <point x="152" y="502"/>
      <point x="148" y="494"/>
      <point x="148" y="485" type="curve" smooth="yes"/>
      <point x="148" y="468"/>
      <point x="161" y="455"/>
      <point x="178" y="455" type="curve" smooth="yes"/>
      <point x="185" y="455"/>
      <point x="192" y="457"/>
      <point x="199" y="463" type="curve" smooth="yes"/>
      <point x="1356" y="1456" type="line"/>
      <point x="1356" y="30" type="line" smooth="yes"/>
      <point x="1356" y="13"/>
      <point x="1369" y="0"/>
    </contour>
    <contour>
      <point x="170" y="0" type="curve" smooth="yes"/>
      <point x="187" y="0"/>
      <point x="200" y="13"/>
      <point x="200" y="30" type="curve" smooth="yes"/>
      <point x="200" y="1456" type="line"/>
      <point x="1358" y="462" type="line"/>
      <point x="1364" y="458"/>
      <point x="1371" y="455"/>
      <point x="1378" y="455" type="curve" smooth="yes"/>
      <point x="1395" y="455"/>
      <point x="1408" y="468"/>
      <point x="1408" y="485" type="curve" smooth="yes"/>
      <point x="1408" y="494"/>
      <point x="1404" y="502"/>
      <point x="1398" y="507" type="curve" smooth="yes"/>
      <point x="210" y="1526" type="line" smooth="yes"/>
      <point x="201" y="1534"/>
      <point x="190" y="1538"/>
      <point x="180" y="1538" type="curve" smooth="yes"/>
      <point x="159" y="1538"/>
      <point x="140" y="1520"/>
      <point x="140" y="1493" type="curve" smooth="yes"/>
      <point x="140" y="30" type="line" smooth="yes"/>
      <point x="140" y="13"/>
      <point x="153" y="0"/>
    </contour>
  </outline>
</glyph>
<glyph name="N" format="2">
  <advance width="1387"/>
  <unicode hex="004E"/>
  <anchor x="694" y="0" name="bottom"/>
  <anchor x="694" y="1538" name="top"/>
  <outline>
    <contour>
      <point x="172" y="0" type="curve" smooth="yes"/>
      <point x="1217" y="0" type="line"/>
      <point x="1239" y="63" type="line"/>
      <point x="233" y="1515" type="line" smooth="yes"/>
      <point x="203" y="1558"/>
      <point x="140" y="1539"/>
      <point x="140" y="1486" type="curve" smooth="yes"/>
      <point x="140" y="32" type="line" smooth="yes"/>
      <point x="140" y="14"/>
      <point x="154" y="0"/>
    </contour>
    <contour>
      <point x="200" y="60" type="line"/>
      <point x="200" y="1457" type="line"/>
      <point x="1168" y="60" type="line"/>
    </contour>
    <contour>
      <point x="1217" y="0" type="curve" smooth="yes"/>
      <point x="1234" y="0"/>
      <point x="1247" y="13"/>
      <point x="1247" y="30" type="curve" smooth="yes"/>
      <point x="1247" y="1508" type="line" smooth="yes"/>
      <point x="1247" y="1525"/>
      <point x="1234" y="1538"/>
      <point x="1217" y="1538" type="curve" smooth="yes"/>
      <point x="1200" y="1538"/>
      <point x="1187" y="1525"/>
      <point x="1187" y="1508" type="curve" smooth="yes"/>
      <point x="1187" y="30" type="line" smooth="yes"/>
      <point x="1187" y="13"/>
      <point x="1200" y="0"/>
    </contour>
  </outline>
</glyph>
<glyph name="O" format="2">
  <advance width="1799"/>
  <unicode hex="004F"/>
  <anchor x="900" y="0" name="bottom"/>
  <anchor x="900" y="769" name="center"/>
  <anchor x="1027" y="10" name="ogonek"/>
  <anchor x="900" y="1538" name="top"/>
  <anchor x="20" y="1538" name="topleft"/>
  <anchor x="1779" y="1538" name="topright"/>
  <outline>
    <contour>
      <point x="900" y="-30" type="curve" smooth="yes"/>
      <point x="1342" y="-30"/>
      <point x="1699" y="325"/>
      <point x="1699" y="767" type="curve" smooth="yes"/>
      <point x="1699" y="1209"/>
      <point x="1342" y="1568"/>
      <point x="900" y="1568" type="curve" smooth="yes"/>
      <point x="457" y="1568"/>
      <point x="100" y="1209"/>
      <point x="100" y="767" type="curve" smooth="yes"/>
      <point x="100" y="325"/>
      <point x="457" y="-30"/>
    </contour>
    <contour>
      <point x="900" y="30" type="curve" smooth="yes"/>
      <point x="482" y="30"/>
      <point x="160" y="350"/>
      <point x="160" y="767" type="curve" smooth="yes"/>
      <point x="160" y="1184"/>
      <point x="482" y="1508"/>
      <point x="900" y="1508" type="curve" smooth="yes"/>
      <point x="1317" y="1508"/>
      <point x="1639" y="1184"/>
      <point x="1639" y="767" type="curve" smooth="yes"/>
      <point x="1639" y="350"/>
      <point x="1317" y="30"/>
    </contour>
  </outline>
</glyph>
<glyph name="P" format="2">
  <advance width="1136"/>
  <unicode hex="0050"/>
  <anchor x="568" y="0" name="bottom"/>
  <anchor x="568" y="1538" name="top"/>
  <outline>
    <contour>
      <point x="170" y="-1" type="curve" smooth="yes"/>
      <point x="187" y="-1"/>
      <point x="200" y="12"/>
      <point x="200" y="29" type="curve" smooth="yes"/>
      <point x="200" y="1478" type="line"/>
      <point x="531" y="1478" type="line" smooth="yes"/>
      <point x="785" y="1478"/>
      <point x="976" y="1287"/>
      <point x="976" y="1033" type="curve" smooth="yes"/>
      <point x="976" y="778"/>
      <point x="785" y="587"/>
      <point x="531" y="587" type="curve" smooth="yes"/>
      <point x="187" y="587" type="line" smooth="yes"/>
      <point x="170" y="587"/>
      <point x="157" y="574"/>
      <point x="157" y="557" type="curve" smooth="yes"/>
      <point x="157" y="540"/>
      <point x="170" y="527"/>
      <point x="187" y="527" type="curve" smooth="yes"/>
      <point x="531" y="527" type="line" smooth="yes"/>
      <point x="810" y="527"/>
      <point x="1036" y="753"/>
      <point x="1036" y="1033" type="curve" smooth="yes"/>
      <point x="1036" y="1312"/>
      <point x="810" y="1538"/>
      <point x="531" y="1538" type="curve" smooth="yes"/>
      <point x="172" y="1538" type="line" smooth="yes"/>
      <point x="154" y="1538"/>
      <point x="140" y="1524"/>
      <point x="140" y="1506" type="curve" smooth="yes"/>
      <point x="140" y="29" type="line" smooth="yes"/>
      <point x="140" y="12"/>
      <point x="153" y="-1"/>
    </contour>
  </outline>
</glyph>
<glyph name="Q" format="2">
  <advance width="1799"/>
  <unicode hex="0051"/>
  <anchor x="900" y="0" name="bottom"/>
  <anchor x="900" y="1538" name="top"/>
  <outline>
    <contour>
      <point x="900" y="-30" type="curve" smooth="yes"/>
      <point x="1342" y="-30"/>
      <point x="1699" y="325"/>
      <point x="1699" y="767" type="curve" smooth="yes"/>
      <point x="1699" y="1209"/>
      <point x="1342" y="1568"/>
      <point x="900" y="1568" type="curve" smooth="yes"/>
      <point x="457" y="1568"/>
      <point x="100" y="1209"/>
      <point x="100" y="767" type="curve" smooth="yes"/>
      <point x="100" y="325"/>
      <point x="457" y="-30"/>
    </contour>
    <contour>
      <point x="900" y="30" type="curve" smooth="yes"/>
      <point x="743" y="30"/>
      <point x="599" y="75"/>
      <point x="481" y="154" type="curve"/>
      <point x="899" y="766" type="line"/>
      <point x="1319" y="154" type="line"/>
      <point x="1201" y="75"/>
      <point x="1057" y="30"/>
    </contour>
    <contour>
      <point x="432" y="190" type="line"/>
      <point x="265" y="323"/>
      <point x="160" y="529"/>
      <point x="160" y="767" type="curve" smooth="yes"/>
      <point x="160" y="1184"/>
      <point x="482" y="1508"/>
      <point x="900" y="1508" type="curve" smooth="yes"/>
      <point x="1317" y="1508"/>
      <point x="1639" y="1184"/>
      <point x="1639" y="767" type="curve" smooth="yes"/>
      <point x="1639" y="529"/>
      <point x="1534" y="323"/>
      <point x="1367" y="190" type="curve"/>
      <point x="929" y="829" type="line" smooth="yes"/>
      <point x="914" y="851"/>
      <point x="884" y="851"/>
      <point x="869" y="828" type="curve" smooth="yes"/>
    </contour>
  </outline>
</glyph>
<glyph name="R" format="2">
  <advance width="1324"/>
  <unicode hex="0052"/>
  <anchor x="601" y="0" name="bottom"/>
  <anchor x="531" y="1538" name="top"/>
  <outline>
    <contour>
      <point x="170" y="0" type="curve" smooth="yes"/>
      <point x="187" y="0"/>
      <point x="200" y="13"/>
      <point x="200" y="30" type="curve" smooth="yes"/>
      <point x="200" y="1478" type="line"/>
      <point x="531" y="1478" type="line" smooth="yes"/>
      <point x="785" y="1478"/>
      <point x="976" y="1287"/>
      <point x="976" y="1033" type="curve" smooth="yes"/>
      <point x="976" y="778"/>
      <point x="785" y="587"/>
      <point x="531" y="587" type="curve" smooth="yes"/>
      <point x="187" y="587" type="line" smooth="yes"/>
      <point x="170" y="587"/>
      <point x="157" y="574"/>
      <point x="157" y="557" type="curve" smooth="yes"/>
      <point x="157" y="540"/>
      <point x="170" y="527"/>
      <point x="187" y="527" type="curve" smooth="yes"/>
      <point x="531" y="527" type="line" smooth="yes"/>
      <point x="810" y="527"/>
      <point x="1036" y="753"/>
      <point x="1036" y="1033" type="curve" smooth="yes"/>
      <point x="1036" y="1312"/>
      <point x="810" y="1538"/>
      <point x="531" y="1538" type="curve" smooth="yes"/>
      <point x="171" y="1538" type="line" smooth="yes"/>
      <point x="151" y="1538"/>
      <point x="140" y="1527"/>
      <point x="140" y="1507" type="curve" smooth="yes"/>
      <point x="140" y="30" type="line" smooth="yes"/>
      <point x="140" y="13"/>
      <point x="153" y="0"/>
    </contour>
    <contour>
      <point x="1194" y="0" type="curve" smooth="yes"/>
      <point x="1210" y="0"/>
      <point x="1224" y="14"/>
      <point x="1224" y="30" type="curve" smooth="yes"/>
      <point x="1224" y="36"/>
      <point x="1222" y="42"/>
      <point x="1217" y="50" type="curve" smooth="yes"/>
      <point x="220" y="1519" type="line" smooth="yes"/>
      <point x="214" y="1527"/>
      <point x="205" y="1532"/>
      <point x="195" y="1532" type="curve" smooth="yes"/>
      <point x="178" y="1532"/>
      <point x="165" y="1518"/>
      <point x="165" y="1502" type="curve" smooth="yes"/>
      <point x="165" y="1495"/>
      <point x="167" y="1489"/>
      <point x="172" y="1482" type="curve" smooth="yes"/>
      <point x="1169" y="13" type="line" smooth="yes"/>
      <point x="1174" y="5"/>
      <point x="1183" y="0"/>
    </contour>
  </outline>
</glyph>
<glyph name="S" format="2">
  <advance width="1193"/>
  <unicode hex="0053"/>
  <anchor x="622" y="0" name="bottom"/>
  <anchor x="622" y="1538" name="top"/>
  <outline>
    <contour>
      <point x="80" y="0" type="curve" smooth="yes"/>
      <point x="1074" y="0" type="line" smooth="yes"/>
      <point x="1120" y="0"/>
      <point x="1140" y="51"/>
      <point x="1105" y="80" type="curve" smooth="yes"/>
      <point x="331" y="723" type="line" smooth="yes"/>
      <point x="217" y="818"/>
      <point x="177" y="934"/>
      <point x="177" y="1035" type="curve" smooth="yes"/>
      <point x="177" y="1284"/>
      <point x="371" y="1478"/>
      <point x="620" y="1478" type="curve" smooth="yes"/>
      <point x="984" y="1478" type="line"/>
      <point x="276" y="770" type="line" smooth="yes"/>
      <point x="270" y="764"/>
      <point x="267" y="757"/>
      <point x="267" y="749" type="curve" smooth="yes"/>
      <point x="267" y="733"/>
      <point x="281" y="719"/>
      <point x="297" y="719" type="curve" smooth="yes"/>
      <point x="305" y="719"/>
      <point x="312" y="722"/>
      <point x="318" y="728" type="curve" smooth="yes"/>
      <point x="1052" y="1462" type="line" smooth="yes"/>
      <point x="1083" y="1493"/>
      <point x="1063" y="1538"/>
      <point x="1020" y="1538" type="curve" smooth="yes"/>
      <point x="620" y="1538" type="line" smooth="yes"/>
      <point x="343" y="1538"/>
      <point x="117" y="1312"/>
      <point x="117" y="1035" type="curve" smooth="yes"/>
      <point x="117" y="920"/>
      <point x="165" y="784"/>
      <point x="291" y="679" type="curve" smooth="yes"/>
      <point x="1037" y="60" type="line"/>
      <point x="80" y="60" type="line" smooth="yes"/>
      <point x="63" y="60"/>
      <point x="50" y="47"/>
      <point x="50" y="30" type="curve" smooth="yes"/>
      <point x="50" y="13"/>
      <point x="63" y="0"/>
    </contour>
  </outline>
</glyph>
<glyph name="T" format="2">
  <advance width="1426"/>
  <unicode hex="0054"/>
  <anchor x="713" y="0" name="bottom"/>
  <anchor x="741" y="769" name="center"/>
  <anchor x="713" y="1538" name="top"/>
  <outline>
    <contour>
      <point x="100" y="1013" type="curve" smooth="yes"/>
      <point x="106" y="1013"/>
      <point x="113" y="1016"/>
      <point x="118" y="1020" type="curve" smooth="yes"/>
      <point x="713" y="1469" type="line"/>
      <point x="1308" y="1020" type="line" smooth="yes"/>
      <point x="1313" y="1016"/>
      <point x="1320" y="1013"/>
      <point x="1326" y="1013" type="curve" smooth="yes"/>
      <point x="1343" y="1013"/>
      <point x="1356" y="1027"/>
      <point x="1356" y="1043" type="curve" smooth="yes"/>
      <point x="1356" y="1053"/>
      <point x="1352" y="1062"/>
      <point x="1345" y="1067" type="curve" smooth="yes"/>
      <point x="731" y="1532" type="line" smooth="yes"/>
      <point x="721" y="1540"/>
      <point x="705" y="1540"/>
      <point x="695" y="1532" type="curve" smooth="yes"/>
      <point x="81" y="1067" type="line" smooth="yes"/>
      <point x="74" y="1062"/>
      <point x="70" y="1053"/>
      <point x="70" y="1043" type="curve" smooth="yes"/>
      <point x="70" y="1027"/>
      <point x="83" y="1013"/>
    </contour>
    <contour>
      <point x="713" y="0" type="curve" smooth="yes"/>
      <point x="730" y="0"/>
      <point x="743" y="13"/>
      <point x="743" y="30" type="curve" smooth="yes"/>
      <point x="743" y="1498" type="line" smooth="yes"/>
      <point x="743" y="1515"/>
      <point x="730" y="1528"/>
      <point x="713" y="1528" type="curve" smooth="yes"/>
      <point x="696" y="1528"/>
      <point x="683" y="1515"/>
      <point x="683" y="1498" type="curve" smooth="yes"/>
      <point x="683" y="30" type="line" smooth="yes"/>
      <point x="683" y="13"/>
      <point x="696" y="0"/>
    </contour>
  </outline>
</glyph>
<glyph name="U" format="2">
  <advance width="1369"/>
  <unicode hex="0055"/>
  <anchor x="686" y="0" name="bottom"/>
  <anchor x="791" y="10" name="ogonek"/>
  <anchor x="686" y="1538" name="top"/>
  <anchor x="1342" y="1538" name="topright"/>
  <outline>
    <contour>
      <point x="685" y="-31" type="curve" smooth="yes"/>
      <point x="985" y="-31"/>
      <point x="1229" y="192"/>
      <point x="1229" y="493" type="curve" smooth="yes"/>
      <point x="1229" y="1508" type="line" smooth="yes"/>
      <point x="1229" y="1525"/>
      <point x="1216" y="1538"/>
      <point x="1199" y="1538" type="curve" smooth="yes"/>
      <point x="1182" y="1538"/>
      <point x="1169" y="1525"/>
      <point x="1169" y="1508" type="curve" smooth="yes"/>
      <point x="1169" y="493" type="line" smooth="yes"/>
      <point x="1169" y="222"/>
      <point x="957" y="29"/>
      <point x="685" y="29" type="curve" smooth="yes"/>
      <point x="412" y="29"/>
      <point x="200" y="222"/>
      <point x="200" y="493" type="curve" smooth="yes"/>
      <point x="200" y="1508" type="line" smooth="yes"/>
      <point x="200" y="1525"/>
      <point x="187" y="1538"/>
      <point x="170" y="1538" type="curve" smooth="yes"/>
      <point x="153" y="1538"/>
      <point x="140" y="1525"/>
      <point x="140" y="1508" type="curve" smooth="yes"/>
      <point x="140" y="493" type="line" smooth="yes"/>
      <point x="140" y="192"/>
      <point x="384" y="-31"/>
    </contour>
  </outline>
</glyph>
<glyph name="V" format="2">
  <advance width="1579"/>
  <unicode hex="0056"/>
  <anchor x="789" y="-14" name="_bottom"/>
  <anchor x="789" y="1524" name="top"/>
  <outline>
    <contour>
      <point x="1482" y="1521" type="curve" smooth="yes"/>
      <point x="789" y="56" type="line"/>
      <point x="97" y="1521" type="line" smooth="yes"/>
      <point x="92" y="1531"/>
      <point x="82" y="1538"/>
      <point x="70" y="1538" type="curve" smooth="yes"/>
      <point x="53" y="1538"/>
      <point x="40" y="1525"/>
      <point x="40" y="1508" type="curve" smooth="yes"/>
      <point x="40" y="1503"/>
      <point x="41" y="1499"/>
      <point x="43" y="1495" type="curve" smooth="yes"/>
      <point x="751" y="-3" type="line" smooth="yes"/>
      <point x="760" y="-21"/>
      <point x="774" y="-30"/>
      <point x="789" y="-30" type="curve" smooth="yes"/>
      <point x="804" y="-30"/>
      <point x="819" y="-21"/>
      <point x="827" y="-3" type="curve" smooth="yes"/>
      <point x="1536" y="1495" type="line" smooth="yes"/>
      <point x="1538" y="1499"/>
      <point x="1539" y="1503"/>
      <point x="1539" y="1508" type="curve" smooth="yes"/>
      <point x="1539" y="1525"/>
      <point x="1526" y="1538"/>
      <point x="1509" y="1538" type="curve" smooth="yes"/>
      <point x="1497" y="1538"/>
      <point x="1487" y="1531"/>
    </contour>
  </outline>
</glyph>
<glyph name="X" format="2">
  <advance width="1398"/>
  <unicode hex="0058"/>
  <anchor x="697" y="0" name="bottom"/>
  <anchor x="697" y="1538" name="top"/>
  <outline>
    <contour>
      <point x="128" y="1508" type="curve" smooth="yes"/>
      <point x="128" y="1501"/>
      <point x="131" y="1495"/>
      <point x="136" y="1488" type="curve" smooth="yes"/>
      <point x="661" y="831" type="line"/>
      <point x="51" y="68" type="line" smooth="yes"/>
      <point x="26" y="37"/>
      <point x="46" y="0"/>
      <point x="84" y="0" type="curve" smooth="yes"/>
      <point x="1314" y="0" type="line" smooth="yes"/>
      <point x="1352" y="0"/>
      <point x="1371" y="37"/>
      <point x="1347" y="68" type="curve" smooth="yes"/>
      <point x="737" y="831" type="line"/>
      <point x="1264" y="1489" type="line" smooth="yes"/>
      <point x="1268" y="1494"/>
      <point x="1270" y="1501"/>
      <point x="1270" y="1508" type="curve" smooth="yes"/>
      <point x="1270" y="1524"/>
      <point x="1257" y="1538"/>
      <point x="1240" y="1538" type="curve" smooth="yes"/>
      <point x="1231" y="1538"/>
      <point x="1222" y="1534"/>
      <point x="1217" y="1527" type="curve" smooth="yes"/>
      <point x="699" y="879" type="line"/>
      <point x="181" y="1527" type="line" smooth="yes"/>
      <point x="176" y="1534"/>
      <point x="167" y="1538"/>
      <point x="158" y="1538" type="curve" smooth="yes"/>
      <point x="141" y="1538"/>
      <point x="128" y="1524"/>
    </contour>
    <contour>
      <point x="121" y="60" type="line"/>
      <point x="699" y="783" type="line"/>
      <point x="1277" y="60" type="line"/>
    </contour>
  </outline>
</glyph>
<glyph name="Y" format="2">
  <advance width="1514"/>
  <unicode hex="0059"/>
  <anchor x="757" y="0" name="bottom"/>
  <anchor x="757" y="1538" name="top"/>
  <anchor x="757" y="1538" name="topleft"/>
  <outline>
    <contour>
      <point x="757" y="662" type="line"/>
      <point x="1462" y="1467" type="line" smooth="yes"/>
      <point x="1489" y="1497"/>
      <point x="1469" y="1538"/>
      <point x="1429" y="1538" type="curve" smooth="yes"/>
      <point x="85" y="1538" type="line" smooth="yes"/>
      <point x="45" y="1538"/>
      <point x="25" y="1497"/>
      <point x="52" y="1467" type="curve" smooth="yes"/>
    </contour>
    <contour>
      <point x="757" y="0" type="curve" smooth="yes"/>
      <point x="774" y="0"/>
      <point x="787" y="13"/>
      <point x="787" y="30" type="curve" smooth="yes"/>
      <point x="787" y="711" type="line" smooth="yes"/>
      <point x="787" y="728"/>
      <point x="774" y="741"/>
      <point x="757" y="741" type="curve" smooth="yes"/>
      <point x="740" y="741"/>
      <point x="727" y="728"/>
      <point x="727" y="711" type="curve" smooth="yes"/>
      <point x="727" y="30" type="line" smooth="yes"/>
      <point x="727" y="13"/>
      <point x="740" y="0"/>
    </contour>
    <contour>
      <point x="757" y="754" type="line"/>
      <point x="122" y="1478" type="line"/>
      <point x="1392" y="1478" type="line"/>
    </contour>
  </outline>
</glyph>
<glyph name="Z" format="2">
  <advance width="1307"/>
  <unicode hex="005A"/>
  <anchor x="667" y="0" name="bottom"/>
  <anchor x="667" y="769" name="center"/>
  <anchor x="667" y="1538" name="top"/>
  <outline>
    <contour>
      <point x="84" y="0" type="curve" smooth="yes"/>
      <point x="1237" y="0" type="line" smooth="yes"/>
      <point x="1254" y="0"/>
      <point x="1267" y="13"/>
      <point x="1267" y="30" type="curve" smooth="yes"/>
      <point x="1267" y="47"/>
      <point x="1254" y="60"/>
      <point x="1237" y="60" type="curve" smooth="yes"/>
      <point x="122" y="60" type="line"/>
      <point x="1243" y="1470" type="line" smooth="yes"/>
      <point x="1267" y="1500"/>
      <point x="1248" y="1538"/>
      <point x="1210" y="1538" type="curve" smooth="yes"/>
      <point x="142" y="1538" type="line" smooth="yes"/>
      <point x="104" y="1538"/>
      <point x="84" y="1501"/>
      <point x="109" y="1470" type="curve" smooth="yes"/>
      <point x="639" y="808" type="line"/>
      <point x="51" y="68" type="line" smooth="yes"/>
      <point x="27" y="38"/>
      <point x="46" y="0"/>
    </contour>
    <contour>
      <point x="677" y="856" type="line"/>
      <point x="180" y="1478" type="line"/>
      <point x="1172" y="1478" type="line"/>
    </contour>
  </outline>
</glyph>
<glyph name="bracketleft" format="2">
  <advance width="574"/>
  <unicode hex="005B"/>
  <outline>
    <contour>
      <point x="132" y="-60" type="curve" smooth="yes"/>
      <point x="374" y="-60" type="line" smooth="yes"/>
      <point x="391" y="-60"/>
      <point x="404" y="-47"/>
      <point x="404" y="-30" type="curve" smooth="yes"/>
      <point x="404" y="-13"/>
      <point x="391" y="0"/>
      <point x="374" y="0" type="curve" smooth="yes"/>
      <point x="160" y="0" type="line"/>
      <point x="160" y="1538" type="line"/>
      <point x="374" y="1538" type="line" smooth="yes"/>
      <point x="391" y="1538"/>
      <point x="404" y="1551"/>
      <point x="404" y="1568" type="curve" smooth="yes"/>
      <point x="404" y="1585"/>
      <point x="391" y="1598"/>
      <point x="374" y="1598" type="curve" smooth="yes"/>
      <point x="132" y="1598" type="line" smooth="yes"/>
      <point x="114" y="1598"/>
      <point x="100" y="1584"/>
      <point x="100" y="1566" type="curve" smooth="yes"/>
      <point x="100" y="-28" type="line" smooth="yes"/>
      <point x="100" y="-46"/>
      <point x="114" y="-60"/>
    </contour>
  </outline>
</glyph>
<glyph name="asciicircum" format="2">
  <advance width="1250"/>
  <unicode hex="005E"/>
  <outline>
    <contour>
      <point x="315" y="801" type="curve" smooth="yes"/>
      <point x="327" y="801"/>
      <point x="337" y="808"/>
      <point x="342" y="818" type="curve" smooth="yes"/>
      <point x="625" y="1405" type="line"/>
      <point x="908" y="818" type="line" smooth="yes"/>
      <point x="913" y="808"/>
      <point x="923" y="801"/>
      <point x="935" y="801" type="curve" smooth="yes"/>
      <point x="952" y="801"/>
      <point x="965" y="814"/>
      <point x="965" y="831" type="curve" smooth="yes"/>
      <point x="965" y="836"/>
      <point x="964" y="840"/>
      <point x="962" y="844" type="curve" smooth="yes"/>
      <point x="663" y="1465" type="line" smooth="yes"/>
      <point x="646" y="1499"/>
      <point x="604" y="1499"/>
      <point x="587" y="1465" type="curve" smooth="yes"/>
      <point x="288" y="844" type="line" smooth="yes"/>
      <point x="286" y="840"/>
      <point x="285" y="836"/>
      <point x="285" y="831" type="curve" smooth="yes"/>
      <point x="285" y="814"/>
      <point x="298" y="801"/>
    </contour>
  </outline>
</glyph>
<glyph name="underscore" format="2">
  <advance width="973"/>
  <unicode hex="005F"/>
  <outline>
    <contour>
      <point x="50" y="-60" type="curve" smooth="yes"/>
      <point x="923" y="-60" type="line" smooth="yes"/>
      <point x="940" y="-60"/>
      <point x="953" y="-47"/>
      <point x="953" y="-30" type="curve" smooth="yes"/>
      <point x="953" y="-13"/>
      <point x="940" y="0"/>
      <point x="923" y="0" type="curve" smooth="yes"/>
      <point x="50" y="0" type="line" smooth="yes"/>
      <point x="33" y="0"/>
      <point x="20" y="-13"/>
      <point x="20" y="-30" type="curve" smooth="yes"/>
      <point x="20" y="-47"/>
      <point x="33" y="-60"/>
    </contour>
  </outline>
</glyph>
<glyph name="braceleft" format="2">
  <advance width="565"/>
  <unicode hex="007B"/>
  <outline>
    <contour>
      <point x="130" y="745" type="curve" smooth="yes"/>
      <point x="377" y="745"/>
      <point x="395" y="865"/>
      <point x="395" y="955" type="curve" smooth="yes"/>
      <point x="395" y="1580" type="line" smooth="yes"/>
      <point x="395" y="1597"/>
      <point x="382" y="1610"/>
      <point x="365" y="1610" type="curve" smooth="yes"/>
      <point x="348" y="1610"/>
      <point x="335" y="1597"/>
      <point x="335" y="1580" type="curve" smooth="yes"/>
      <point x="335" y="955" type="line" smooth="yes"/>
      <point x="335" y="873"/>
      <point x="324" y="805"/>
      <point x="130" y="805" type="curve" smooth="yes"/>
      <point x="113" y="805"/>
      <point x="100" y="792"/>
      <point x="100" y="775" type="curve" smooth="yes"/>
      <point x="100" y="758"/>
      <point x="113" y="745"/>
    </contour>
    <contour>
      <point x="365" y="-60" type="curve" smooth="yes"/>
      <point x="382" y="-60"/>
      <point x="395" y="-47"/>
      <point x="395" y="-30" type="curve" smooth="yes"/>
      <point x="395" y="595" type="line" smooth="yes"/>
      <point x="395" y="685"/>
      <point x="377" y="805"/>
      <point x="130" y="805" type="curve" smooth="yes"/>
      <point x="113" y="805"/>
      <point x="100" y="792"/>
      <point x="100" y="775" type="curve" smooth="yes"/>
      <point x="100" y="758"/>
      <point x="113" y="745"/>
      <point x="130" y="745" type="curve" smooth="yes"/>
      <point x="324" y="745"/>
      <point x="335" y="677"/>
      <point x="335" y="595" type="curve" smooth="yes"/>
      <point x="335" y="-30" type="line" smooth="yes"/>
      <point x="335" y="-47"/>
      <point x="348" y="-60"/>
    </contour>
  </outline>
</glyph>
<glyph name="bar" format="2">
  <advance width="500"/>
  <unicode hex="007C"/>
  <outline>
    <contour>
      <point x="250" y="-348" type="curve" smooth="yes"/>
      <point x="267" y="-348"/>
      <point x="280" y="-335"/>
      <point x="280" y="-318" type="curve" smooth="yes"/>
      <point x="280" y="1575" type="line" smooth="yes"/>
      <point x="280" y="1592"/>
      <point x="267" y="1605"/>
      <point x="250" y="1605" type="curve" smooth="yes"/>
      <point x="233" y="1605"/>
      <point x="220" y="1592"/>
      <point x="220" y="1575" type="curve" smooth="yes"/>
      <point x="220" y="-318" type="line" smooth="yes"/>
      <point x="220" y="-335"/>
      <point x="233" y="-348"/>
    </contour>
  </outline>
</glyph>
<glyph name="asciitilde" format="2">
  <advance width="1250"/>
  <unicode hex="007E"/>
  <outline>
    <contour>
      <point x="867" y="488" type="curve" smooth="yes"/>
      <point x="1008" y="488"/>
      <point x="1150" y="569"/>
      <point x="1130" y="796" type="curve" smooth="yes"/>
      <point x="1129" y="811"/>
      <point x="1116" y="823"/>
      <point x="1100" y="823" type="curve" smooth="yes"/>
      <point x="1083" y="823"/>
      <point x="1069" y="808"/>
      <point x="1070" y="790" type="curve" smooth="yes"/>
      <point x="1086" y="603"/>
      <point x="985" y="548"/>
      <point x="867" y="548" type="curve" smooth="yes"/>
      <point x="739" y="548"/>
      <point x="682" y="646"/>
      <point x="645" y="698" type="curve" smooth="yes"/>
      <point x="627" y="722"/>
      <point x="540" y="882"/>
      <point x="353" y="882" type="curve" smooth="yes"/>
      <point x="170" y="882"/>
      <point x="83" y="702"/>
      <point x="129" y="528" type="curve" smooth="yes"/>
      <point x="132" y="515"/>
      <point x="144" y="506"/>
      <point x="158" y="506" type="curve" smooth="yes"/>
      <point x="177" y="506"/>
      <point x="192" y="525"/>
      <point x="187" y="544" type="curve" smooth="yes"/>
      <point x="148" y="691"/>
      <point x="212" y="822"/>
      <point x="353" y="822" type="curve" smooth="yes"/>
      <point x="481" y="822"/>
      <point x="535" y="748"/>
      <point x="596" y="663" type="curve" smooth="yes"/>
      <point x="655" y="581"/>
      <point x="722" y="488"/>
    </contour>
  </outline>
</glyph>
<glyph name="cent" format="2">
  <advance width="1075"/>
  <unicode hex="00A2"/>
  <outline>
    <contour>
      <point x="612" y="-49" type="curve" smooth="yes"/>
      <point x="756" y="-49"/>
      <point x="887" y="6"/>
      <point x="983" y="97" type="curve"/>
      <point x="988" y="103"/>
      <point x="992" y="110"/>
      <point x="992" y="119" type="curve" smooth="yes"/>
      <point x="992" y="136"/>
      <point x="979" y="149"/>
      <point x="962" y="149" type="curve" smooth="yes"/>
      <point x="954" y="149"/>
      <point x="947" y="146"/>
      <point x="941" y="141" type="curve" smooth="yes"/>
      <point x="854" y="59"/>
      <point x="742" y="11"/>
      <point x="612" y="11" type="curve" smooth="yes"/>
      <point x="340" y="11"/>
      <point x="130" y="220"/>
      <point x="130" y="491" type="curve" smooth="yes"/>
      <point x="130" y="762"/>
      <point x="341" y="974"/>
      <point x="612" y="974" type="curve" smooth="yes"/>
      <point x="747" y="974"/>
      <point x="866" y="920"/>
      <point x="954" y="831" type="curve" smooth="yes"/>
      <point x="959" y="825"/>
      <point x="967" y="822"/>
      <point x="975" y="822" type="curve" smooth="yes"/>
      <point x="992" y="822"/>
      <point x="1005" y="835"/>
      <point x="1005" y="852" type="curve" smooth="yes"/>
      <point x="1005" y="860"/>
      <point x="1002" y="868"/>
      <point x="996" y="873" type="curve"/>
      <point x="899" y="971"/>
      <point x="762" y="1034"/>
      <point x="612" y="1034" type="curve" smooth="yes"/>
      <point x="311" y="1034"/>
      <point x="70" y="790"/>
      <point x="70" y="491" type="curve" smooth="yes"/>
      <point x="70" y="192"/>
      <point x="312" y="-49"/>
    </contour>
    <contour>
      <point x="609" y="-311" type="curve" smooth="yes"/>
      <point x="626" y="-311"/>
      <point x="639" y="-298"/>
      <point x="639" y="-281" type="curve" smooth="yes"/>
      <point x="642" y="-19" type="line" smooth="yes"/>
      <point x="642" y="-2"/>
      <point x="629" y="11"/>
      <point x="612" y="11" type="curve" smooth="yes"/>
      <point x="595" y="11"/>
      <point x="582" y="-2"/>
      <point x="582" y="-19" type="curve" smooth="yes"/>
      <point x="579" y="-281" type="line" smooth="yes"/>
      <point x="579" y="-298"/>
      <point x="592" y="-311"/>
    </contour>
    <contour>
      <point x="609" y="974" type="curve" smooth="yes"/>
      <point x="626" y="974"/>
      <point x="639" y="987"/>
      <point x="639" y="1004" type="curve" smooth="yes"/>
      <point x="639" y="1294" type="line" smooth="yes"/>
      <point x="639" y="1311"/>
      <point x="626" y="1324"/>
      <point x="609" y="1324" type="curve" smooth="yes"/>
      <point x="592" y="1324"/>
      <point x="579" y="1311"/>
      <point x="579" y="1294" type="curve" smooth="yes"/>
      <point x="579" y="1004" type="line" smooth="yes"/>
      <point x="579" y="987"/>
      <point x="592" y="974"/>
    </contour>
  </outline>
</glyph>
<glyph name="sterling" format="2">
  <advance width="1305"/>
  <unicode hex="00A3"/>
  <outline>
    <contour>
      <point x="280" y="-67" type="curve" smooth="yes"/>
      <point x="521" y="-67"/>
      <point x="615" y="197"/>
      <point x="615" y="395" type="curve" smooth="yes"/>
      <point x="615" y="855"/>
      <point x="296" y="881"/>
      <point x="296" y="1196" type="curve" smooth="yes"/>
      <point x="296" y="1381"/>
      <point x="418" y="1508"/>
      <point x="600" y="1508" type="curve" smooth="yes"/>
      <point x="782" y="1508"/>
      <point x="921" y="1366"/>
      <point x="921" y="1180" type="curve"/>
      <point x="943" y="1200" type="line"/>
      <point x="271" y="1200" type="line" smooth="yes"/>
      <point x="254" y="1200"/>
      <point x="241" y="1187"/>
      <point x="241" y="1170" type="curve" smooth="yes"/>
      <point x="241" y="1153"/>
      <point x="254" y="1140"/>
      <point x="271" y="1140" type="curve" smooth="yes"/>
      <point x="950" y="1140" type="line" smooth="yes"/>
      <point x="973" y="1140"/>
      <point x="981" y="1158"/>
      <point x="981" y="1180" type="curve" smooth="yes"/>
      <point x="981" y="1394"/>
      <point x="810" y="1568"/>
      <point x="600" y="1568" type="curve" smooth="yes"/>
      <point x="390" y="1568"/>
      <point x="236" y="1409"/>
      <point x="236" y="1196" type="curve" smooth="yes"/>
      <point x="236" y="826"/>
      <point x="555" y="800"/>
      <point x="555" y="395" type="curve" smooth="yes"/>
      <point x="555" y="214"/>
      <point x="477" y="-7"/>
      <point x="280" y="-7" type="curve" smooth="yes"/>
      <point x="183" y="-7"/>
      <point x="110" y="66"/>
      <point x="110" y="163" type="curve" smooth="yes"/>
      <point x="110" y="260"/>
      <point x="183" y="333"/>
      <point x="280" y="333" type="curve" smooth="yes"/>
      <point x="426" y="333"/>
      <point x="518" y="200"/>
      <point x="607" y="120" type="curve" smooth="yes"/>
      <point x="693" y="42"/>
      <point x="812" y="-60"/>
      <point x="966" y="-57" type="curve" smooth="yes"/>
      <point x="1146" y="-54"/>
      <point x="1255" y="66"/>
      <point x="1255" y="453" type="curve" smooth="yes"/>
      <point x="1255" y="470"/>
      <point x="1242" y="483"/>
      <point x="1225" y="483" type="curve" smooth="yes"/>
      <point x="1208" y="483"/>
      <point x="1195" y="470"/>
      <point x="1195" y="453" type="curve" smooth="yes"/>
      <point x="1195" y="93"/>
      <point x="1115" y="6"/>
      <point x="965" y="3" type="curve" smooth="yes"/>
      <point x="834" y="0"/>
      <point x="733" y="87"/>
      <point x="647" y="165" type="curve" smooth="yes"/>
      <point x="564" y="240"/>
      <point x="457" y="393"/>
      <point x="280" y="393" type="curve" smooth="yes"/>
      <point x="153" y="393"/>
      <point x="50" y="290"/>
      <point x="50" y="163" type="curve" smooth="yes"/>
      <point x="50" y="36"/>
      <point x="153" y="-67"/>
    </contour>
    <contour>
      <point x="81" y="701" type="curve" smooth="yes"/>
      <point x="824" y="701" type="line" smooth="yes"/>
      <point x="841" y="701"/>
      <point x="854" y="714"/>
      <point x="854" y="731" type="curve" smooth="yes"/>
      <point x="854" y="748"/>
      <point x="841" y="761"/>
      <point x="824" y="761" type="curve" smooth="yes"/>
      <point x="81" y="761" type="line" smooth="yes"/>
      <point x="64" y="761"/>
      <point x="51" y="748"/>
      <point x="51" y="731" type="curve" smooth="yes"/>
      <point x="51" y="714"/>
      <point x="64" y="701"/>
    </contour>
  </outline>
</glyph>
<glyph name="currency" format="2">
  <advance width="1016"/>
  <unicode hex="00A4"/>
  <outline>
    <contour>
      <point x="208" y="376" type="curve" smooth="yes"/>
      <point x="375" y="211"/>
      <point x="641" y="211"/>
      <point x="808" y="376" type="curve" smooth="yes"/>
      <point x="973" y="543"/>
      <point x="973" y="809"/>
      <point x="808" y="976" type="curve" smooth="yes"/>
      <point x="641" y="1141"/>
      <point x="375" y="1141"/>
      <point x="208" y="976" type="curve" smooth="yes"/>
      <point x="43" y="809"/>
      <point x="43" y="543"/>
    </contour>
    <contour>
      <point x="100" y="238" type="curve" smooth="yes"/>
      <point x="109" y="238"/>
      <point x="116" y="241"/>
      <point x="122" y="246" type="curve" smooth="yes"/>
      <point x="251" y="375" type="line" smooth="yes"/>
      <point x="256" y="381"/>
      <point x="259" y="388"/>
      <point x="259" y="397" type="curve" smooth="yes"/>
      <point x="259" y="413"/>
      <point x="246" y="427"/>
      <point x="229" y="427" type="curve" smooth="yes"/>
      <point x="221" y="427"/>
      <point x="214" y="423"/>
      <point x="208" y="418" type="curve" smooth="yes"/>
      <point x="79" y="289" type="line" smooth="yes"/>
      <point x="74" y="283"/>
      <point x="70" y="276"/>
      <point x="70" y="268" type="curve" smooth="yes"/>
      <point x="70" y="251"/>
      <point x="84" y="238"/>
    </contour>
    <contour>
      <point x="916" y="238" type="curve" smooth="yes"/>
      <point x="932" y="238"/>
      <point x="946" y="251"/>
      <point x="946" y="268" type="curve" smooth="yes"/>
      <point x="946" y="276"/>
      <point x="942" y="283"/>
      <point x="937" y="289" type="curve" smooth="yes"/>
      <point x="808" y="418" type="line" smooth="yes"/>
      <point x="802" y="423"/>
      <point x="795" y="427"/>
      <point x="787" y="427" type="curve" smooth="yes"/>
      <point x="770" y="427"/>
      <point x="757" y="413"/>
      <point x="757" y="397" type="curve" smooth="yes"/>
      <point x="757" y="388"/>
      <point x="760" y="381"/>
      <point x="765" y="375" type="curve" smooth="yes"/>
      <point x="894" y="246" type="line" smooth="yes"/>
      <point x="900" y="241"/>
      <point x="907" y="238"/>
    </contour>
    <contour>
      <point x="229" y="925" type="curve" smooth="yes"/>
      <point x="245" y="925"/>
      <point x="259" y="938"/>
      <point x="259" y="955" type="curve" smooth="yes"/>
      <point x="259" y="963"/>
      <point x="255" y="970"/>
      <point x="250" y="976" type="curve" smooth="yes"/>
      <point x="121" y="1105" type="line" smooth="yes"/>
      <point x="115" y="1110"/>
      <point x="108" y="1114"/>
      <point x="100" y="1114" type="curve" smooth="yes"/>
      <point x="83" y="1114"/>
      <point x="70" y="1100"/>
      <point x="70" y="1084" type="curve" smooth="yes"/>
      <point x="70" y="1075"/>
      <point x="73" y="1068"/>
      <point x="78" y="1062" type="curve" smooth="yes"/>
      <point x="207" y="933" type="line" smooth="yes"/>
      <point x="213" y="928"/>
      <point x="220" y="925"/>
    </contour>
    <contour>
      <point x="251" y="419" type="curve" smooth="yes"/>
      <point x="106" y="565"/>
      <point x="106" y="787"/>
      <point x="251" y="933" type="curve" smooth="yes"/>
      <point x="397" y="1078"/>
      <point x="619" y="1078"/>
      <point x="765" y="933" type="curve" smooth="yes"/>
      <point x="910" y="787"/>
      <point x="910" y="565"/>
      <point x="765" y="419" type="curve" smooth="yes"/>
      <point x="619" y="274"/>
      <point x="397" y="274"/>
    </contour>
    <contour>
      <point x="787" y="925" type="curve" smooth="yes"/>
      <point x="796" y="925"/>
      <point x="803" y="928"/>
      <point x="809" y="933" type="curve" smooth="yes"/>
      <point x="938" y="1062" type="line" smooth="yes"/>
      <point x="943" y="1068"/>
      <point x="946" y="1075"/>
      <point x="946" y="1084" type="curve" smooth="yes"/>
      <point x="946" y="1100"/>
      <point x="933" y="1114"/>
      <point x="916" y="1114" type="curve" smooth="yes"/>
      <point x="908" y="1114"/>
      <point x="901" y="1110"/>
      <point x="895" y="1105" type="curve" smooth="yes"/>
      <point x="766" y="976" type="line" smooth="yes"/>
      <point x="761" y="970"/>
      <point x="757" y="963"/>
      <point x="757" y="955" type="curve" smooth="yes"/>
      <point x="757" y="938"/>
      <point x="771" y="925"/>
    </contour>
  </outline>
</glyph>
<glyph name="yen" format="2">
  <advance width="1514"/>
  <unicode hex="00A5"/>
  <anchor x="757" y="0" name="bottom"/>
  <anchor x="757" y="1538" name="top"/>
  <anchor x="757" y="1538" name="topleft"/>
  <outline>
    <contour>
      <point x="386" y="707" type="curve" smooth="yes"/>
      <point x="1129" y="707" type="line" smooth="yes"/>
      <point x="1146" y="707"/>
      <point x="1159" y="720"/>
      <point x="1159" y="737" type="curve" smooth="yes"/>
      <point x="1159" y="754"/>
      <point x="1146" y="767"/>
      <point x="1129" y="767" type="curve" smooth="yes"/>
      <point x="386" y="767" type="line" smooth="yes"/>
      <point x="369" y="767"/>
      <point x="356" y="754"/>
      <point x="356" y="737" type="curve" smooth="yes"/>
      <point x="356" y="720"/>
      <point x="369" y="707"/>
    </contour>
    <contour>
      <point x="386" y="442" type="curve" smooth="yes"/>
      <point x="1129" y="442" type="line" smooth="yes"/>
      <point x="1146" y="442"/>
      <point x="1159" y="455"/>
      <point x="1159" y="472" type="curve" smooth="yes"/>
      <point x="1159" y="489"/>
      <point x="1146" y="502"/>
      <point x="1129" y="502" type="curve" smooth="yes"/>
      <point x="386" y="502" type="line" smooth="yes"/>
      <point x="369" y="502"/>
      <point x="356" y="489"/>
      <point x="356" y="472" type="curve" smooth="yes"/>
      <point x="356" y="455"/>
      <point x="369" y="442"/>
    </contour>
    <component base="Y"/>
  </outline>
</glyph>
<glyph name="brokenbar" format="2">
  <advance width="530"/>
  <unicode hex="00A6"/>
  <outline>
    <contour>
      <point x="250" y="681" type="curve" smooth="yes"/>
      <point x="267" y="681"/>
      <point x="280" y="694"/>
      <point x="280" y="711" type="curve" smooth="yes"/>
      <point x="280" y="1575" type="line" smooth="yes"/>
      <point x="280" y="1592"/>
      <point x="267" y="1605"/>
      <point x="250" y="1605" type="curve" smooth="yes"/>
      <point x="233" y="1605"/>
      <point x="220" y="1592"/>
      <point x="220" y="1575" type="curve" smooth="yes"/>
      <point x="220" y="711" type="line" smooth="yes"/>
      <point x="220" y="694"/>
      <point x="233" y="681"/>
    </contour>
    <contour>
      <point x="250" y="-348" type="curve" smooth="yes"/>
      <point x="267" y="-348"/>
      <point x="280" y="-335"/>
      <point x="280" y="-318" type="curve" smooth="yes"/>
      <point x="280" y="546" type="line" smooth="yes"/>
      <point x="280" y="563"/>
      <point x="267" y="576"/>
      <point x="250" y="576" type="curve" smooth="yes"/>
      <point x="233" y="576"/>
      <point x="220" y="563"/>
      <point x="220" y="546" type="curve" smooth="yes"/>
      <point x="220" y="-318" type="line" smooth="yes"/>
      <point x="220" y="-335"/>
      <point x="233" y="-348"/>
    </contour>
  </outline>
</glyph>
<glyph name="section" format="2">
  <advance width="1404"/>
  <unicode hex="00A7"/>
  <outline>
    <contour>
      <point x="40" y="-351" type="curve" smooth="yes"/>
      <point x="994" y="-351" type="line" smooth="yes"/>
      <point x="1040" y="-351"/>
      <point x="1060" y="-300"/>
      <point x="1025" y="-271" type="curve" smooth="yes"/>
      <point x="251" y="372" type="line" smooth="yes"/>
      <point x="137" y="467"/>
      <point x="97" y="583"/>
      <point x="97" y="684" type="curve" smooth="yes"/>
      <point x="97" y="933"/>
      <point x="291" y="1127"/>
      <point x="540" y="1127" type="curve" smooth="yes"/>
      <point x="904" y="1127" type="line"/>
      <point x="199" y="422" type="line"/>
      <point x="193" y="417"/>
      <point x="190" y="409"/>
      <point x="190" y="401" type="curve" smooth="yes"/>
      <point x="190" y="385"/>
      <point x="204" y="371"/>
      <point x="220" y="371" type="curve" smooth="yes"/>
      <point x="228" y="371"/>
      <point x="236" y="374"/>
      <point x="241" y="380" type="curve"/>
      <point x="972" y="1111" type="line" smooth="yes"/>
      <point x="1003" y="1142"/>
      <point x="983" y="1187"/>
      <point x="940" y="1187" type="curve" smooth="yes"/>
      <point x="540" y="1187" type="line" smooth="yes"/>
      <point x="263" y="1187"/>
      <point x="37" y="961"/>
      <point x="37" y="684" type="curve" smooth="yes"/>
      <point x="37" y="569"/>
      <point x="85" y="433"/>
      <point x="211" y="328" type="curve" smooth="yes"/>
      <point x="957" y="-291" type="line"/>
      <point x="40" y="-291" type="line" smooth="yes"/>
      <point x="23" y="-291"/>
      <point x="10" y="-304"/>
      <point x="10" y="-321" type="curve" smooth="yes"/>
      <point x="10" y="-338"/>
      <point x="23" y="-351"/>
    </contour>
    <contour>
      <point x="622" y="0" type="curve" smooth="yes"/>
      <point x="1345" y="0" type="line" smooth="yes"/>
      <point x="1391" y="0"/>
      <point x="1411" y="51"/>
      <point x="1376" y="80" type="curve" smooth="yes"/>
      <point x="602" y="723" type="line" smooth="yes"/>
      <point x="488" y="818"/>
      <point x="448" y="934"/>
      <point x="448" y="1035" type="curve" smooth="yes"/>
      <point x="448" y="1284"/>
      <point x="642" y="1478"/>
      <point x="891" y="1478" type="curve" smooth="yes"/>
      <point x="1255" y="1478" type="line"/>
      <point x="550" y="773" type="line"/>
      <point x="544" y="768"/>
      <point x="541" y="760"/>
      <point x="541" y="752" type="curve" smooth="yes"/>
      <point x="541" y="736"/>
      <point x="555" y="722"/>
      <point x="571" y="722" type="curve" smooth="yes"/>
      <point x="579" y="722"/>
      <point x="587" y="725"/>
      <point x="592" y="731" type="curve"/>
      <point x="1323" y="1462" type="line" smooth="yes"/>
      <point x="1354" y="1493"/>
      <point x="1334" y="1538"/>
      <point x="1291" y="1538" type="curve" smooth="yes"/>
      <point x="891" y="1538" type="line" smooth="yes"/>
      <point x="614" y="1538"/>
      <point x="388" y="1312"/>
      <point x="388" y="1035" type="curve" smooth="yes"/>
      <point x="388" y="920"/>
      <point x="436" y="784"/>
      <point x="562" y="679" type="curve" smooth="yes"/>
      <point x="1308" y="60" type="line"/>
      <point x="622" y="60" type="line" smooth="yes"/>
      <point x="605" y="60"/>
      <point x="592" y="47"/>
      <point x="592" y="30" type="curve" smooth="yes"/>
      <point x="592" y="13"/>
      <point x="605" y="0"/>
    </contour>
  </outline>
</glyph>
<glyph name="copyright" format="2">
  <advance width="1829"/>
  <unicode hex="00A9"/>
  <anchor x="888.5" y="220.5" name="bottom"/>
  <anchor x="925.5" y="996.0" name="top"/>
  <outline>
    <contour>
      <point x="915" y="-235" type="curve" smooth="yes"/>
      <point x="1380" y="-235"/>
      <point x="1759" y="144"/>
      <point x="1759" y="610" type="curve" smooth="yes"/>
      <point x="1759" y="1075"/>
      <point x="1380" y="1454"/>
      <point x="915" y="1454" type="curve" smooth="yes"/>
      <point x="449" y="1454"/>
      <point x="70" y="1075"/>
      <point x="70" y="610" type="curve" smooth="yes"/>
      <point x="70" y="144"/>
      <point x="449" y="-235"/>
    </contour>
    <contour>
      <point x="915" y="-175" type="curve" smooth="yes"/>
      <point x="477" y="-175"/>
      <point x="130" y="172"/>
      <point x="130" y="610" type="curve" smooth="yes"/>
      <point x="130" y="1047"/>
      <point x="477" y="1394"/>
      <point x="915" y="1394" type="curve" smooth="yes"/>
      <point x="1352" y="1394"/>
      <point x="1699" y="1047"/>
      <point x="1699" y="610" type="curve" smooth="yes"/>
      <point x="1699" y="172"/>
      <point x="1352" y="-175"/>
    </contour>
    <component base="C" xScale="0.5" yScale="0.5" xOffset="476" yOffset="225"/>
  </outline>
</glyph>
<glyph name="logicalnot" format="2">
  <advance width="1250"/>
  <unicode hex="00AC"/>
  <outline>
    <contour>
      <point x="1146" y="131" type="curve" smooth="yes"/>
      <point x="1163" y="131"/>
      <point x="1176" y="144"/>
      <point x="1176" y="161" type="curve" smooth="yes"/>
      <point x="1176" y="670" type="line" smooth="yes"/>
      <point x="1176" y="688"/>
      <point x="1162" y="702"/>
      <point x="1144" y="702" type="curve" smooth="yes"/>
      <point x="100" y="702" type="line" smooth="yes"/>
      <point x="83" y="702"/>
      <point x="70" y="689"/>
      <point x="70" y="672" type="curve" smooth="yes"/>
      <point x="70" y="655"/>
      <point x="83" y="642"/>
      <point x="100" y="642" type="curve" smooth="yes"/>
      <point x="1116" y="642" type="line"/>
      <point x="1116" y="161" type="line" smooth="yes"/>
      <point x="1116" y="144"/>
      <point x="1129" y="131"/>
    </contour>
  </outline>
</glyph>
<glyph name="registered" format="2">
  <advance width="1182"/>
  <unicode hex="00AE"/>
  <anchor x="587.6439" y="837.0" name="bottom"/>
  <anchor x="566.3709" y="1304.3982" name="top"/>
  <outline>
    <contour>
      <point x="591" y="555" type="curve" smooth="yes"/>
      <point x="878" y="555"/>
      <point x="1112" y="789"/>
      <point x="1112" y="1076" type="curve" smooth="yes"/>
      <point x="1112" y="1363"/>
      <point x="878" y="1597"/>
      <point x="591" y="1597" type="curve" smooth="yes"/>
      <point x="304" y="1597"/>
      <point x="70" y="1363"/>
      <point x="70" y="1076" type="curve" smooth="yes"/>
      <point x="70" y="789"/>
      <point x="304" y="555"/>
    </contour>
    <contour>
      <point x="591" y="615" type="curve" smooth="yes"/>
      <point x="332" y="615"/>
      <point x="130" y="817"/>
      <point x="130" y="1076" type="curve" smooth="yes"/>
      <point x="130" y="1335"/>
      <point x="332" y="1537"/>
      <point x="591" y="1537" type="curve" smooth="yes"/>
      <point x="850" y="1537"/>
      <point x="1052" y="1335"/>
      <point x="1052" y="1076" type="curve" smooth="yes"/>
      <point x="1052" y="817"/>
      <point x="850" y="615"/>
    </contour>
    <component base="R" xScale="0.3039" yScale="0.3039" xOffset="405" yOffset="837"/>
  </outline>
</glyph>
<glyph name="degree" format="2">
  <advance width="819"/>
  <unicode hex="00B0"/>
  <outline>
    <contour>
      <point x="410" y="768" type="curve" smooth="yes"/>
      <point x="596" y="768"/>
      <point x="749" y="921"/>
      <point x="749" y="1108" type="curve" smooth="yes"/>
      <point x="749" y="1294"/>
      <point x="596" y="1447"/>
      <point x="410" y="1447" type="curve" smooth="yes"/>
      <point x="223" y="1447"/>
      <point x="70" y="1294"/>
      <point x="70" y="1108" type="curve" smooth="yes"/>
      <point x="70" y="921"/>
      <point x="223" y="768"/>
    </contour>
    <contour>
      <point x="410" y="828" type="curve" smooth="yes"/>
      <point x="251" y="828"/>
      <point x="130" y="949"/>
      <point x="130" y="1108" type="curve" smooth="yes"/>
      <point x="130" y="1266"/>
      <point x="251" y="1387"/>
      <point x="410" y="1387" type="curve" smooth="yes"/>
      <point x="568" y="1387"/>
      <point x="689" y="1266"/>
      <point x="689" y="1108" type="curve" smooth="yes"/>
      <point x="689" y="949"/>
      <point x="568" y="828"/>
    </contour>
  </outline>
</glyph>
<glyph name="plusminus" format="2">
  <advance width="1250"/>
  <unicode hex="00B1"/>
  <outline>
    <contour>
      <point x="100" y="642" type="curve" smooth="yes"/>
      <point x="1146" y="642" type="line" smooth="yes"/>
      <point x="1163" y="642"/>
      <point x="1176" y="655"/>
      <point x="1176" y="672" type="curve" smooth="yes"/>
      <point x="1176" y="689"/>
      <point x="1163" y="702"/>
      <point x="1146" y="702" type="curve" smooth="yes"/>
      <point x="100" y="702" type="line" smooth="yes"/>
      <point x="83" y="702"/>
      <point x="70" y="689"/>
      <point x="70" y="672" type="curve" smooth="yes"/>
      <point x="70" y="655"/>
      <point x="83" y="642"/>
    </contour>
    <contour>
      <point x="100" y="56" type="curve" smooth="yes"/>
      <point x="1146" y="56" type="line" smooth="yes"/>
      <point x="1163" y="56"/>
      <point x="1176" y="69"/>
      <point x="1176" y="86" type="curve" smooth="yes"/>
      <point x="1176" y="103"/>
      <point x="1163" y="116"/>
      <point x="1146" y="116" type="curve" smooth="yes"/>
      <point x="100" y="116" type="line" smooth="yes"/>
      <point x="83" y="116"/>
      <point x="70" y="103"/>
      <point x="70" y="86" type="curve" smooth="yes"/>
      <point x="70" y="69"/>
      <point x="83" y="56"/>
    </contour>
    <contour>
      <point x="623" y="242" type="curve" smooth="yes"/>
      <point x="640" y="242"/>
      <point x="653" y="255"/>
      <point x="653" y="272" type="curve" smooth="yes"/>
      <point x="653" y="1073" type="line" smooth="yes"/>
      <point x="653" y="1090"/>
      <point x="640" y="1103"/>
      <point x="623" y="1103" type="curve" smooth="yes"/>
      <point x="606" y="1103"/>
      <point x="593" y="1090"/>
      <point x="593" y="1073" type="curve" smooth="yes"/>
      <point x="593" y="272" type="line" smooth="yes"/>
      <point x="593" y="255"/>
      <point x="606" y="242"/>
    </contour>
  </outline>
</glyph>
<glyph name="paragraph" format="2">
  <advance width="1152"/>
  <unicode hex="00B6"/>
  <outline>
    <contour>
      <point x="705" y="-30" type="curve" smooth="yes"/>
      <point x="722" y="-30"/>
      <point x="735" y="-17"/>
      <point x="735" y="0" type="curve" smooth="yes"/>
      <point x="735" y="1506" type="line" smooth="yes"/>
      <point x="735" y="1524"/>
      <point x="721" y="1538"/>
      <point x="703" y="1538" type="curve" smooth="yes"/>
      <point x="555" y="1538" type="line" smooth="yes"/>
      <point x="276" y="1538"/>
      <point x="50" y="1312"/>
      <point x="50" y="1033" type="curve" smooth="yes"/>
      <point x="50" y="753"/>
      <point x="276" y="527"/>
      <point x="555" y="527" type="curve" smooth="yes"/>
      <point x="595" y="527" type="line" smooth="yes"/>
      <point x="612" y="527"/>
      <point x="625" y="540"/>
      <point x="625" y="557" type="curve" smooth="yes"/>
      <point x="625" y="574"/>
      <point x="612" y="587"/>
      <point x="595" y="587" type="curve" smooth="yes"/>
      <point x="555" y="587" type="line" smooth="yes"/>
      <point x="301" y="587"/>
      <point x="110" y="778"/>
      <point x="110" y="1033" type="curve" smooth="yes"/>
      <point x="110" y="1287"/>
      <point x="301" y="1478"/>
      <point x="555" y="1478" type="curve" smooth="yes"/>
      <point x="675" y="1478" type="line"/>
      <point x="675" y="0" type="line" smooth="yes"/>
      <point x="675" y="-17"/>
      <point x="688" y="-30"/>
    </contour>
    <contour>
      <point x="972" y="-30" type="curve" smooth="yes"/>
      <point x="989" y="-30"/>
      <point x="1002" y="-17"/>
      <point x="1002" y="0" type="curve" smooth="yes"/>
      <point x="1002" y="1508" type="line" smooth="yes"/>
      <point x="1002" y="1525"/>
      <point x="989" y="1538"/>
      <point x="972" y="1538" type="curve" smooth="yes"/>
      <point x="955" y="1538"/>
      <point x="942" y="1525"/>
      <point x="942" y="1508" type="curve" smooth="yes"/>
      <point x="942" y="0" type="line" smooth="yes"/>
      <point x="942" y="-17"/>
      <point x="955" y="-30"/>
    </contour>
  </outline>
</glyph>
<glyph name="onehalf" format="2">
  <advance width="1411"/>
  <unicode hex="00BD"/>
  <outline>
    <contour>
      <point x="937" y="1374" type="curve" smooth="yes"/>
      <point x="362" y="8" type="line" smooth="yes"/>
      <point x="361" y="6"/>
      <point x="361" y="4"/>
      <point x="361" y="2" type="curve" smooth="yes"/>
      <point x="361" y="-7"/>
      <point x="367" y="-17"/>
      <point x="379" y="-17" type="curve" smooth="yes"/>
      <point x="386" y="-17"/>
      <point x="393" y="-12"/>
      <point x="396" y="-6" type="curve" smooth="yes"/>
      <point x="971" y="1360" type="line" smooth="yes"/>
      <point x="972" y="1362"/>
      <point x="972" y="1365"/>
      <point x="972" y="1367" type="curve" smooth="yes"/>
      <point x="972" y="1376"/>
      <point x="965" y="1385"/>
      <point x="954" y="1385" type="curve" smooth="yes"/>
      <point x="947" y="1385"/>
      <point x="940" y="1380"/>
    </contour>
    <component base="one.numr" xOffset="15"/>
    <component base="two.dnom" xOffset="710"/>
  </outline>
</glyph>
<glyph name="threequarters" format="2">
  <advance width="1411"/>
  <unicode hex="00BE"/>
  <outline>
    <contour>
      <point x="1057" y="1374" type="curve" smooth="yes"/>
      <point x="482" y="8" type="line" smooth="yes"/>
      <point x="481" y="6"/>
      <point x="481" y="4"/>
      <point x="481" y="2" type="curve" smooth="yes"/>
      <point x="481" y="-7"/>
      <point x="487" y="-17"/>
      <point x="499" y="-17" type="curve" smooth="yes"/>
      <point x="506" y="-17"/>
      <point x="513" y="-12"/>
      <point x="516" y="-6" type="curve" smooth="yes"/>
      <point x="1091" y="1360" type="line" smooth="yes"/>
      <point x="1092" y="1362"/>
      <point x="1092" y="1365"/>
      <point x="1092" y="1367" type="curve" smooth="yes"/>
      <point x="1092" y="1376"/>
      <point x="1085" y="1385"/>
      <point x="1074" y="1385" type="curve" smooth="yes"/>
      <point x="1067" y="1385"/>
      <point x="1060" y="1380"/>
    </contour>
    <component base="three.numr" xOffset="-26"/>
    <component base="four.dnom" xOffset="721"/>
  </outline>
</glyph>
<glyph name="Eth" format="2">
  <advance width="1353"/>
  <unicode hex="00D0"/>
  <anchor x="637" y="0" name="bottom"/>
  <anchor x="637" y="769" name="center"/>
  <anchor x="570" y="1538" name="top"/>
  <outline>
    <contour>
      <point x="70" y="788" type="curve" smooth="yes"/>
      <point x="610" y="788" type="line" smooth="yes"/>
      <point x="627" y="788"/>
      <point x="640" y="801"/>
      <point x="640" y="818" type="curve" smooth="yes"/>
      <point x="640" y="835"/>
      <point x="627" y="848"/>
      <point x="610" y="848" type="curve" smooth="yes"/>
      <point x="70" y="848" type="line" smooth="yes"/>
      <point x="53" y="848"/>
      <point x="40" y="835"/>
      <point x="40" y="818" type="curve" smooth="yes"/>
      <point x="40" y="801"/>
      <point x="53" y="788"/>
    </contour>
    <component base="D" xOffset="6"/>
  </outline>
</glyph>
<glyph name="multiply" format="2">
  <advance width="1250"/>
  <unicode hex="00D7"/>
  <outline>
    <contour>
      <point x="137" y="62" type="curve" smooth="yes"/>
      <point x="120" y="62"/>
      <point x="107" y="75"/>
      <point x="107" y="92" type="curve" smooth="yes"/>
      <point x="107" y="100"/>
      <point x="110" y="108"/>
      <point x="116" y="113" type="curve"/>
      <point x="1088" y="1085" type="line"/>
      <point x="1093" y="1091"/>
      <point x="1101" y="1094"/>
      <point x="1109" y="1094" type="curve" smooth="yes"/>
      <point x="1126" y="1094"/>
      <point x="1139" y="1081"/>
      <point x="1139" y="1064" type="curve" smooth="yes"/>
      <point x="1139" y="1056"/>
      <point x="1136" y="1048"/>
      <point x="1130" y="1043" type="curve"/>
      <point x="158" y="71" type="line"/>
      <point x="153" y="65"/>
      <point x="145" y="62"/>
    </contour>
    <contour>
      <point x="1109" y="62" type="curve" smooth="yes"/>
      <point x="1101" y="62"/>
      <point x="1093" y="65"/>
      <point x="1088" y="71" type="curve"/>
      <point x="116" y="1043" type="line"/>
      <point x="110" y="1048"/>
      <point x="107" y="1056"/>
      <point x="107" y="1064" type="curve" smooth="yes"/>
      <point x="107" y="1081"/>
      <point x="120" y="1094"/>
      <point x="137" y="1094" type="curve" smooth="yes"/>
      <point x="145" y="1094"/>
      <point x="153" y="1091"/>
      <point x="158" y="1085" type="curve"/>
      <point x="1130" y="113" type="line"/>
      <point x="1136" y="108"/>
      <point x="1139" y="100"/>
      <point x="1139" y="92" type="curve" smooth="yes"/>
      <point x="1139" y="75"/>
      <point x="1126" y="62"/>
    </contour>
  </outline>
</glyph>
<glyph name="Thorn" format="2">
  <advance width="1208"/>
  <unicode hex="00DE"/>
  <outline>
    <contour>
      <point x="203" y="321" type="curve" smooth="yes"/>
      <point x="567" y="321" type="line" smooth="yes"/>
      <point x="866" y="321"/>
      <point x="1108" y="563"/>
      <point x="1108" y="863" type="curve" smooth="yes"/>
      <point x="1108" y="1162"/>
      <point x="866" y="1404"/>
      <point x="567" y="1404" type="curve" smooth="yes"/>
      <point x="203" y="1404" type="line" smooth="yes"/>
      <point x="186" y="1404"/>
      <point x="173" y="1391"/>
      <point x="173" y="1374" type="curve" smooth="yes"/>
      <point x="173" y="1357"/>
      <point x="186" y="1344"/>
      <point x="203" y="1344" type="curve" smooth="yes"/>
      <point x="567" y="1344" type="line" smooth="yes"/>
      <point x="836" y="1344"/>
      <point x="1048" y="1132"/>
      <point x="1048" y="863" type="curve" smooth="yes"/>
      <point x="1048" y="593"/>
      <point x="836" y="381"/>
      <point x="567" y="381" type="curve" smooth="yes"/>
      <point x="203" y="381" type="line" smooth="yes"/>
      <point x="186" y="381"/>
      <point x="173" y="368"/>
      <point x="173" y="351" type="curve" smooth="yes"/>
      <point x="173" y="334"/>
      <point x="186" y="321"/>
    </contour>
    <contour>
      <point x="170" y="0" type="curve" smooth="yes"/>
      <point x="187" y="0"/>
      <point x="200" y="13"/>
      <point x="200" y="30" type="curve" smooth="yes"/>
      <point x="200" y="1508" type="line" smooth="yes"/>
      <point x="200" y="1525"/>
      <point x="187" y="1538"/>
      <point x="170" y="1538" type="curve" smooth="yes"/>
      <point x="153" y="1538"/>
      <point x="140" y="1525"/>
      <point x="140" y="1508" type="curve" smooth="yes"/>
      <point x="140" y="30" type="line" smooth="yes"/>
      <point x="140" y="13"/>
      <point x="153" y="0"/>
    </contour>
  </outline>
</glyph>
<glyph name="germandbls" format="2">
  <advance width="1425"/>
  <unicode hex="00DF"/>
  <outline>
    <contour>
      <point x="170" y="0" type="curve" smooth="yes"/>
      <point x="187" y="0"/>
      <point x="200" y="13"/>
      <point x="200" y="30" type="curve" smooth="yes"/>
      <point x="200" y="1478" type="line"/>
      <point x="1073" y="1478" type="line"/>
      <point x="159" y="617" type="line" smooth="yes"/>
      <point x="153" y="612"/>
      <point x="149" y="604"/>
      <point x="149" y="595" type="curve" smooth="yes"/>
      <point x="149" y="579"/>
      <point x="163" y="565"/>
      <point x="179" y="565" type="curve" smooth="yes"/>
      <point x="187" y="565"/>
      <point x="194" y="568"/>
      <point x="200" y="574" type="curve" smooth="yes"/>
      <point x="1140" y="1459" type="line" smooth="yes"/>
      <point x="1173" y="1490"/>
      <point x="1154" y="1538"/>
      <point x="1109" y="1538" type="curve" smooth="yes"/>
      <point x="172" y="1538" type="line" smooth="yes"/>
      <point x="154" y="1538"/>
      <point x="140" y="1524"/>
      <point x="140" y="1506" type="curve" smooth="yes"/>
      <point x="140" y="30" type="line" smooth="yes"/>
      <point x="140" y="13"/>
      <point x="153" y="0"/>
    </contour>
    <contour>
      <point x="438" y="0" type="curve" smooth="yes"/>
      <point x="849" y="0" type="line" smooth="yes"/>
      <point x="1112" y="0"/>
      <point x="1325" y="213"/>
      <point x="1325" y="475" type="curve" smooth="yes"/>
      <point x="1325" y="582"/>
      <point x="1273" y="702"/>
      <point x="1160" y="810" type="curve" smooth="yes"/>
      <point x="800" y="1154" type="line" smooth="yes"/>
      <point x="795" y="1159"/>
      <point x="788" y="1163"/>
      <point x="780" y="1163" type="curve" smooth="yes"/>
      <point x="763" y="1163"/>
      <point x="750" y="1149"/>
      <point x="750" y="1133" type="curve" smooth="yes"/>
      <point x="750" y="1125"/>
      <point x="753" y="1117"/>
      <point x="758" y="1112" type="curve" smooth="yes"/>
      <point x="1118" y="767" type="line" smooth="yes"/>
      <point x="1223" y="667"/>
      <point x="1265" y="569"/>
      <point x="1265" y="475" type="curve" smooth="yes"/>
      <point x="1265" y="238"/>
      <point x="1087" y="60"/>
      <point x="849" y="60" type="curve" smooth="yes"/>
      <point x="438" y="60" type="line" smooth="yes"/>
      <point x="421" y="60"/>
      <point x="408" y="47"/>
      <point x="408" y="30" type="curve" smooth="yes"/>
      <point x="408" y="13"/>
      <point x="421" y="0"/>
    </contour>
  </outline>
</glyph>
<glyph name="divide" format="2">
  <advance width="1250"/>
  <unicode hex="00F7"/>
  <outline>
    <contour>
      <point x="102" y="548" type="curve" smooth="yes"/>
      <point x="1148" y="548" type="line" smooth="yes"/>
      <point x="1165" y="548"/>
      <point x="1178" y="561"/>
      <point x="1178" y="578" type="curve" smooth="yes"/>
      <point x="1178" y="595"/>
      <point x="1165" y="608"/>
      <point x="1148" y="608" type="curve" smooth="yes"/>
      <point x="102" y="608" type="line" smooth="yes"/>
      <point x="85" y="608"/>
      <point x="72" y="595"/>
      <point x="72" y="578" type="curve" smooth="yes"/>
      <point x="72" y="561"/>
      <point x="85" y="548"/>
    </contour>
    <contour>
      <point x="623" y="206" type="curve" smooth="yes"/>
      <point x="664" y="206"/>
      <point x="696" y="174"/>
      <point x="696" y="133" type="curve" smooth="yes"/>
      <point x="696" y="92"/>
      <point x="664" y="60"/>
      <point x="623" y="60" type="curve" smooth="yes"/>
      <point x="582" y="60"/>
      <point x="550" y="92"/>
      <point x="550" y="133" type="curve" smooth="yes"/>
      <point x="550" y="174"/>
      <point x="582" y="206"/>
    </contour>
    <contour>
      <point x="623" y="1102" type="curve" smooth="yes"/>
      <point x="664" y="1102"/>
      <point x="696" y="1070"/>
      <point x="696" y="1029" type="curve" smooth="yes"/>
      <point x="696" y="988"/>
      <point x="664" y="956"/>
      <point x="623" y="956" type="curve" smooth="yes"/>
      <point x="582" y="956"/>
      <point x="550" y="988"/>
      <point x="550" y="1029" type="curve" smooth="yes"/>
      <point x="550" y="1070"/>
      <point x="582" y="1102"/>
    </contour>
  </outline>
</glyph>
<glyph name="Hbar" format="2">
  <advance width="1395"/>
  <unicode hex="0126"/>
  <anchor x="698" y="0" name="bottom"/>
  <anchor x="698" y="769" name="center"/>
  <anchor x="698" y="1538" name="top"/>
  <anchor x="32" y="1538" name="topleft"/>
  <outline>
    <contour>
      <point x="40" y="1086" type="curve" smooth="yes"/>
      <point x="1355" y="1086" type="line" smooth="yes"/>
      <point x="1372" y="1086"/>
      <point x="1385" y="1099"/>
      <point x="1385" y="1116" type="curve" smooth="yes"/>
      <point x="1385" y="1133"/>
      <point x="1372" y="1146"/>
      <point x="1355" y="1146" type="curve" smooth="yes"/>
      <point x="40" y="1146" type="line" smooth="yes"/>
      <point x="23" y="1146"/>
      <point x="10" y="1133"/>
      <point x="10" y="1116" type="curve" smooth="yes"/>
      <point x="10" y="1099"/>
      <point x="23" y="1086"/>
    </contour>
    <component base="H" xOffset="12"/>
  </outline>
</glyph>
<glyph name="lslash" format="2">
  <advance width="1249"/>
  <unicode hex="0142"/>
  <anchor x="616" y="0" name="bottom"/>
  <anchor x="517" y="769" name="center"/>
  <anchor x="517" y="1538" name="top"/>
  <anchor x="1121" y="1538" name="topright"/>
  <outline>
    <contour>
      <point x="111" y="839" type="curve" smooth="yes"/>
      <point x="115" y="839"/>
      <point x="118" y="840"/>
      <point x="121" y="841" type="curve" smooth="yes"/>
      <point x="851" y="1089" type="line" smooth="yes"/>
      <point x="862" y="1093"/>
      <point x="871" y="1104"/>
      <point x="871" y="1117" type="curve" smooth="yes"/>
      <point x="871" y="1136"/>
      <point x="856" y="1148"/>
      <point x="841" y="1148" type="curve" smooth="yes"/>
      <point x="837" y="1148"/>
      <point x="834" y="1147"/>
      <point x="831" y="1146" type="curve" smooth="yes"/>
      <point x="101" y="898" type="line" smooth="yes"/>
      <point x="89" y="894"/>
      <point x="81" y="883"/>
      <point x="81" y="869" type="curve" smooth="yes"/>
      <point x="81" y="851"/>
      <point x="96" y="839"/>
    </contour>
    <component base="L"/>
  </outline>
</glyph>
<glyph name="eng" format="2">
  <advance width="1387"/>
  <unicode hex="014B"/>
  <anchor x="694" y="0" name="bottom"/>
  <anchor x="694" y="1538" name="top"/>
  <outline>
    <contour>
      <point x="975" y="-649" type="curve" smooth="yes"/>
      <point x="1124" y="-649"/>
      <point x="1246" y="-536"/>
      <point x="1246" y="-396" type="curve" smooth="yes"/>
      <point x="1246" y="73" type="line"/>
      <point x="1186" y="69" type="line"/>
      <point x="1186" y="-396" type="line" smooth="yes"/>
      <point x="1186" y="-506"/>
      <point x="1096" y="-589"/>
      <point x="975" y="-589" type="curve" smooth="yes"/>
      <point x="936" y="-589"/>
      <point x="902" y="-580"/>
      <point x="868" y="-563" type="curve" smooth="yes"/>
      <point x="864" y="-561"/>
      <point x="860" y="-560"/>
      <point x="855" y="-560" type="curve" smooth="yes"/>
      <point x="838" y="-560"/>
      <point x="825" y="-573"/>
      <point x="825" y="-590" type="curve" smooth="yes"/>
      <point x="825" y="-602"/>
      <point x="832" y="-612"/>
      <point x="842" y="-617" type="curve" smooth="yes"/>
      <point x="881" y="-636"/>
      <point x="927" y="-649"/>
    </contour>
    <component base="N"/>
  </outline>
</glyph>
<glyph name="Tbar" format="2">
  <advance width="1536"/>
  <unicode hex="0166"/>
  <anchor x="713" y="0" name="bottom"/>
  <anchor x="741" y="769" name="center"/>
  <anchor x="713" y="1538" name="top"/>
  <outline>
    <contour>
      <point x="381" y="623" type="curve" smooth="yes"/>
      <point x="1099" y="623" type="line" smooth="yes"/>
      <point x="1116" y="623"/>
      <point x="1129" y="636"/>
      <point x="1129" y="653" type="curve" smooth="yes"/>
      <point x="1129" y="670"/>
      <point x="1116" y="683"/>
      <point x="1099" y="683" type="curve" smooth="yes"/>
      <point x="381" y="683" type="line" smooth="yes"/>
      <point x="364" y="683"/>
      <point x="351" y="670"/>
      <point x="351" y="653" type="curve" smooth="yes"/>
      <point x="351" y="636"/>
      <point x="364" y="623"/>
    </contour>
    <component base="T"/>
  </outline>
</glyph>
<glyph name="florin" format="2">
  <advance width="1203"/>
  <unicode hex="0192"/>
  <outline>
    <contour>
      <point x="48" y="37" type="curve" smooth="yes"/>
      <point x="115" y="8"/>
      <point x="185" y="-9"/>
      <point x="250" y="-9" type="curve" smooth="yes"/>
      <point x="374" y="-9"/>
      <point x="497" y="47"/>
      <point x="526" y="202" type="curve" smooth="yes"/>
      <point x="735" y="1298" type="line" smooth="yes"/>
      <point x="759" y="1419"/>
      <point x="846" y="1461"/>
      <point x="953" y="1461" type="curve" smooth="yes"/>
      <point x="1011" y="1461"/>
      <point x="1070" y="1447"/>
      <point x="1131" y="1420" type="curve" smooth="yes"/>
      <point x="1135" y="1418"/>
      <point x="1139" y="1417"/>
      <point x="1144" y="1417" type="curve" smooth="yes"/>
      <point x="1160" y="1417"/>
      <point x="1173" y="1431"/>
      <point x="1173" y="1447" type="curve" smooth="yes"/>
      <point x="1173" y="1460"/>
      <point x="1166" y="1470"/>
      <point x="1155" y="1475" type="curve" smooth="yes"/>
      <point x="1088" y="1504"/>
      <point x="1018" y="1521"/>
      <point x="953" y="1521" type="curve" smooth="yes"/>
      <point x="829" y="1521"/>
      <point x="706" y="1464"/>
      <point x="677" y="1310" type="curve" smooth="yes"/>
      <point x="468" y="214" type="line" smooth="yes"/>
      <point x="444" y="92"/>
      <point x="357" y="51"/>
      <point x="250" y="51" type="curve" smooth="yes"/>
      <point x="192" y="51"/>
      <point x="133" y="65"/>
      <point x="72" y="92" type="curve" smooth="yes"/>
      <point x="68" y="94"/>
      <point x="64" y="95"/>
      <point x="59" y="95" type="curve" smooth="yes"/>
      <point x="43" y="95"/>
      <point x="30" y="81"/>
      <point x="30" y="65" type="curve" smooth="yes"/>
      <point x="30" y="52"/>
      <point x="37" y="42"/>
    </contour>
    <contour>
      <point x="251" y="785" type="curve" smooth="yes"/>
      <point x="1087" y="785" type="line" smooth="yes"/>
      <point x="1104" y="785"/>
      <point x="1117" y="798"/>
      <point x="1117" y="815" type="curve" smooth="yes"/>
      <point x="1117" y="832"/>
      <point x="1104" y="845"/>
      <point x="1087" y="845" type="curve" smooth="yes"/>
      <point x="251" y="845" type="line" smooth="yes"/>
      <point x="234" y="845"/>
      <point x="221" y="832"/>
      <point x="221" y="815" type="curve" smooth="yes"/>
      <point x="221" y="798"/>
      <point x="234" y="785"/>
    </contour>
  </outline>
</glyph>
<glyph name="schwa" format="2">
  <advance width="1798"/>
  <unicode hex="0259"/>
  <anchor x="899" y="0" name="bottom"/>
  <anchor x="899" y="1538" name="top"/>
  <outline>
    <contour>
      <point x="898" y="-30" type="curve" smooth="yes"/>
      <point x="1341" y="-30"/>
      <point x="1698" y="325"/>
      <point x="1698" y="767" type="curve" smooth="yes"/>
      <point x="1698" y="1209"/>
      <point x="1341" y="1568"/>
      <point x="898" y="1568" type="curve" smooth="yes"/>
      <point x="686" y="1568"/>
      <point x="493" y="1485"/>
      <point x="351" y="1351" type="curve" smooth="yes"/>
      <point x="345" y="1345"/>
      <point x="342" y="1337"/>
      <point x="342" y="1329" type="curve" smooth="yes"/>
      <point x="342" y="1312"/>
      <point x="355" y="1299"/>
      <point x="372" y="1299" type="curve" smooth="yes"/>
      <point x="380" y="1299"/>
      <point x="387" y="1302"/>
      <point x="392" y="1307" type="curve" smooth="yes"/>
      <point x="526" y="1434"/>
      <point x="698" y="1508"/>
      <point x="898" y="1508" type="curve" smooth="yes"/>
      <point x="1316" y="1508"/>
      <point x="1638" y="1184"/>
      <point x="1638" y="767" type="curve" smooth="yes"/>
      <point x="1638" y="350"/>
      <point x="1316" y="30"/>
      <point x="898" y="30" type="curve" smooth="yes"/>
      <point x="493" y="30"/>
      <point x="178" y="331"/>
      <point x="160" y="731" type="curve" smooth="yes"/>
      <point x="159" y="747"/>
      <point x="146" y="759"/>
      <point x="130" y="759" type="curve" smooth="yes"/>
      <point x="113" y="759"/>
      <point x="99" y="745"/>
      <point x="100" y="728" type="curve" smooth="yes"/>
      <point x="120" y="304"/>
      <point x="469" y="-30"/>
    </contour>
    <contour>
      <point x="1672" y="759" type="line"/>
      <point x="131" y="759" type="line" smooth="yes"/>
      <point x="114" y="759"/>
      <point x="101" y="746"/>
      <point x="101" y="729" type="curve" smooth="yes"/>
      <point x="101" y="712"/>
      <point x="114" y="699"/>
      <point x="131" y="699" type="curve" smooth="yes"/>
      <point x="1635" y="699" type="line"/>
    </contour>
  </outline>
</glyph>
<glyph name="nhookleft" format="2">
  <advance width="1387"/>
  <unicode hex="0272"/>
  <anchor x="694" y="0" name="bottom"/>
  <anchor x="694" y="1538" name="top"/>
  <outline>
    <contour>
      <point x="-71" y="-649" type="curve" smooth="yes"/>
      <point x="78" y="-649"/>
      <point x="200" y="-536"/>
      <point x="200" y="-396" type="curve" smooth="yes"/>
      <point x="200" y="73" type="line"/>
      <point x="140" y="69" type="line"/>
      <point x="140" y="-396" type="line" smooth="yes"/>
      <point x="140" y="-506"/>
      <point x="50" y="-589"/>
      <point x="-71" y="-589" type="curve" smooth="yes"/>
      <point x="-110" y="-589"/>
      <point x="-144" y="-580"/>
      <point x="-178" y="-563" type="curve" smooth="yes"/>
      <point x="-182" y="-561"/>
      <point x="-186" y="-560"/>
      <point x="-191" y="-560" type="curve" smooth="yes"/>
      <point x="-208" y="-560"/>
      <point x="-221" y="-573"/>
      <point x="-221" y="-590" type="curve" smooth="yes"/>
      <point x="-221" y="-602"/>
      <point x="-214" y="-612"/>
      <point x="-204" y="-617" type="curve" smooth="yes"/>
      <point x="-165" y="-636"/>
      <point x="-119" y="-649"/>
    </contour>
    <component base="N"/>
  </outline>
</glyph>
<glyph name="acutecomb" format="2">
  <unicode hex="0301"/>
  <anchor x="178" y="1133" name="_top"/>
  <anchor x="178" y="1535" name="top"/>
  <outline>
    <contour>
      <point x="101" y="1278" type="curve" smooth="yes"/>
      <point x="109" y="1278"/>
      <point x="116" y="1281"/>
      <point x="122" y="1287" type="curve" smooth="yes"/>
      <point x="341" y="1506" type="line" smooth="yes"/>
      <point x="347" y="1512"/>
      <point x="350" y="1519"/>
      <point x="350" y="1527" type="curve" smooth="yes"/>
      <point x="350" y="1544"/>
      <point x="337" y="1557"/>
      <point x="320" y="1557" type="curve" smooth="yes"/>
      <point x="312" y="1557"/>
      <point x="305" y="1554"/>
      <point x="299" y="1548" type="curve" smooth="yes"/>
      <point x="80" y="1329" type="line" smooth="yes"/>
      <point x="74" y="1323"/>
      <point x="71" y="1316"/>
      <point x="71" y="1308" type="curve" smooth="yes"/>
      <point x="71" y="1291"/>
      <point x="84" y="1278"/>
    </contour>
    <contour>
      <point x="101" y="1278" type="curve" smooth="yes"/>
      <point x="118" y="1278"/>
      <point x="130" y="1291"/>
      <point x="130" y="1308" type="curve" smooth="yes"/>
      <point x="130" y="1527" type="line" smooth="yes"/>
      <point x="130" y="1544"/>
      <point x="117" y="1557"/>
      <point x="100" y="1557" type="curve" smooth="yes"/>
      <point x="83" y="1557"/>
      <point x="70" y="1544"/>
      <point x="70" y="1527" type="curve" smooth="yes"/>
      <point x="70" y="1308" type="line" smooth="yes"/>
      <point x="70" y="1291"/>
      <point x="84" y="1278"/>
    </contour>
    <contour>
      <point x="100" y="1497" type="curve" smooth="yes"/>
      <point x="319" y="1497" type="line" smooth="yes"/>
      <point x="336" y="1497"/>
      <point x="349" y="1510"/>
      <point x="349" y="1527" type="curve" smooth="yes"/>
      <point x="349" y="1544"/>
      <point x="336" y="1557"/>
      <point x="319" y="1557" type="curve" smooth="yes"/>
      <point x="100" y="1557" type="line" smooth="yes"/>
      <point x="83" y="1557"/>
      <point x="70" y="1544"/>
      <point x="70" y="1527" type="curve" smooth="yes"/>
      <point x="70" y="1510"/>
      <point x="83" y="1497"/>
    </contour>
  </outline>
</glyph>
<glyph name="circumflexcomb" format="2">
  <unicode hex="0302"/>
  <anchor x="254" y="1133" name="_top"/>
  <anchor x="254" y="1535" name="top"/>
  <outline>
    <contour>
      <point x="100" y="1354" type="curve" smooth="yes"/>
      <point x="108" y="1354"/>
      <point x="115" y="1357"/>
      <point x="121" y="1363" type="curve" smooth="yes"/>
      <point x="276" y="1517" type="line" smooth="yes"/>
      <point x="282" y="1523"/>
      <point x="285" y="1530"/>
      <point x="285" y="1538" type="curve" smooth="yes"/>
      <point x="285" y="1555"/>
      <point x="272" y="1568"/>
      <point x="255" y="1568" type="curve" smooth="yes"/>
      <point x="247" y="1568"/>
      <point x="240" y="1566"/>
      <point x="233" y="1559" type="curve" smooth="yes"/>
      <point x="79" y="1405" type="line" smooth="yes"/>
      <point x="73" y="1399"/>
      <point x="70" y="1392"/>
      <point x="70" y="1384" type="curve" smooth="yes"/>
      <point x="70" y="1367"/>
      <point x="83" y="1354"/>
    </contour>
    <contour>
      <point x="100" y="1354" type="curve" smooth="yes"/>
      <point x="409" y="1354" type="line" smooth="yes"/>
      <point x="426" y="1354"/>
      <point x="437" y="1367"/>
      <point x="437" y="1384" type="curve" smooth="yes"/>
      <point x="437" y="1401"/>
      <point x="426" y="1414"/>
      <point x="409" y="1414" type="curve" smooth="yes"/>
      <point x="100" y="1414" type="line" smooth="yes"/>
      <point x="83" y="1414"/>
      <point x="72" y="1401"/>
      <point x="72" y="1384" type="curve" smooth="yes"/>
      <point x="72" y="1367"/>
      <point x="83" y="1354"/>
    </contour>
    <contour>
      <point x="409" y="1354" type="curve" smooth="yes"/>
      <point x="426" y="1354"/>
      <point x="439" y="1367"/>
      <point x="439" y="1384" type="curve" smooth="yes"/>
      <point x="439" y="1392"/>
      <point x="436" y="1399"/>
      <point x="430" y="1405" type="curve" smooth="yes"/>
      <point x="277" y="1559" type="line" smooth="yes"/>
      <point x="271" y="1566"/>
      <point x="263" y="1568"/>
      <point x="255" y="1568" type="curve" smooth="yes"/>
      <point x="238" y="1568"/>
      <point x="225" y="1555"/>
      <point x="225" y="1538" type="curve" smooth="yes"/>
      <point x="225" y="1530"/>
      <point x="228" y="1523"/>
      <point x="234" y="1517" type="curve" smooth="yes"/>
      <point x="388" y="1363" type="line" smooth="yes"/>
      <point x="394" y="1357"/>
      <point x="401" y="1354"/>
    </contour>
  </outline>
</glyph>
<glyph name="tildecomb" format="2">
  <unicode hex="0303"/>
  <anchor x="321" y="1133" name="_top"/>
  <anchor x="321" y="1565" name="top"/>
  <outline>
    <contour>
      <point x="428" y="1337" type="curve" smooth="yes"/>
      <point x="500" y="1337"/>
      <point x="574" y="1381"/>
      <point x="564" y="1495" type="curve" smooth="yes"/>
      <point x="563" y="1510"/>
      <point x="550" y="1522"/>
      <point x="534" y="1522" type="curve" smooth="yes"/>
      <point x="517" y="1522"/>
      <point x="503" y="1507"/>
      <point x="504" y="1489" type="curve" smooth="yes"/>
      <point x="510" y="1415"/>
      <point x="477" y="1397"/>
      <point x="428" y="1397" type="curve" smooth="yes"/>
      <point x="384" y="1397"/>
      <point x="367" y="1421"/>
      <point x="340" y="1459" type="curve" smooth="yes"/>
      <point x="313" y="1496"/>
      <point x="276" y="1549"/>
      <point x="194" y="1549" type="curve" smooth="yes"/>
      <point x="100" y="1549"/>
      <point x="52" y="1457"/>
      <point x="76" y="1367" type="curve" smooth="yes"/>
      <point x="79" y="1354"/>
      <point x="91" y="1345"/>
      <point x="105" y="1345" type="curve" smooth="yes"/>
      <point x="124" y="1345"/>
      <point x="139" y="1364"/>
      <point x="134" y="1383" type="curve" smooth="yes"/>
      <point x="118" y="1444"/>
      <point x="140" y="1489"/>
      <point x="194" y="1489" type="curve" smooth="yes"/>
      <point x="244" y="1489"/>
      <point x="261" y="1465"/>
      <point x="291" y="1424" type="curve" smooth="yes"/>
      <point x="318" y="1386"/>
      <point x="353" y="1337"/>
    </contour>
  </outline>
</glyph>
<glyph name="macroncomb" format="2">
  <unicode hex="0304"/>
  <anchor x="237" y="1133" name="_top"/>
  <anchor x="237" y="1535" name="top"/>
  <outline>
    <contour>
      <point x="100" y="1403" type="curve" smooth="yes"/>
      <point x="378" y="1403" type="line" smooth="yes"/>
      <point x="395" y="1403"/>
      <point x="408" y="1416"/>
      <point x="408" y="1433" type="curve" smooth="yes"/>
      <point x="408" y="1450"/>
      <point x="395" y="1463"/>
      <point x="378" y="1463" type="curve" smooth="yes"/>
      <point x="100" y="1463" type="line" smooth="yes"/>
      <point x="83" y="1463"/>
      <point x="70" y="1450"/>
      <point x="70" y="1433" type="curve" smooth="yes"/>
      <point x="70" y="1416"/>
      <point x="83" y="1403"/>
    </contour>
  </outline>
</glyph>
<glyph name="brevecomb" format="2">
  <unicode hex="0306"/>
  <anchor x="245" y="1133" name="_top"/>
  <anchor x="245" y="1535" name="top"/>
  <outline>
    <contour>
      <point x="245" y="1329" type="curve" smooth="yes"/>
      <point x="341" y="1329"/>
      <point x="419" y="1407"/>
      <point x="419" y="1503" type="curve" smooth="yes"/>
      <point x="419" y="1518"/>
      <point x="416" y="1535"/>
      <point x="413" y="1548" type="curve" smooth="yes"/>
      <point x="410" y="1561"/>
      <point x="398" y="1571"/>
      <point x="384" y="1571" type="curve" smooth="yes"/>
      <point x="365" y="1571"/>
      <point x="350" y="1553"/>
      <point x="355" y="1534" type="curve" smooth="yes"/>
      <point x="358" y="1523"/>
      <point x="359" y="1514"/>
      <point x="359" y="1503" type="curve" smooth="yes"/>
      <point x="359" y="1435"/>
      <point x="313" y="1389"/>
      <point x="245" y="1389" type="curve" smooth="yes"/>
      <point x="177" y="1389"/>
      <point x="130" y="1436"/>
      <point x="130" y="1503" type="curve" smooth="yes"/>
      <point x="130" y="1514"/>
      <point x="131" y="1523"/>
      <point x="134" y="1534" type="curve" smooth="yes"/>
      <point x="139" y="1553"/>
      <point x="124" y="1571"/>
      <point x="105" y="1571" type="curve" smooth="yes"/>
      <point x="91" y="1571"/>
      <point x="79" y="1561"/>
      <point x="76" y="1548" type="curve" smooth="yes"/>
      <point x="73" y="1535"/>
      <point x="70" y="1518"/>
      <point x="70" y="1503" type="curve" smooth="yes"/>
      <point x="70" y="1406"/>
      <point x="149" y="1329"/>
    </contour>
  </outline>
</glyph>
<glyph name="dotaccentcomb" format="2">
  <unicode hex="0307"/>
  <anchor x="210" y="1133" name="_top"/>
  <anchor x="210" y="1535" name="top"/>
  <outline>
    <contour>
      <point x="319" y="1279" type="curve" smooth="yes"/>
      <point x="311" y="1279"/>
      <point x="303" y="1282"/>
      <point x="298" y="1288" type="curve"/>
      <point x="79" y="1506" type="line" smooth="yes"/>
      <point x="73" y="1511"/>
      <point x="70" y="1519"/>
      <point x="70" y="1527" type="curve" smooth="yes"/>
      <point x="70" y="1544"/>
      <point x="83" y="1557"/>
      <point x="100" y="1557" type="curve" smooth="yes"/>
      <point x="108" y="1557"/>
      <point x="116" y="1554"/>
      <point x="121" y="1548" type="curve"/>
      <point x="340" y="1330" type="line" smooth="yes"/>
      <point x="346" y="1325"/>
      <point x="349" y="1317"/>
      <point x="349" y="1309" type="curve" smooth="yes"/>
      <point x="349" y="1292"/>
      <point x="336" y="1279"/>
    </contour>
    <contour>
      <point x="100" y="1279" type="curve" smooth="yes"/>
      <point x="83" y="1279"/>
      <point x="70" y="1292"/>
      <point x="70" y="1309" type="curve" smooth="yes"/>
      <point x="70" y="1317"/>
      <point x="73" y="1325"/>
      <point x="79" y="1330" type="curve" smooth="yes"/>
      <point x="298" y="1548" type="line"/>
      <point x="303" y="1554"/>
      <point x="311" y="1557"/>
      <point x="319" y="1557" type="curve" smooth="yes"/>
      <point x="336" y="1557"/>
      <point x="349" y="1544"/>
      <point x="349" y="1527" type="curve" smooth="yes"/>
      <point x="349" y="1519"/>
      <point x="346" y="1511"/>
      <point x="340" y="1506" type="curve" smooth="yes"/>
      <point x="121" y="1288" type="line"/>
      <point x="116" y="1282"/>
      <point x="108" y="1279"/>
    </contour>
  </outline>
</glyph>
<glyph name="ringcomb" format="2">
  <unicode hex="030A"/>
  <anchor x="244" y="1133" name="_top"/>
  <anchor x="244" y="1535" name="top"/>
  <outline>
    <contour>
      <point x="245" y="1289" type="curve" smooth="yes"/>
      <point x="341" y="1289"/>
      <point x="419" y="1367"/>
      <point x="419" y="1463" type="curve" smooth="yes"/>
      <point x="419" y="1560"/>
      <point x="341" y="1638"/>
      <point x="245" y="1638" type="curve" smooth="yes"/>
      <point x="149" y="1638"/>
      <point x="70" y="1561"/>
      <point x="70" y="1463" type="curve" smooth="yes"/>
      <point x="70" y="1366"/>
      <point x="149" y="1289"/>
    </contour>
    <contour>
      <point x="245" y="1349" type="curve" smooth="yes"/>
      <point x="177" y="1349"/>
      <point x="130" y="1396"/>
      <point x="130" y="1463" type="curve" smooth="yes"/>
      <point x="130" y="1531"/>
      <point x="177" y="1578"/>
      <point x="245" y="1578" type="curve" smooth="yes"/>
      <point x="313" y="1578"/>
      <point x="359" y="1532"/>
      <point x="359" y="1463" type="curve" smooth="yes"/>
      <point x="359" y="1395"/>
      <point x="313" y="1349"/>
    </contour>
  </outline>
</glyph>
<glyph name="cedillacomb" format="2">
  <unicode hex="0327"/>
  <anchor x="189" y="-22" name="_bottom"/>
  <outline>
    <contour>
      <point x="324" y="-665" type="curve" smooth="yes"/>
      <point x="473" y="-665"/>
      <point x="595" y="-552"/>
      <point x="595" y="-412" type="curve" smooth="yes"/>
      <point x="595" y="-274"/>
      <point x="507" y="-158"/>
      <point x="370" y="-158" type="curve" smooth="yes"/>
      <point x="253" y="-158"/>
      <point x="170" y="-226"/>
      <point x="159" y="-324" type="curve" smooth="yes"/>
      <point x="157" y="-341"/>
      <point x="171" y="-357"/>
      <point x="189" y="-357" type="curve" smooth="yes"/>
      <point x="204" y="-357"/>
      <point x="217" y="-345"/>
      <point x="219" y="-330" type="curve" smooth="yes"/>
      <point x="226" y="-260"/>
      <point x="279" y="-218"/>
      <point x="370" y="-218" type="curve" smooth="yes"/>
      <point x="473" y="-218"/>
      <point x="535" y="-298"/>
      <point x="535" y="-412" type="curve" smooth="yes"/>
      <point x="535" y="-522"/>
      <point x="445" y="-605"/>
      <point x="324" y="-605" type="curve" smooth="yes"/>
      <point x="232" y="-605"/>
      <point x="160" y="-558"/>
      <point x="127" y="-485" type="curve" smooth="yes"/>
      <point x="123" y="-474"/>
      <point x="112" y="-467"/>
      <point x="100" y="-467" type="curve" smooth="yes"/>
      <point x="83" y="-467"/>
      <point x="70" y="-480"/>
      <point x="70" y="-497" type="curve" smooth="yes"/>
      <point x="70" y="-550"/>
      <point x="180" y="-665"/>
    </contour>
    <contour>
      <point x="189" y="-357" type="curve" smooth="yes"/>
      <point x="206" y="-357"/>
      <point x="219" y="-344"/>
      <point x="219" y="-327" type="curve" smooth="yes"/>
      <point x="219" y="5" type="line"/>
      <point x="159" y="5" type="line"/>
      <point x="159" y="-327" type="line" smooth="yes"/>
      <point x="159" y="-344"/>
      <point x="172" y="-357"/>
    </contour>
  </outline>
</glyph>
<glyph name="ogonekcomb" format="2">
  <unicode hex="0328"/>
  <anchor x="268" y="-6" name="_ogonek"/>
  <outline>
    <contour>
      <point x="341" y="-665" type="curve" smooth="yes"/>
      <point x="389" y="-665"/>
      <point x="435" y="-652"/>
      <point x="474" y="-633" type="curve" smooth="yes"/>
      <point x="484" y="-628"/>
      <point x="491" y="-618"/>
      <point x="491" y="-606" type="curve" smooth="yes"/>
      <point x="491" y="-589"/>
      <point x="478" y="-576"/>
      <point x="461" y="-576" type="curve" smooth="yes"/>
      <point x="456" y="-576"/>
      <point x="452" y="-577"/>
      <point x="448" y="-579" type="curve" smooth="yes"/>
      <point x="414" y="-596"/>
      <point x="380" y="-605"/>
      <point x="341" y="-605" type="curve" smooth="yes"/>
      <point x="220" y="-605"/>
      <point x="130" y="-522"/>
      <point x="130" y="-412" type="curve" smooth="yes"/>
      <point x="130" y="-297"/>
      <point x="186" y="-214"/>
      <point x="324" y="-17" type="curve" smooth="yes"/>
      <point x="327" y="-12"/>
      <point x="329" y="-6"/>
      <point x="329" y="0" type="curve" smooth="yes"/>
      <point x="329" y="17"/>
      <point x="316" y="30"/>
      <point x="299" y="30" type="curve" smooth="yes"/>
      <point x="289" y="30"/>
      <point x="280" y="25"/>
      <point x="274" y="17" type="curve" smooth="yes"/>
      <point x="136" y="-181"/>
      <point x="70" y="-278"/>
      <point x="70" y="-412" type="curve" smooth="yes"/>
      <point x="70" y="-552"/>
      <point x="192" y="-665"/>
    </contour>
  </outline>
</glyph>
<glyph name="Delta" format="2">
  <advance width="1200"/>
  <unicode hex="0394"/>
  <outline>
    <contour>
      <point x="600" y="1549" type="curve" smooth="yes"/>
      <point x="11" y="36" type="line" smooth="yes"/>
      <point x="3" y="14"/>
      <point x="12" y="0"/>
      <point x="35" y="0" type="curve" smooth="yes"/>
      <point x="1201" y="0" type="line" smooth="yes"/>
      <point x="1224" y="0"/>
      <point x="1233" y="15"/>
      <point x="1225" y="36" type="curve" smooth="yes"/>
      <point x="641" y="1549" type="line" smooth="yes"/>
      <point x="631" y="1576"/>
      <point x="610" y="1576"/>
    </contour>
    <contour>
      <point x="621" y="1436" type="line"/>
      <point x="1152" y="60" type="line"/>
      <point x="85" y="60" type="line"/>
    </contour>
  </outline>
</glyph>
<glyph name="Omega" format="2">
  <advance width="1483"/>
  <unicode hex="03A9"/>
  <outline>
    <contour>
      <point x="533" y="60" type="curve" smooth="yes"/>
      <point x="70" y="60" type="line" smooth="yes"/>
      <point x="53" y="60"/>
      <point x="40" y="47"/>
      <point x="40" y="30" type="curve" smooth="yes"/>
      <point x="40" y="13"/>
      <point x="53" y="0"/>
      <point x="70" y="0" type="curve" smooth="yes"/>
      <point x="533" y="0" type="line" smooth="yes"/>
      <point x="550" y="0"/>
      <point x="563" y="13"/>
      <point x="563" y="30" type="curve" smooth="yes"/>
      <point x="563" y="47"/>
      <point x="550" y="60"/>
    </contour>
    <contour>
      <point x="959" y="12" type="curve"/>
      <point x="1246" y="128"/>
      <point x="1442" y="425"/>
      <point x="1442" y="800" type="curve" smooth="yes"/>
      <point x="1442" y="1174"/>
      <point x="1129" y="1538"/>
      <point x="742" y="1538" type="curve" smooth="yes"/>
      <point x="354" y="1538"/>
      <point x="43" y="1174"/>
      <point x="43" y="800" type="curve" smooth="yes"/>
      <point x="43" y="425"/>
      <point x="237" y="128"/>
      <point x="524" y="12" type="curve"/>
      <point x="527" y="10"/>
      <point x="531" y="10"/>
      <point x="535" y="10" type="curve" smooth="yes"/>
      <point x="551" y="10"/>
      <point x="565" y="23"/>
      <point x="565" y="40" type="curve" smooth="yes"/>
      <point x="565" y="52"/>
      <point x="557" y="63"/>
      <point x="546" y="67" type="curve" smooth="yes"/>
      <point x="280" y="175"/>
      <point x="103" y="446"/>
      <point x="103" y="800" type="curve" smooth="yes"/>
      <point x="103" y="1148"/>
      <point x="386" y="1478"/>
      <point x="742" y="1478" type="curve" smooth="yes"/>
      <point x="1097" y="1478"/>
      <point x="1382" y="1148"/>
      <point x="1382" y="800" type="curve" smooth="yes"/>
      <point x="1382" y="446"/>
      <point x="1204" y="175"/>
      <point x="937" y="67" type="curve" smooth="yes"/>
      <point x="926" y="63"/>
      <point x="918" y="52"/>
      <point x="918" y="40" type="curve" smooth="yes"/>
      <point x="918" y="23"/>
      <point x="932" y="10"/>
      <point x="948" y="10" type="curve" smooth="yes"/>
      <point x="952" y="10"/>
      <point x="956" y="10"/>
    </contour>
    <contour>
      <point x="1413" y="60" type="curve" smooth="yes"/>
      <point x="950" y="60" type="line" smooth="yes"/>
      <point x="933" y="60"/>
      <point x="920" y="47"/>
      <point x="920" y="30" type="curve" smooth="yes"/>
      <point x="920" y="13"/>
      <point x="933" y="0"/>
      <point x="950" y="0" type="curve" smooth="yes"/>
      <point x="1413" y="0" type="line" smooth="yes"/>
      <point x="1430" y="0"/>
      <point x="1443" y="13"/>
      <point x="1443" y="30" type="curve" smooth="yes"/>
      <point x="1443" y="47"/>
      <point x="1430" y="60"/>
    </contour>
  </outline>
</glyph>
<glyph name="mu" format="2">
  <advance width="1449"/>
  <unicode hex="03BC"/>
  <outline>
    <contour>
      <point x="725" y="-30" type="curve" smooth="yes"/>
      <point x="1025" y="-30"/>
      <point x="1269" y="193"/>
      <point x="1269" y="494" type="curve" smooth="yes"/>
      <point x="1269" y="1508" type="line" smooth="yes"/>
      <point x="1269" y="1525"/>
      <point x="1256" y="1538"/>
      <point x="1239" y="1538" type="curve" smooth="yes"/>
      <point x="1222" y="1538"/>
      <point x="1209" y="1525"/>
      <point x="1209" y="1508" type="curve" smooth="yes"/>
      <point x="1209" y="494" type="line" smooth="yes"/>
      <point x="1209" y="223"/>
      <point x="997" y="30"/>
      <point x="725" y="30" type="curve" smooth="yes"/>
      <point x="452" y="30"/>
      <point x="240" y="223"/>
      <point x="240" y="494" type="curve" smooth="yes"/>
      <point x="240" y="1508" type="line" smooth="yes"/>
      <point x="240" y="1525"/>
      <point x="227" y="1538"/>
      <point x="210" y="1538" type="curve" smooth="yes"/>
      <point x="193" y="1538"/>
      <point x="180" y="1525"/>
      <point x="180" y="1508" type="curve" smooth="yes"/>
      <point x="180" y="494" type="line" smooth="yes"/>
      <point x="180" y="193"/>
      <point x="424" y="-30"/>
    </contour>
    <contour>
      <point x="210" y="-422" type="curve" smooth="yes"/>
      <point x="227" y="-422"/>
      <point x="240" y="-409"/>
      <point x="240" y="-392" type="curve" smooth="yes"/>
      <point x="240" y="494" type="line" smooth="yes"/>
      <point x="240" y="511"/>
      <point x="227" y="524"/>
      <point x="210" y="524" type="curve" smooth="yes"/>
      <point x="193" y="524"/>
      <point x="180" y="511"/>
      <point x="180" y="494" type="curve" smooth="yes"/>
      <point x="180" y="-392" type="line" smooth="yes"/>
      <point x="180" y="-409"/>
      <point x="193" y="-422"/>
    </contour>
  </outline>
</glyph>
<glyph name="pi" format="2">
  <advance width="1250"/>
  <unicode hex="03C0"/>
  <outline>
    <contour>
      <point x="906" y="1033" type="curve" smooth="yes"/>
      <point x="906" y="170" type="line" smooth="yes"/>
      <point x="906" y="-16"/>
      <point x="1101" y="-27"/>
      <point x="1200" y="-15" type="curve" smooth="yes"/>
      <point x="1215" y="-13"/>
      <point x="1230" y="-6"/>
      <point x="1230" y="16" type="curve" smooth="yes"/>
      <point x="1230" y="32"/>
      <point x="1217" y="45"/>
      <point x="1203" y="45" type="curve" smooth="yes"/>
      <point x="1200" y="45"/>
      <point x="1196" y="45"/>
      <point x="1192" y="44" type="curve" smooth="yes"/>
      <point x="1110" y="23"/>
      <point x="966" y="40"/>
      <point x="966" y="170" type="curve" smooth="yes"/>
      <point x="966" y="1033" type="line" smooth="yes"/>
      <point x="966" y="1050"/>
      <point x="953" y="1063"/>
      <point x="936" y="1063" type="curve" smooth="yes"/>
      <point x="919" y="1063"/>
      <point x="906" y="1050"/>
    </contour>
    <contour>
      <point x="250" y="1034" type="curve" smooth="yes"/>
      <point x="250" y="30" type="line" smooth="yes"/>
      <point x="250" y="13"/>
      <point x="263" y="0"/>
      <point x="280" y="0" type="curve" smooth="yes"/>
      <point x="297" y="0"/>
      <point x="310" y="13"/>
      <point x="310" y="30" type="curve" smooth="yes"/>
      <point x="310" y="1034" type="line" smooth="yes"/>
      <point x="310" y="1051"/>
      <point x="297" y="1064"/>
      <point x="280" y="1064" type="curve" smooth="yes"/>
      <point x="263" y="1064"/>
      <point x="250" y="1051"/>
    </contour>
    <contour>
      <point x="1189" y="1091" type="curve" smooth="yes"/>
      <point x="50" y="1091" type="line" smooth="yes"/>
      <point x="33" y="1091"/>
      <point x="20" y="1078"/>
      <point x="20" y="1061" type="curve" smooth="yes"/>
      <point x="20" y="1044"/>
      <point x="33" y="1031"/>
      <point x="50" y="1031" type="curve" smooth="yes"/>
      <point x="1189" y="1031" type="line" smooth="yes"/>
      <point x="1206" y="1031"/>
      <point x="1219" y="1044"/>
      <point x="1219" y="1061" type="curve" smooth="yes"/>
      <point x="1219" y="1078"/>
      <point x="1206" y="1091"/>
    </contour>
  </outline>
</glyph>
<glyph name="endash" format="2">
  <advance width="973"/>
  <unicode hex="2013"/>
  <outline>
    <contour>
      <point x="50" y="567" type="curve" smooth="yes"/>
      <point x="923" y="567" type="line" smooth="yes"/>
      <point x="940" y="567"/>
      <point x="953" y="580"/>
      <point x="953" y="597" type="curve" smooth="yes"/>
      <point x="953" y="614"/>
      <point x="940" y="627"/>
      <point x="923" y="627" type="curve" smooth="yes"/>
      <point x="50" y="627" type="line" smooth="yes"/>
      <point x="33" y="627"/>
      <point x="20" y="614"/>
      <point x="20" y="597" type="curve" smooth="yes"/>
      <point x="20" y="580"/>
      <point x="33" y="567"/>
    </contour>
  </outline>
</glyph>
<glyph name="emdash" format="2">
  <advance width="1982"/>
  <unicode hex="2014"/>
  <outline>
    <contour>
      <point x="50" y="567" type="curve" smooth="yes"/>
      <point x="1932" y="567" type="line" smooth="yes"/>
      <point x="1949" y="567"/>
      <point x="1962" y="580"/>
      <point x="1962" y="597" type="curve" smooth="yes"/>
      <point x="1962" y="614"/>
      <point x="1949" y="627"/>
      <point x="1932" y="627" type="curve" smooth="yes"/>
      <point x="50" y="627" type="line" smooth="yes"/>
      <point x="33" y="627"/>
      <point x="20" y="614"/>
      <point x="20" y="597" type="curve" smooth="yes"/>
      <point x="20" y="580"/>
      <point x="33" y="567"/>
    </contour>
  </outline>
</glyph>
<glyph name="quoteright" format="2">
  <advance width="436"/>
  <unicode hex="2019"/>
  <outline>
    <contour>
      <point x="326" y="1087" type="curve" smooth="yes"/>
      <point x="343" y="1087"/>
      <point x="356" y="1100"/>
      <point x="356" y="1117" type="curve" smooth="yes"/>
      <point x="356" y="1525" type="line" smooth="yes"/>
      <point x="356" y="1543"/>
      <point x="342" y="1557"/>
      <point x="324" y="1557" type="curve" smooth="yes"/>
      <point x="97" y="1557" type="line" smooth="yes"/>
      <point x="54" y="1557"/>
      <point x="34" y="1512"/>
      <point x="65" y="1481" type="curve" smooth="yes"/>
      <point x="305" y="1241" type="line" smooth="yes"/>
      <point x="310" y="1235"/>
      <point x="318" y="1232"/>
      <point x="326" y="1232" type="curve" smooth="yes"/>
      <point x="343" y="1232"/>
      <point x="356" y="1245"/>
      <point x="356" y="1262" type="curve" smooth="yes"/>
      <point x="356" y="1270"/>
      <point x="353" y="1278"/>
      <point x="347" y="1283" type="curve" smooth="yes"/>
      <point x="133" y="1497" type="line"/>
      <point x="296" y="1497" type="line"/>
      <point x="296" y="1117" type="line" smooth="yes"/>
      <point x="296" y="1100"/>
      <point x="309" y="1087"/>
    </contour>
  </outline>
</glyph>
<glyph name="dagger" format="2">
  <advance width="1263"/>
  <unicode hex="2020"/>
  <outline>
    <contour>
      <point x="602" y="1543" type="curve" smooth="yes"/>
      <point x="602" y="35" type="line" smooth="yes"/>
      <point x="602" y="18"/>
      <point x="615" y="5"/>
      <point x="632" y="5" type="curve" smooth="yes"/>
      <point x="649" y="5"/>
      <point x="662" y="18"/>
      <point x="662" y="35" type="curve" smooth="yes"/>
      <point x="662" y="1543" type="line" smooth="yes"/>
      <point x="662" y="1560"/>
      <point x="649" y="1573"/>
      <point x="632" y="1573" type="curve" smooth="yes"/>
      <point x="615" y="1573"/>
      <point x="602" y="1560"/>
    </contour>
    <contour>
      <point x="1086" y="1068" type="curve" smooth="yes"/>
      <point x="177" y="1068" type="line" smooth="yes"/>
      <point x="160" y="1068"/>
      <point x="147" y="1055"/>
      <point x="147" y="1038" type="curve" smooth="yes"/>
      <point x="147" y="1021"/>
      <point x="160" y="1008"/>
      <point x="177" y="1008" type="curve" smooth="yes"/>
      <point x="1086" y="1008" type="line" smooth="yes"/>
      <point x="1103" y="1008"/>
      <point x="1116" y="1021"/>
      <point x="1116" y="1038" type="curve" smooth="yes"/>
      <point x="1116" y="1055"/>
      <point x="1103" y="1068"/>
    </contour>
  </outline>
</glyph>
<glyph name="daggerdbl" format="2">
  <advance width="1200"/>
  <unicode hex="2021"/>
  <outline>
    <contour>
      <point x="602" y="1543" type="curve" smooth="yes"/>
      <point x="602" y="35" type="line" smooth="yes"/>
      <point x="602" y="18"/>
      <point x="615" y="5"/>
      <point x="632" y="5" type="curve" smooth="yes"/>
      <point x="649" y="5"/>
      <point x="662" y="18"/>
      <point x="662" y="35" type="curve" smooth="yes"/>
      <point x="662" y="1543" type="line" smooth="yes"/>
      <point x="662" y="1560"/>
      <point x="649" y="1573"/>
      <point x="632" y="1573" type="curve" smooth="yes"/>
      <point x="615" y="1573"/>
      <point x="602" y="1560"/>
    </contour>
    <contour>
      <point x="1086" y="1068" type="curve" smooth="yes"/>
      <point x="177" y="1068" type="line" smooth="yes"/>
      <point x="160" y="1068"/>
      <point x="147" y="1055"/>
      <point x="147" y="1038" type="curve" smooth="yes"/>
      <point x="147" y="1021"/>
      <point x="160" y="1008"/>
      <point x="177" y="1008" type="curve" smooth="yes"/>
      <point x="1086" y="1008" type="line" smooth="yes"/>
      <point x="1103" y="1008"/>
      <point x="1116" y="1021"/>
      <point x="1116" y="1038" type="curve" smooth="yes"/>
      <point x="1116" y="1055"/>
      <point x="1103" y="1068"/>
    </contour>
    <contour>
      <point x="1086" y="587" type="curve" smooth="yes"/>
      <point x="177" y="587" type="line" smooth="yes"/>
      <point x="160" y="587"/>
      <point x="147" y="574"/>
      <point x="147" y="557" type="curve" smooth="yes"/>
      <point x="147" y="540"/>
      <point x="160" y="527"/>
      <point x="177" y="527" type="curve" smooth="yes"/>
      <point x="1086" y="527" type="line" smooth="yes"/>
      <point x="1103" y="527"/>
      <point x="1116" y="540"/>
      <point x="1116" y="557" type="curve" smooth="yes"/>
      <point x="1116" y="574"/>
      <point x="1103" y="587"/>
    </contour>
  </outline>
</glyph>
<glyph name="bullet" format="2">
  <advance width="772"/>
  <unicode hex="2022"/>
  <outline>
    <contour>
      <point x="386" y="372" type="curve" smooth="yes"/>
      <point x="489" y="372"/>
      <point x="572" y="455"/>
      <point x="572" y="558" type="curve" smooth="yes"/>
      <point x="572" y="661"/>
      <point x="489" y="744"/>
      <point x="386" y="744" type="curve" smooth="yes"/>
      <point x="283" y="744"/>
      <point x="200" y="661"/>
      <point x="200" y="558" type="curve" smooth="yes"/>
      <point x="200" y="455"/>
      <point x="283" y="372"/>
    </contour>
  </outline>
</glyph>
<glyph name="guilsinglright" format="2">
  <advance width="630"/>
  <unicode hex="203A"/>
  <outline>
    <contour>
      <point x="140" y="278" type="curve" smooth="yes"/>
      <point x="148" y="278"/>
      <point x="156" y="281"/>
      <point x="161" y="287" type="curve" smooth="yes"/>
      <point x="480" y="606" type="line" smooth="yes"/>
      <point x="493" y="619"/>
      <point x="493" y="637"/>
      <point x="480" y="650" type="curve" smooth="yes"/>
      <point x="161" y="969" type="line" smooth="yes"/>
      <point x="156" y="975"/>
      <point x="148" y="978"/>
      <point x="140" y="978" type="curve" smooth="yes"/>
      <point x="123" y="978"/>
      <point x="110" y="965"/>
      <point x="110" y="948" type="curve" smooth="yes"/>
      <point x="110" y="940"/>
      <point x="113" y="932"/>
      <point x="119" y="927" type="curve" smooth="yes"/>
      <point x="418" y="628" type="line"/>
      <point x="119" y="329" type="line" smooth="yes"/>
      <point x="113" y="324"/>
      <point x="110" y="316"/>
      <point x="110" y="308" type="curve" smooth="yes"/>
      <point x="110" y="291"/>
      <point x="123" y="278"/>
    </contour>
  </outline>
</glyph>
<glyph name="fraction" format="2">
  <advance width="708"/>
  <unicode hex="2044"/>
  <outline>
    <contour>
      <point x="624" y="1374" type="curve" smooth="yes"/>
      <point x="49" y="8" type="line" smooth="yes"/>
      <point x="48" y="6"/>
      <point x="48" y="4"/>
      <point x="48" y="2" type="curve" smooth="yes"/>
      <point x="48" y="-7"/>
      <point x="54" y="-17"/>
      <point x="66" y="-17" type="curve" smooth="yes"/>
      <point x="73" y="-17"/>
      <point x="80" y="-12"/>
      <point x="83" y="-6" type="curve" smooth="yes"/>
      <point x="658" y="1360" type="line" smooth="yes"/>
      <point x="659" y="1362"/>
      <point x="659" y="1365"/>
      <point x="659" y="1367" type="curve" smooth="yes"/>
      <point x="659" y="1376"/>
      <point x="652" y="1385"/>
      <point x="641" y="1385" type="curve" smooth="yes"/>
      <point x="634" y="1385"/>
      <point x="627" y="1380"/>
    </contour>
  </outline>
</glyph>
<glyph name="Euro" format="2">
  <advance width="1706"/>
  <unicode hex="20AC"/>
  <anchor x="1015" y="-9" name="bottom"/>
  <anchor x="1089" y="1542" name="top"/>
  <outline>
    <contour>
      <point x="70" y="839" type="curve" smooth="yes"/>
      <point x="1484" y="839" type="line" smooth="yes"/>
      <point x="1501" y="839"/>
      <point x="1514" y="852"/>
      <point x="1514" y="869" type="curve" smooth="yes"/>
      <point x="1514" y="886"/>
      <point x="1501" y="899"/>
      <point x="1484" y="899" type="curve" smooth="yes"/>
      <point x="70" y="899" type="line" smooth="yes"/>
      <point x="53" y="899"/>
      <point x="40" y="886"/>
      <point x="40" y="869" type="curve" smooth="yes"/>
      <point x="40" y="852"/>
      <point x="53" y="839"/>
    </contour>
    <contour>
      <point x="70" y="574" type="curve" smooth="yes"/>
      <point x="1314" y="574" type="line" smooth="yes"/>
      <point x="1331" y="574"/>
      <point x="1344" y="587"/>
      <point x="1344" y="604" type="curve" smooth="yes"/>
      <point x="1344" y="621"/>
      <point x="1331" y="634"/>
      <point x="1314" y="634" type="curve" smooth="yes"/>
      <point x="70" y="634" type="line" smooth="yes"/>
      <point x="53" y="634"/>
      <point x="40" y="621"/>
      <point x="40" y="604" type="curve" smooth="yes"/>
      <point x="40" y="587"/>
      <point x="53" y="574"/>
    </contour>
    <component base="C" xOffset="190"/>
  </outline>
</glyph>
<glyph name="literSign" format="2">
  <advance width="932"/>
  <unicode hex="2113"/>
  <outline>
    <contour>
      <point x="718" y="154" type="line" smooth="yes"/>
      <point x="608" y="70"/>
      <point x="576" y="59"/>
      <point x="522" y="59" type="curve" smooth="yes"/>
      <point x="462" y="59"/>
      <point x="390" y="109"/>
      <point x="390" y="251" type="curve" smooth="yes"/>
      <point x="390" y="1047" type="line" smooth="yes"/>
      <point x="390" y="1288"/>
      <point x="412" y="1462"/>
      <point x="586" y="1462" type="curve" smooth="yes"/>
      <point x="739" y="1462"/>
      <point x="756" y="1299"/>
      <point x="756" y="1198" type="curve" smooth="yes"/>
      <point x="756" y="1002"/>
      <point x="681" y="894"/>
      <point x="535" y="750" type="curve" smooth="yes"/>
      <point x="100" y="322" type="line"/>
      <point x="152" y="266" type="line"/>
      <point x="588" y="696" type="line" smooth="yes"/>
      <point x="765" y="868"/>
      <point x="832" y="1004"/>
      <point x="832" y="1198" type="curve" smooth="yes"/>
      <point x="832" y="1404"/>
      <point x="739" y="1538"/>
      <point x="576" y="1538" type="curve" smooth="yes"/>
      <point x="399" y="1538"/>
      <point x="315" y="1393"/>
      <point x="315" y="1047" type="curve" smooth="yes"/>
      <point x="315" y="251" type="line" smooth="yes"/>
      <point x="315" y="92"/>
      <point x="388" y="-16"/>
      <point x="522" y="-16" type="curve" smooth="yes"/>
      <point x="582" y="-16"/>
      <point x="644" y="3"/>
      <point x="737" y="74" type="curve" smooth="yes"/>
      <point x="810" y="130" type="line"/>
      <point x="763" y="188" type="line"/>
    </contour>
  </outline>
</glyph>
<glyph name="numero" format="2">
  <advance width="2601"/>
  <unicode hex="2116"/>
  <anchor x="694" y="0" name="bottom"/>
  <anchor x="694" y="1538" name="top"/>
  <outline>
    <contour>
      <point x="2004" y="683" type="curve" smooth="yes"/>
      <point x="2257" y="683"/>
      <point x="2461" y="887"/>
      <point x="2461" y="1139" type="curve" smooth="yes"/>
      <point x="2461" y="1392"/>
      <point x="2258" y="1598"/>
      <point x="2004" y="1598" type="curve" smooth="yes"/>
      <point x="1749" y="1598"/>
      <point x="1546" y="1392"/>
      <point x="1546" y="1139" type="curve" smooth="yes"/>
      <point x="1546" y="887"/>
      <point x="1750" y="683"/>
    </contour>
    <contour>
      <point x="2004" y="743" type="curve" smooth="yes"/>
      <point x="1778" y="743"/>
      <point x="1606" y="915"/>
      <point x="1606" y="1139" type="curve" smooth="yes"/>
      <point x="1606" y="1364"/>
      <point x="1779" y="1538"/>
      <point x="2004" y="1538" type="curve" smooth="yes"/>
      <point x="2228" y="1538"/>
      <point x="2401" y="1364"/>
      <point x="2401" y="1139" type="curve" smooth="yes"/>
      <point x="2401" y="915"/>
      <point x="2229" y="743"/>
    </contour>
    <contour>
      <point x="2418" y="530" type="curve" smooth="yes"/>
      <point x="1590" y="530" type="line" smooth="yes"/>
      <point x="1573" y="530"/>
      <point x="1560" y="517"/>
      <point x="1560" y="500" type="curve" smooth="yes"/>
      <point x="1560" y="483"/>
      <point x="1573" y="470"/>
      <point x="1590" y="470" type="curve" smooth="yes"/>
      <point x="2418" y="470" type="line" smooth="yes"/>
      <point x="2435" y="470"/>
      <point x="2448" y="483"/>
      <point x="2448" y="500" type="curve" smooth="yes"/>
      <point x="2448" y="517"/>
      <point x="2435" y="530"/>
    </contour>
    <component base="N"/>
  </outline>
</glyph>
<glyph name="trademark" format="2">
  <advance width="1576"/>
  <unicode hex="2122"/>
  <outline>
    <contour>
      <point x="877" y="769" type="curve" smooth="yes"/>
      <point x="860" y="769"/>
      <point x="847" y="782"/>
      <point x="847" y="799" type="curve" smooth="yes"/>
      <point x="847" y="1540" type="line" smooth="yes"/>
      <point x="847" y="1580"/>
      <point x="887" y="1599"/>
      <point x="917" y="1573" type="curve" smooth="yes"/>
      <point x="1536" y="1043" type="line" smooth="yes"/>
      <point x="1542" y="1037"/>
      <point x="1546" y="1029"/>
      <point x="1546" y="1020" type="curve" smooth="yes"/>
      <point x="1546" y="1003"/>
      <point x="1533" y="990"/>
      <point x="1516" y="990" type="curve" smooth="yes"/>
      <point x="1509" y="990"/>
      <point x="1502" y="993"/>
      <point x="1496" y="997" type="curve"/>
      <point x="907" y="1503" type="line"/>
      <point x="907" y="799" type="line" smooth="yes"/>
      <point x="907" y="782"/>
      <point x="894" y="769"/>
    </contour>
    <contour>
      <point x="377" y="769" type="curve" smooth="yes"/>
      <point x="394" y="769"/>
      <point x="407" y="782"/>
      <point x="407" y="799" type="curve" smooth="yes"/>
      <point x="407" y="1548" type="line" smooth="yes"/>
      <point x="407" y="1565"/>
      <point x="394" y="1578"/>
      <point x="377" y="1578" type="curve" smooth="yes"/>
      <point x="360" y="1578"/>
      <point x="347" y="1565"/>
      <point x="347" y="1548" type="curve" smooth="yes"/>
      <point x="347" y="799" type="line" smooth="yes"/>
      <point x="347" y="782"/>
      <point x="360" y="769"/>
    </contour>
    <contour>
      <point x="60" y="1299" type="curve" smooth="yes"/>
      <point x="67" y="1299"/>
      <point x="73" y="1301"/>
      <point x="78" y="1305" type="curve" smooth="yes"/>
      <point x="377" y="1531" type="line"/>
      <point x="677" y="1305" type="line" smooth="yes"/>
      <point x="682" y="1301"/>
      <point x="688" y="1299"/>
      <point x="695" y="1299" type="curve" smooth="yes"/>
      <point x="712" y="1299"/>
      <point x="725" y="1312"/>
      <point x="725" y="1329" type="curve" smooth="yes"/>
      <point x="725" y="1339"/>
      <point x="720" y="1347"/>
      <point x="713" y="1353" type="curve" smooth="yes"/>
      <point x="399" y="1591" type="line" smooth="yes"/>
      <point x="385" y="1602"/>
      <point x="369" y="1602"/>
      <point x="355" y="1591" type="curve" smooth="yes"/>
      <point x="42" y="1353" type="line" smooth="yes"/>
      <point x="35" y="1347"/>
      <point x="30" y="1339"/>
      <point x="30" y="1329" type="curve" smooth="yes"/>
      <point x="30" y="1312"/>
      <point x="43" y="1299"/>
    </contour>
    <contour>
      <point x="1516" y="769" type="curve" smooth="yes"/>
      <point x="1499" y="769"/>
      <point x="1486" y="782"/>
      <point x="1486" y="799" type="curve" smooth="yes"/>
      <point x="1486" y="1503" type="line"/>
      <point x="897" y="997" type="line"/>
      <point x="891" y="993"/>
      <point x="884" y="990"/>
      <point x="877" y="990" type="curve" smooth="yes"/>
      <point x="860" y="990"/>
      <point x="847" y="1003"/>
      <point x="847" y="1020" type="curve" smooth="yes"/>
      <point x="847" y="1029"/>
      <point x="851" y="1037"/>
      <point x="857" y="1043" type="curve" smooth="yes"/>
      <point x="1476" y="1573" type="line" smooth="yes"/>
      <point x="1506" y="1599"/>
      <point x="1546" y="1580"/>
      <point x="1546" y="1540" type="curve" smooth="yes"/>
      <point x="1546" y="799" type="line" smooth="yes"/>
      <point x="1546" y="782"/>
      <point x="1533" y="769"/>
    </contour>
  </outline>
</glyph>
<glyph name="estimated" format="2">
  <advance width="1541"/>
  <unicode hex="212E"/>
  <outline>
    <contour>
      <point x="265" y="689" type="line"/>
      <point x="1501" y="689" type="line" smooth="yes"/>
      <point x="1530" y="689"/>
      <point x="1547" y="705"/>
      <point x="1546" y="735" type="curve" smooth="yes"/>
      <point x="1525" y="1193"/>
      <point x="1195" y="1475"/>
      <point x="790" y="1475" type="curve" smooth="yes"/>
      <point x="369" y="1475"/>
      <point x="30" y="1136"/>
      <point x="30" y="718" type="curve" smooth="yes"/>
      <point x="30" y="297"/>
      <point x="369" y="-42"/>
      <point x="790" y="-42" type="curve" smooth="yes"/>
      <point x="1084" y="-42"/>
      <point x="1322" y="103"/>
      <point x="1464" y="333" type="curve" smooth="yes"/>
      <point x="1480" y="358"/>
      <point x="1478" y="377"/>
      <point x="1459" y="388" type="curve" smooth="yes"/>
      <point x="1441" y="398"/>
      <point x="1423" y="389"/>
      <point x="1408" y="364" type="curve" smooth="yes"/>
      <point x="1281" y="145"/>
      <point x="1064" y="24"/>
      <point x="790" y="24" type="curve" smooth="yes"/>
      <point x="575" y="24"/>
      <point x="391" y="113"/>
      <point x="265" y="255" type="curve"/>
    </contour>
    <contour>
      <point x="265" y="755" type="line"/>
      <point x="265" y="1178" type="line"/>
      <point x="391" y="1320"/>
      <point x="575" y="1409"/>
      <point x="790" y="1409" type="curve" smooth="yes"/>
      <point x="998" y="1409"/>
      <point x="1182" y="1325"/>
      <point x="1306" y="1185" type="curve"/>
      <point x="1306" y="755" type="line"/>
    </contour>
  </outline>
</glyph>
<glyph name="partialdiff" format="2">
  <advance width="1163"/>
  <unicode hex="2202"/>
  <outline>
    <contour>
      <point x="1063" y="496" type="curve" smooth="yes"/>
      <point x="1054" y="1011"/>
      <point x="786" y="1444"/>
      <point x="412" y="1563" type="curve" smooth="yes"/>
      <point x="409" y="1564"/>
      <point x="406" y="1564"/>
      <point x="403" y="1564" type="curve" smooth="yes"/>
      <point x="387" y="1564"/>
      <point x="373" y="1551"/>
      <point x="373" y="1534" type="curve" smooth="yes"/>
      <point x="373" y="1521"/>
      <point x="382" y="1510"/>
      <point x="394" y="1506" type="curve" smooth="yes"/>
      <point x="745" y="1395"/>
      <point x="994" y="989"/>
      <point x="1003" y="496" type="curve" smooth="yes"/>
      <point x="1003" y="479"/>
      <point x="1016" y="469"/>
      <point x="1033" y="469" type="curve" smooth="yes"/>
      <point x="1049" y="469"/>
      <point x="1063" y="479"/>
    </contour>
    <contour>
      <point x="582" y="-30" type="curve" smooth="yes"/>
      <point x="848" y="-30"/>
      <point x="1063" y="206"/>
      <point x="1063" y="496" type="curve" smooth="yes"/>
      <point x="1063" y="786"/>
      <point x="848" y="1023"/>
      <point x="582" y="1023" type="curve" smooth="yes"/>
      <point x="315" y="1023"/>
      <point x="100" y="786"/>
      <point x="100" y="496" type="curve" smooth="yes"/>
      <point x="100" y="206"/>
      <point x="315" y="-30"/>
    </contour>
    <contour>
      <point x="582" y="30" type="curve" smooth="yes"/>
      <point x="345" y="30"/>
      <point x="160" y="234"/>
      <point x="160" y="496" type="curve" smooth="yes"/>
      <point x="160" y="758"/>
      <point x="345" y="963"/>
      <point x="582" y="963" type="curve" smooth="yes"/>
      <point x="818" y="963"/>
      <point x="1003" y="758"/>
      <point x="1003" y="496" type="curve" smooth="yes"/>
      <point x="1003" y="234"/>
      <point x="818" y="30"/>
    </contour>
  </outline>
</glyph>
<glyph name="product" format="2">
  <advance width="1200"/>
  <unicode hex="220F"/>
  <outline>
    <contour>
      <point x="110" y="1344" type="curve" smooth="yes"/>
      <point x="1080" y="1344" type="line" smooth="yes"/>
      <point x="1097" y="1344"/>
      <point x="1110" y="1357"/>
      <point x="1110" y="1374" type="curve" smooth="yes"/>
      <point x="1110" y="1391"/>
      <point x="1097" y="1404"/>
      <point x="1080" y="1404" type="curve" smooth="yes"/>
      <point x="110" y="1404" type="line" smooth="yes"/>
      <point x="93" y="1404"/>
      <point x="80" y="1391"/>
      <point x="80" y="1374" type="curve" smooth="yes"/>
      <point x="80" y="1357"/>
      <point x="93" y="1344"/>
    </contour>
    <contour>
      <point x="260" y="1347" type="curve" smooth="yes"/>
      <point x="260" y="-193" type="line" smooth="yes"/>
      <point x="260" y="-210"/>
      <point x="273" y="-223"/>
      <point x="290" y="-223" type="curve" smooth="yes"/>
      <point x="307" y="-223"/>
      <point x="320" y="-210"/>
      <point x="320" y="-193" type="curve" smooth="yes"/>
      <point x="320" y="1347" type="line" smooth="yes"/>
      <point x="320" y="1364"/>
      <point x="307" y="1377"/>
      <point x="290" y="1377" type="curve" smooth="yes"/>
      <point x="273" y="1377"/>
      <point x="260" y="1364"/>
    </contour>
    <contour>
      <point x="870" y="1347" type="curve" smooth="yes"/>
      <point x="870" y="-193" type="line" smooth="yes"/>
      <point x="870" y="-210"/>
      <point x="883" y="-223"/>
      <point x="900" y="-223" type="curve" smooth="yes"/>
      <point x="917" y="-223"/>
      <point x="930" y="-210"/>
      <point x="930" y="-193" type="curve" smooth="yes"/>
      <point x="930" y="1347" type="line" smooth="yes"/>
      <point x="930" y="1364"/>
      <point x="917" y="1377"/>
      <point x="900" y="1377" type="curve" smooth="yes"/>
      <point x="883" y="1377"/>
      <point x="870" y="1364"/>
    </contour>
  </outline>
</glyph>
<glyph name="summation" format="2">
  <advance width="943"/>
  <unicode hex="2211"/>
  <outline>
    <contour>
      <point x="882" y="1404" type="curve" smooth="yes"/>
      <point x="47" y="1404" type="line" smooth="yes"/>
      <point x="22" y="1404"/>
      <point x="14" y="1388"/>
      <point x="27" y="1367" type="curve" smooth="yes"/>
      <point x="541" y="564" type="line"/>
      <point x="27" y="-190" type="line" smooth="yes"/>
      <point x="13" y="-211"/>
      <point x="21" y="-228"/>
      <point x="46" y="-228" type="curve" smooth="yes"/>
      <point x="893" y="-228" type="line" smooth="yes"/>
      <point x="910" y="-228"/>
      <point x="923" y="-215"/>
      <point x="923" y="-198" type="curve" smooth="yes"/>
      <point x="923" y="-181"/>
      <point x="910" y="-168"/>
      <point x="893" y="-168" type="curve" smooth="yes"/>
      <point x="115" y="-168" type="line"/>
      <point x="598" y="541" type="line" smooth="yes"/>
      <point x="608" y="555"/>
      <point x="608" y="569"/>
      <point x="599" y="584" type="curve" smooth="yes"/>
      <point x="113" y="1344" type="line"/>
      <point x="882" y="1344" type="line" smooth="yes"/>
      <point x="899" y="1344"/>
      <point x="912" y="1357"/>
      <point x="912" y="1374" type="curve" smooth="yes"/>
      <point x="912" y="1391"/>
      <point x="899" y="1404"/>
    </contour>
  </outline>
</glyph>
<glyph name="minus" format="2">
  <advance width="1250"/>
  <unicode hex="2212"/>
  <outline>
    <contour>
      <point x="100" y="548" type="curve" smooth="yes"/>
      <point x="1146" y="548" type="line" smooth="yes"/>
      <point x="1163" y="548"/>
      <point x="1176" y="561"/>
      <point x="1176" y="578" type="curve" smooth="yes"/>
      <point x="1176" y="595"/>
      <point x="1163" y="608"/>
      <point x="1146" y="608" type="curve" smooth="yes"/>
      <point x="100" y="608" type="line" smooth="yes"/>
      <point x="83" y="608"/>
      <point x="70" y="595"/>
      <point x="70" y="578" type="curve" smooth="yes"/>
      <point x="70" y="561"/>
      <point x="83" y="548"/>
    </contour>
  </outline>
</glyph>
<glyph name="divisionslash" format="2">
  <advance width="1200"/>
  <unicode hex="2215"/>
  <outline>
    <contour>
      <point x="244" y="-6" type="curve" smooth="yes"/>
      <point x="993" y="1379" type="line"/>
      <point x="996" y="1383"/>
      <point x="997" y="1388"/>
      <point x="997" y="1393" type="curve" smooth="yes"/>
      <point x="997" y="1410"/>
      <point x="984" y="1423"/>
      <point x="967" y="1423" type="curve" smooth="yes"/>
      <point x="956" y="1423"/>
      <point x="946" y="1417"/>
      <point x="941" y="1407" type="curve" smooth="yes"/>
      <point x="192" y="22" type="line"/>
      <point x="189" y="18"/>
      <point x="188" y="13"/>
      <point x="188" y="8" type="curve" smooth="yes"/>
      <point x="188" y="-9"/>
      <point x="201" y="-22"/>
      <point x="218" y="-22" type="curve" smooth="yes"/>
      <point x="229" y="-22"/>
      <point x="239" y="-16"/>
    </contour>
  </outline>
</glyph>
<glyph name="bulletoperator" format="2">
  <advance width="1200"/>
  <unicode hex="2219"/>
  <outline>
    <contour>
      <point x="600" y="424" type="curve" smooth="yes"/>
      <point x="676" y="424"/>
      <point x="737" y="485"/>
      <point x="737" y="561" type="curve" smooth="yes"/>
      <point x="737" y="637"/>
      <point x="676" y="698"/>
      <point x="600" y="698" type="curve" smooth="yes"/>
      <point x="524" y="698"/>
      <point x="463" y="637"/>
      <point x="463" y="561" type="curve" smooth="yes"/>
      <point x="463" y="485"/>
      <point x="524" y="424"/>
    </contour>
  </outline>
</glyph>
<glyph name="radical" format="2">
  <advance width="1200"/>
  <unicode hex="221A"/>
  <outline>
    <contour>
      <point x="1103" y="1404" type="curve" smooth="yes"/>
      <point x="788" y="1404" type="line" smooth="yes"/>
      <point x="770" y="1404"/>
      <point x="759" y="1395"/>
      <point x="754" y="1378" type="curve" smooth="yes"/>
      <point x="355" y="-110" type="line"/>
      <point x="112" y="509" type="line" smooth="yes"/>
      <point x="107" y="520"/>
      <point x="96" y="528"/>
      <point x="84" y="528" type="curve" smooth="yes"/>
      <point x="67" y="528"/>
      <point x="54" y="514"/>
      <point x="54" y="498" type="curve" smooth="yes"/>
      <point x="54" y="494"/>
      <point x="55" y="490"/>
      <point x="67" y="458" type="curve" smooth="yes"/>
      <point x="342" y="-243" type="line" smooth="yes"/>
      <point x="353" y="-270"/>
      <point x="374" y="-268"/>
      <point x="382" y="-240" type="curve" smooth="yes"/>
      <point x="807" y="1344" type="line"/>
      <point x="1103" y="1344" type="line" smooth="yes"/>
      <point x="1120" y="1344"/>
      <point x="1133" y="1357"/>
      <point x="1133" y="1374" type="curve" smooth="yes"/>
      <point x="1133" y="1391"/>
      <point x="1120" y="1404"/>
    </contour>
  </outline>
</glyph>
